<?xml version="1.0" standalone="no"?>
<!DOCTYPE svg PUBLIC "-//W3C//DTD SVG 1.1//EN" "http://www.w3.org/Graphics/SVG/1.1/DTD/svg11.dtd" >
<svg xmlns="http://www.w3.org/2000/svg" xmlns:xlink="http://www.w3.org/1999/xlink" version="1.1">
<metadata>
Created by FontForge 20170731 at Wed Sep 20 12:25:34 2023
 By Aleksey,,,
Copyright 2018 The Sometype Mono Project Authors (https://github.com/googlefonts/sometype-mono)
</metadata>
<defs>
<font id="SometypeMono-SemiBold" horiz-adv-x="580" >
  <font-face 
    font-family="Sometype Mono SemiBold"
    font-weight="600"
    font-stretch="normal"
    units-per-em="1000"
    panose-1="2 11 0 9 2 2 3 3 2 4"
    ascent="800"
    descent="-200"
    x-height="474"
    cap-height="650"
    bbox="-40 -294 665 927"
    underline-thickness="79"
    underline-position="-222"
    unicode-range="U+0020-F8FF"
  />
<missing-glyph 
d="M290 -12l-280 367l280 367l280 -367zM270 163q17 0 28 11t11 27q0 17 -11 28t-28 11q-16 0 -27 -11t-11 -28q0 -16 11 -27t27 -11zM242 280h47q-3 12 -3 20q0 19 23 25l16 4q35 9 51.5 27t16.5 49q0 83 -111 83q-66 0 -116 -40l31 -45q35 31 87 31q51 0 51 -30
q0 -12 -8 -17.5t-29 -12.5l-16 -5q-46 -14 -46 -55q0 -14 6 -34z" />
    <glyph glyph-name=".notdef" 
d="M290 -12l-280 367l280 367l280 -367zM270 163q17 0 28 11t11 27q0 17 -11 28t-28 11q-16 0 -27 -11t-11 -28q0 -16 11 -27t27 -11zM242 280h47q-3 12 -3 20q0 19 23 25l16 4q35 9 51.5 27t16.5 49q0 83 -111 83q-66 0 -116 -40l31 -45q35 31 87 31q51 0 51 -30
q0 -12 -8 -17.5t-29 -12.5l-16 -5q-46 -14 -46 -55q0 -14 6 -34z" />
    <glyph glyph-name=".null" horiz-adv-x="0" 
 />
    <glyph glyph-name="nonmarkingreturn" horiz-adv-x="333" 
 />
    <glyph glyph-name="space" unicode=" " 
 />
    <glyph glyph-name="exclam" unicode="!" 
d="M279 228l-59 359v63h140v-63l-59 -359h-22zM290 -12q-32 0 -54.5 22t-22.5 55q0 32 22.5 54t54.5 22q33 0 55 -22t22 -54q0 -33 -22 -55t-55 -22z" />
    <glyph glyph-name="quotedbl" unicode="&#x22;" 
d="M146 355l-39 295h130l-40 -295h-51zM383 355l-40 295h130l-39 -295h-51z" />
    <glyph glyph-name="numbersign" unicode="#" 
d="M99 0l30 175h-107l12 72h108l27 155h-108l12 72h109l27 156h77l-27 -156h115l27 156h77l-27 -156h107l-12 -72h-107l-27 -155h107l-12 -72h-108l-31 -175h-77l31 175h-116l-30 -175h-77zM219 247h116l27 155h-116z" />
    <glyph glyph-name="dollar" unicode="$" 
d="M248 -82l12 102q-61 3 -113.5 20.5t-96.5 49.5l51 87q35 -26 75.5 -40t87.5 -17v150l-37 5q-79 10 -117.5 51t-38.5 108q0 76 49.5 122t139.5 53l-12 103h98l-12 -103q48 -3 92.5 -16t81.5 -36l-47 -90q-28 18 -61 29t-70 14v-148l40 -6q79 -12 117 -52t38 -108
q0 -74 -48.5 -120t-142.5 -55l12 -103h-98zM330 121q47 5 69 23t22 48t-18.5 45t-61.5 21l-11 2v-139zM264 372v139q-45 -4 -67 -22.5t-22 -50.5q0 -28 19 -43t61 -22z" />
    <glyph glyph-name="percent" unicode="%" 
d="M76 -9l-66 56l201 222l46 -40zM424 -12q-64 0 -101 41.5t-37 111.5q0 71 37 112.5t101 41.5q65 0 101.5 -41.5t36.5 -112.5q0 -70 -36.5 -111.5t-101.5 -41.5zM424 57q31 0 45 21.5t14 62.5q0 43 -14 64t-45 21q-29 0 -44 -21t-15 -64q0 -41 15 -62.5t44 -21.5zM369 361
l-46 40l181 238l66 -56zM156 335q-65 0 -101.5 41.5t-36.5 112.5q0 70 36.5 111.5t101.5 41.5q64 0 101 -41.5t37 -111.5q0 -71 -37 -112.5t-101 -41.5zM156 404q30 0 44.5 21.5t14.5 63.5t-14.5 63t-44.5 21t-44.5 -21t-14.5 -63t14.5 -63.5t44.5 -21.5z" />
    <glyph glyph-name="ampersand" unicode="&#x26;" 
d="M207 -12q-87 0 -139 50t-52 134q0 60 27.5 102.5t79.5 73.5v2q-33 40 -47.5 72.5t-14.5 72.5q0 77 48.5 122t131.5 45q80 0 127 -41.5t47 -114.5q0 -62 -36 -102.5t-98 -70.5l-6 -4v-2l104 -111q14 27 28.5 64t29.5 85l90 -35q-24 -62 -45.5 -106t-42.5 -74l140 -150
h-141l-61 67q-33 -40 -75.5 -59.5t-94.5 -19.5zM218 84q28 0 52.5 11t48.5 36l-137 151q-30 -18 -45 -44t-15 -58q0 -44 26 -70t70 -26zM213 394l23 11q39 18 59.5 40t20.5 57q0 34 -20 52.5t-55 18.5q-37 0 -57.5 -20t-20.5 -57q0 -25 11.5 -48t38.5 -54z" />
    <glyph glyph-name="quotesingle" unicode="'" 
d="M265 305l-45 345h140l-45 -345h-50z" />
    <glyph glyph-name="parenleft" unicode="(" 
d="M453 -222q-99 26 -171 91t-111 162.5t-39 218.5t39 218.5t111 163t171 90.5v-76q-70 -22 -121.5 -76.5t-80.5 -135t-29 -184.5q0 -103 29 -184t80.5 -135.5t121.5 -76.5v-76z" />
    <glyph glyph-name="parenright" unicode=")" 
d="M127 -222v76q70 22 122 76.5t80.5 135.5t28.5 184q0 104 -28.5 184.5t-80.5 135t-122 76.5v76q99 -25 171 -90.5t111 -163t39 -218.5t-39 -218.5t-111 -162.5t-171 -91z" />
    <glyph glyph-name="asterisk" unicode="*" 
d="M243 25l17 198l-162 -113l-47 81l179 84l-179 84l47 81l162 -113l-17 198h94l-17 -198l162 113l47 -81l-179 -84l179 -84l-47 -81l-162 113l17 -198h-94z" />
    <glyph glyph-name="plus" unicode="+" 
d="M247 37v197h-197v86h197v197h86v-197h197v-86h-197v-197h-86z" />
    <glyph glyph-name="comma" unicode="," 
d="M186 -190l-13 56q51 10 82 42t40 86q-3 -1 -6.5 -1.5t-6.5 -0.5q-32 0 -54 23t-22 57q0 35 22.5 59.5t58.5 24.5q39 0 63 -27.5t24 -81.5q0 -57 -23 -107t-65.5 -84.5t-99.5 -45.5z" />
    <glyph glyph-name="hyphen" unicode="-" 
d="M90 238v78h400v-78h-400z" />
    <glyph glyph-name="period" unicode="." 
d="M290 -12q-35 0 -59.5 24.5t-24.5 59.5q0 36 24.5 60t59.5 24t59.5 -24t24.5 -60q0 -35 -24.5 -59.5t-59.5 -24.5z" />
    <glyph glyph-name="slash" unicode="/" 
d="M50 -60l384 770h96l-384 -770h-96z" />
    <glyph glyph-name="zero" unicode="0" 
d="M290 -12q-118 0 -180.5 83.5t-62.5 243.5t62.5 243.5t180.5 83.5t180.5 -83.5t62.5 -243.5t-62.5 -243.5t-180.5 -83.5zM290 86q68 0 102 57.5t34 171.5q0 22 -1 40.5t-4 35.5l-236 -244q35 -61 105 -61zM159 239l236 244q-34 61 -105 61q-68 0 -102 -57.5t-34 -171.5
q0 -21 1.5 -40t3.5 -36z" />
    <glyph glyph-name="one" unicode="1" 
d="M59 0v96h180v372l-126 -98l-49 67l209 199h72v-540h180v-96h-466z" />
    <glyph glyph-name="two" unicode="2" 
d="M68 0v77q0 116 42.5 178.5t141.5 91.5l81 24q34 10 53.5 27.5t19.5 54.5q0 46 -30.5 68.5t-87.5 22.5q-96 0 -167 -65l-55 84q48 40 101.5 59.5t120.5 19.5q109 0 167 -49.5t58 -143.5q0 -71 -36 -113.5t-115 -65.5l-80 -23q-37 -10 -59.5 -26.5t-34 -45.5t-13.5 -79h338
v-96h-445z" />
    <glyph glyph-name="three" unicode="3" 
d="M65 -12l-3 96q127 0 204 11.5t111 38t34 68.5q0 43 -33 56.5t-96 13.5h-119v96h83q66 0 103.5 21t37.5 70q0 42 -29.5 63.5t-85.5 21.5q-92 0 -163 -55l-51 85q95 68 218 68q104 0 161 -43t57 -124q0 -96 -84 -133v-2q51 -13 79.5 -46.5t28.5 -96.5q0 -75 -45 -121
t-144.5 -66.5t-263.5 -21.5z" />
    <glyph glyph-name="four" unicode="4" 
d="M343 0v139h-312v81l251 410h117l-241 -395h185v172l106 61v-233h102v-96h-102v-139h-106z" />
    <glyph glyph-name="five" unicode="5" 
d="M62 -12l-2 96q124 0 200.5 13t111.5 41t35 73q0 39 -25.5 58.5t-78.5 19.5q-72 0 -139 -36l-83 30l39 347h370v-96h-284l-20 -180q65 33 141 33q91 0 139 -46t48 -130q0 -79 -46 -128t-145.5 -71.5t-260.5 -23.5z" />
    <glyph glyph-name="six" unicode="6" 
d="M299 -12q-114 0 -178 75t-64 214q0 175 108 269t318 96l5 -96q-144 -2 -223.5 -52t-95.5 -150h1q64 64 156 64q62 0 107 -25.5t69.5 -70.5t24.5 -106q0 -65 -28 -114t-79.5 -76.5t-120.5 -27.5zM301 86q52 0 85.5 31t33.5 85q0 49 -30.5 78.5t-84.5 29.5q-39 0 -75.5 -17
t-64.5 -53q5 -72 40 -113t96 -41z" />
    <glyph glyph-name="seven" unicode="7" 
d="M149 0q35 164 96 291.5t157 240.5h-344v98h463v-105q-69 -75 -119 -156t-82.5 -171.5t-51.5 -197.5h-119z" />
    <glyph glyph-name="eight" unicode="8" 
d="M290 -12q-114 0 -179 48.5t-65 134.5q0 48 24.5 85t82.5 68v2q-43 25 -63.5 59.5t-20.5 80.5q0 83 60.5 129.5t160.5 46.5q101 0 161 -46t60 -124q0 -44 -20.5 -78.5t-62.5 -61.5v-2q53 -23 79.5 -59.5t26.5 -93.5q0 -89 -64.5 -139t-179.5 -50zM290 86q64 0 100.5 24
t36.5 68q0 30 -19.5 47t-55.5 29l-106 36q-48 -24 -70.5 -50.5t-22.5 -60.5q0 -45 35.5 -69t101.5 -24zM333 363q36 20 53.5 44.5t17.5 54.5q0 41 -29.5 61.5t-84.5 20.5q-53 0 -83.5 -20t-30.5 -57q0 -27 18.5 -45t57.5 -31z" />
    <glyph glyph-name="nine" unicode="9" 
d="M97 -12l-5 96q145 2 224 52t95 150h-1q-64 -64 -156 -64q-62 0 -107 25.5t-69.5 71t-24.5 105.5q0 65 28 114t80 76.5t120 27.5q114 0 178 -75t64 -214q0 -175 -108 -268.5t-318 -96.5zM275 320q39 0 75.5 17t64.5 53q-4 73 -39.5 113.5t-96.5 40.5q-52 0 -85.5 -31
t-33.5 -85q0 -49 30.5 -78.5t84.5 -29.5z" />
    <glyph glyph-name="colon" unicode=":" 
d="M290 318q-35 0 -59.5 24.5t-24.5 59.5q0 36 24.5 60t59.5 24t59.5 -24t24.5 -60q0 -35 -24.5 -59.5t-59.5 -24.5zM290 -12q-35 0 -59.5 24.5t-24.5 59.5q0 36 24.5 60t59.5 24t59.5 -24t24.5 -60q0 -35 -24.5 -59.5t-59.5 -24.5z" />
    <glyph glyph-name="semicolon" unicode=";" 
d="M186 -190l-13 56q51 10 82 42t40 86q-3 -1 -6.5 -1.5t-6.5 -0.5q-32 0 -54 23t-22 57q0 35 22.5 59.5t58.5 24.5q39 0 63 -27.5t24 -81.5q0 -57 -23 -107t-65.5 -84.5t-99.5 -45.5zM290 318q-35 0 -59.5 24.5t-24.5 59.5q0 36 24.5 60t59.5 24t59.5 -24t24.5 -60
q0 -35 -24.5 -59.5t-59.5 -24.5z" />
    <glyph glyph-name="less" unicode="&#x3c;" 
d="M491 0l-414 244v66l414 244v-99l-301 -178l301 -177v-100z" />
    <glyph glyph-name="equal" unicode="=" 
d="M60 343v85h460v-85h-460zM60 126v85h460v-85h-460z" />
    <glyph glyph-name="greater" unicode="&#x3e;" 
d="M89 0v100l301 177l-301 178v99l414 -244v-66z" />
    <glyph glyph-name="question" unicode="?" 
d="M210 228q-10 39 -10 69q0 88 92 112l40 11q45 11 62 26t17 44q0 39 -28 56.5t-88 17.5q-56 0 -100.5 -15.5t-84.5 -49.5l-56 83q53 41 110 60.5t128 19.5q111 0 168.5 -43t57.5 -128q0 -64 -34 -101t-107 -55l-39 -10q-24 -6 -35.5 -17t-11.5 -34q0 -9 2 -20t6 -26h-89z
M262 -12q-32 0 -54.5 22t-22.5 55q0 32 22.5 54t54.5 22q33 0 55 -22t22 -54q0 -33 -22 -55t-55 -22z" />
    <glyph glyph-name="at" unicode="@" 
d="M321 -46q-146 0 -222 93.5t-76 260.5q0 168 77 261t222 93q110 0 168 -55t58 -160v-284h-66l-10 44q-62 -56 -138 -56q-69 0 -111 40.5t-42 107.5q0 72 46.5 110.5t123.5 38.5h107v3q0 62 -35 94.5t-101 32.5q-98 0 -152.5 -70t-54.5 -199q0 -132 56 -201.5t155 -69.5
q38 0 75 11t69 32l32 -77q-79 -50 -181 -50zM347 236q31 0 59 12t52 38v87h-97q-45 0 -66.5 -19t-21.5 -53q0 -30 18.5 -47.5t55.5 -17.5z" />
    <glyph glyph-name="A" unicode="A" 
d="M19 0l214 650h114l214 -650h-111l-50 155h-225l-50 -155h-106zM205 253h164l-82 262z" />
    <glyph glyph-name="B" unicode="B" 
d="M79 0v650h231q103 0 152.5 -42t49.5 -125q0 -54 -22 -89t-69 -52v-2q109 -31 109 -159q0 -181 -207 -181h-244zM186 98h128q56 0 82 21.5t26 69.5q0 51 -29 73.5t-92 22.5h-115v-187zM186 383h103q63 0 89.5 20.5t26.5 66.5q0 44 -23.5 63t-79.5 19h-116v-169z" />
    <glyph glyph-name="C" unicode="C" 
d="M329 -12q-131 0 -200 86.5t-69 250.5t69 250.5t200 86.5q55 0 100 -16.5t86 -52.5l-55 -83q-30 27 -62 39.5t-68 12.5q-162 0 -162 -237t162 -237q41 0 75.5 15.5t69.5 50.5l60 -78q-46 -46 -95 -67t-111 -21z" />
    <glyph glyph-name="D" unicode="D" 
d="M75 0v650h170q141 0 214.5 -82.5t73.5 -242.5t-72.5 -242.5t-211.5 -82.5h-174zM181 98h58q96 0 141 55t45 172t-45 172t-141 55h-58v-454z" />
    <glyph glyph-name="E" unicode="E" 
d="M97 0v650h419v-98h-313v-172h265v-98h-265v-184h313v-98h-419z" />
    <glyph glyph-name="F" unicode="F" 
d="M102 0v650h420v-98h-314v-179h266v-98h-266v-275h-106z" />
    <glyph glyph-name="G" unicode="G" 
d="M295 -12q-76 0 -131.5 40.5t-85 116t-29.5 180.5q0 164 69 250.5t200 86.5q55 0 100 -16.5t86 -52.5l-55 -83q-30 27 -62 39.5t-68 12.5q-162 0 -162 -237t158 -237q57 0 100 35v152h-115v98h221v-373h-70l-10 46q-32 -30 -67.5 -44t-78.5 -14z" />
    <glyph glyph-name="H" unicode="H" 
d="M68 0v650h106v-270h232v270h106v-650h-106v282h-232v-282h-106z" />
    <glyph glyph-name="I" unicode="I" 
d="M76 0v98h161v454h-161v98h428v-98h-161v-454h161v-98h-428z" />
    <glyph glyph-name="J" unicode="J" 
d="M265 -12q-63 0 -114 20.5t-97 66.5l60 79q35 -34 70 -50t76 -16q59 0 89.5 30.5t30.5 87.5v346h-218v98h324v-451q0 -101 -57.5 -156t-163.5 -55z" />
    <glyph glyph-name="K" unicode="K" 
d="M69 0v650h106v-305l247 305h132l-214 -258l219 -392h-122l-170 303l-92 -110v-193h-106z" />
    <glyph glyph-name="L" unicode="L" 
d="M102 0v650h106v-552h314v-98h-420z" />
    <glyph glyph-name="M" unicode="M" 
d="M58 0v650h129l101 -351l101 351h133v-650h-97v500l-108 -372h-59l-108 372v-500h-92z" />
    <glyph glyph-name="N" unicode="N" 
d="M68 0v650h122l226 -453v453h96v-650h-102l-246 495v-495h-96z" />
    <glyph glyph-name="O" unicode="O" 
d="M290 -12q-123 0 -186 85.5t-63 251.5q0 167 63 252t186 85t186 -85t63 -252q0 -166 -63 -251.5t-186 -85.5zM290 88q141 0 141 237t-141 237t-141 -237t141 -237z" />
    <glyph glyph-name="P" unicode="P" 
d="M82 0v650h243q103 0 156.5 -49.5t53.5 -143.5t-53.5 -143.5t-156.5 -49.5h-136v-264h-107zM189 362h126q60 0 86 22t26 73t-26 73t-86 22h-126v-190z" />
    <glyph glyph-name="Q" unicode="Q" 
d="M433 -222q-91 0 -137 49t-46 148v15q-103 14 -156 98.5t-53 236.5q0 167 63 252t186 85t186 -85t63 -252q0 -287 -182 -330v-13q0 -55 20.5 -80.5t64.5 -25.5q49 0 95 27l32 -88q-31 -19 -64 -28t-72 -9zM290 88q141 0 141 237t-141 237t-141 -237t141 -237z" />
    <glyph glyph-name="R" unicode="R" 
d="M76 0v650h234q102 0 154.5 -48.5t52.5 -142.5q0 -149 -132 -182l163 -277h-124l-155 269h-86v-269h-107zM183 366h118q58 0 83 22t25 71q0 50 -25 71.5t-83 21.5h-118v-186z" />
    <glyph glyph-name="S" unicode="S" 
d="M283 -12q-69 0 -128 20t-108 62l55 85q39 -34 85 -50.5t99 -16.5q63 0 95.5 24.5t32.5 70.5q0 37 -18.5 55.5t-61.5 29.5l-105 25q-80 19 -118 62t-38 114q0 90 60 141.5t168 51.5q117 0 208 -66l-52 -87q-66 53 -157 53q-59 0 -89.5 -22.5t-30.5 -65.5q0 -32 18.5 -50.5
t61.5 -28.5l105 -26q80 -19 118 -61.5t38 -119.5q0 -93 -62 -146.5t-176 -53.5z" />
    <glyph glyph-name="T" unicode="T" 
d="M237 0v551h-205v99h516v-99h-205v-551h-106z" />
    <glyph glyph-name="U" unicode="U" 
d="M290 -12q-108 0 -165.5 56t-57.5 163v443h106v-435q0 -127 118 -127t118 127v435h104v-443q0 -107 -57.5 -163t-165.5 -56z" />
    <glyph glyph-name="V" unicode="V" 
d="M233 0l-205 650h111l154 -498l153 498h106l-205 -650h-114z" />
    <glyph glyph-name="W" unicode="W" 
d="M105 0l-102 650h100l69 -461l77 388h87l77 -388l70 461h94l-102 -650h-101l-82 409l-82 -409h-105z" />
    <glyph glyph-name="X" unicode="X" 
d="M36 0l194 331l-189 319h126l128 -225l128 225h116l-189 -322l194 -328h-126l-133 234l-133 -234h-116z" />
    <glyph glyph-name="Y" unicode="Y" 
d="M237 0v279l-220 371h126l151 -266l152 266h117l-220 -371v-279h-106z" />
    <glyph glyph-name="Z" unicode="Z" 
d="M64 0v73l309 479h-294v98h435v-73l-310 -479h310v-98h-450z" />
    <glyph glyph-name="bracketleft" unicode="[" 
d="M153 -210v920h315v-77h-227v-766h227v-77h-315z" />
    <glyph glyph-name="backslash" unicode="\" 
d="M434 -60l-384 770h96l384 -770h-96z" />
    <glyph glyph-name="bracketright" unicode="]" 
d="M112 -210v77h227v766h-227v77h315v-920h-315z" />
    <glyph glyph-name="asciicircum" unicode="^" 
d="M42 274l209 362h78l209 -362h-100l-148 260l-148 -260h-100z" />
    <glyph glyph-name="underscore" unicode="_" 
d="M0 -144v78h580v-78h-580z" />
    <glyph glyph-name="grave" unicode="`" 
d="M324 546l-168 147l73 64l145 -168z" />
    <glyph glyph-name="a" unicode="a" 
d="M241 -12q-87 0 -135 40t-48 112q0 70 46 106t134 36h158v13q0 54 -26 77.5t-87 23.5q-90 0 -166 -43l-31 85q91 48 207 48q107 0 157 -44t50 -139v-303h-77l-9 44q-40 -29 -82 -42.5t-91 -13.5zM262 78q75 0 134 38v85h-151q-42 0 -61.5 -14.5t-19.5 -43.5
q0 -32 24 -48.5t74 -16.5z" />
    <glyph glyph-name="b" unicode="b" 
d="M322 -12q-82 0 -158 55l-10 -43h-76v710h104v-268q33 22 68.5 33t71.5 11q94 0 149.5 -67.5t55.5 -181.5t-55.5 -181.5t-149.5 -67.5zM297 84q61 0 93 39t32 114t-32 114t-93 39q-29 0 -58.5 -8.5t-56.5 -26.5v-236q27 -17 56.5 -26t58.5 -9z" />
    <glyph glyph-name="c" unicode="c" 
d="M329 -12q-78 0 -135 30.5t-88 86t-31 132.5t31 132.5t88 86t135 30.5q93 0 171 -49l-37 -86q-36 21 -67 30t-65 9q-72 0 -111 -39t-39 -114t39 -114t111 -39q38 0 71 10.5t73 35.5l40 -83q-83 -59 -186 -59z" />
    <glyph glyph-name="d" unicode="d" 
d="M258 -12q-94 0 -149.5 67.5t-55.5 181.5t55.5 181.5t149.5 67.5q36 0 71.5 -11t68.5 -33v268h104v-710h-76l-10 43q-76 -55 -158 -55zM283 84q29 0 58.5 9t56.5 26v236q-27 18 -56.5 26.5t-58.5 8.5q-61 0 -93 -39t-32 -114t32 -114t93 -39z" />
    <glyph glyph-name="e" unicode="e" 
d="M317 -12q-123 0 -193.5 66.5t-70.5 182.5q0 75 30.5 131t85.5 87t127 31q71 0 123 -29t80.5 -81.5t28.5 -123.5q0 -12 -0.5 -24.5t-3.5 -26.5h-365q9 -61 49.5 -92t109.5 -31q78 0 151 47l40 -78q-46 -31 -92 -45t-100 -14zM160 282h265q-7 55 -40.5 84.5t-89.5 29.5
q-54 0 -89 -29.5t-46 -84.5z" />
    <glyph glyph-name="f" unicode="f" 
d="M217 0v380h-143v94h143v67q0 89 49.5 135t143.5 46q83 0 153 -37l-27 -89q-54 30 -111 30q-53 0 -78.5 -24.5t-25.5 -76.5v-51h186v-94h-186v-380h-104z" />
    <glyph glyph-name="g" unicode="g" 
d="M273 -222q-53 0 -102 12t-96 39l35 87q35 -21 75.5 -31.5t81.5 -10.5q67 0 99 28.5t32 85.5v54q-33 -22 -68.5 -33t-71.5 -11q-62 0 -108.5 31t-71.5 85.5t-25 127.5t25 127.5t71.5 85.5t108.5 31q82 0 158 -55l10 43h76v-494q0 -98 -58 -150t-171 -52zM283 94
q29 0 58.5 9t56.5 26v226q-27 18 -56.5 26.5t-58.5 8.5q-61 0 -93 -39t-32 -109t32 -109t93 -39z" />
    <glyph glyph-name="h" unicode="h" 
d="M83 0v710h104v-268q67 44 145 44q83 0 127.5 -46.5t44.5 -134.5v-305h-104v289q0 55 -21.5 78t-71.5 23q-32 0 -61.5 -8.5t-58.5 -26.5v-355h-104z" />
    <glyph glyph-name="i" unicode="i" 
d="M238 0v380h-189v94h293v-380h189v-94h-293zM280 569q-32 0 -54.5 22t-22.5 54q0 33 22.5 55t54.5 22t54.5 -22t22.5 -55q0 -32 -22.5 -54t-54.5 -22z" />
    <glyph glyph-name="j" unicode="j" 
d="M222 -222q-50 0 -95.5 12.5t-84.5 37.5l34 87q31 -20 64 -30.5t67 -10.5q52 0 79 26.5t27 76.5v403h-189v94h293v-513q0 -87 -51 -135t-144 -48zM355 569q-32 0 -54.5 22t-22.5 54q0 33 22.5 55t54.5 22t54.5 -22t22.5 -55q0 -32 -22.5 -54t-54.5 -22z" />
    <glyph glyph-name="k" unicode="k" 
d="M86 0v710h104v-449l221 213h136l-201 -188l206 -286h-128l-154 214l-80 -75v-139h-104z" />
    <glyph glyph-name="l" unicode="l" 
d="M396 -12q-182 0 -182 181v446h-189v95h293v-525q0 -55 21.5 -78t72.5 -23q60 0 115 33l27 -89q-70 -40 -158 -40z" />
    <glyph glyph-name="m" unicode="m" 
d="M47 0v474h64l8 -37q52 49 111 49q63 0 91 -49q49 49 108 49q50 0 79 -31.5t29 -86.5v-368h-92v356q0 42 -43 42q-35 0 -64 -27v-371h-92v356q0 42 -42 42q-35 0 -65 -26v-372h-92z" />
    <glyph glyph-name="n" unicode="n" 
d="M83 0v474h77l10 -44q39 29 78.5 42.5t83.5 13.5q83 0 127.5 -46.5t44.5 -134.5v-305h-104v289q0 55 -21.5 78t-71.5 23q-32 0 -61.5 -8.5t-58.5 -26.5v-355h-104z" />
    <glyph glyph-name="o" unicode="o" 
d="M290 -12q-72 0 -126.5 31.5t-85 87.5t-30.5 130q0 75 30.5 130.5t85 87t126.5 31.5t126.5 -31.5t85 -87t30.5 -130.5q0 -74 -30.5 -130t-85 -87.5t-126.5 -31.5zM290 84q64 0 100 40.5t36 112.5t-36 112.5t-100 40.5q-63 0 -99.5 -40.5t-36.5 -112.5t36.5 -112.5
t99.5 -40.5z" />
    <glyph glyph-name="p" unicode="p" 
d="M78 -210v684h76l10 -43q76 55 158 55q94 0 149.5 -67.5t55.5 -181.5t-55.5 -181.5t-149.5 -67.5q-36 0 -71.5 11t-68.5 33v-242h-104zM297 84q61 0 93 39t32 114t-32 114t-93 39q-29 0 -58.5 -8.5t-56.5 -26.5v-236q27 -17 56.5 -26t58.5 -9z" />
    <glyph glyph-name="q" unicode="q" 
d="M398 -210v242q-33 -22 -68.5 -33t-71.5 -11q-94 0 -149.5 67.5t-55.5 181.5t55.5 181.5t149.5 67.5q82 0 158 -55l10 43h76v-684h-104zM283 84q29 0 58.5 9t56.5 26v236q-27 18 -56.5 26.5t-58.5 8.5q-61 0 -93 -39t-32 -114t32 -114t93 -39z" />
    <glyph glyph-name="r" unicode="r" 
d="M114 0v474h81l12 -71q38 43 83 63t101 20q71 0 120 -35l-39 -91q-21 16 -43 22.5t-48 6.5q-93 0 -163 -89v-300h-104z" />
    <glyph glyph-name="s" unicode="s" 
d="M287 -12q-131 0 -226 59l38 82q41 -25 89.5 -38t101.5 -13q113 0 113 58q0 23 -13.5 33.5t-46.5 13.5l-112 14q-75 10 -110.5 42t-35.5 93q0 74 53.5 114t152.5 40q110 0 203 -48l-34 -84q-75 42 -171 42q-100 0 -100 -56q0 -21 13.5 -31.5t46.5 -14.5l112 -14
q75 -9 110.5 -41t35.5 -94q0 -76 -56.5 -116.5t-163.5 -40.5z" />
    <glyph glyph-name="t" unicode="t" 
d="M374 -12q-182 0 -182 181v211h-143v94h143v140l104 48v-188h186v-94h-186v-195q0 -55 21.5 -78t72.5 -23q60 0 115 33l27 -89q-70 -40 -158 -40z" />
    <glyph glyph-name="u" unicode="u" 
d="M248 -12q-83 0 -127.5 46.5t-44.5 134.5v305h104v-289q0 -55 21.5 -78t71.5 -23q32 0 62 9t58 26v355h104v-474h-77l-10 44q-38 -29 -78 -42.5t-84 -13.5z" />
    <glyph glyph-name="v" unicode="v" 
d="M235 0l-188 474h112l134 -349l135 349h105l-188 -474h-110z" />
    <glyph glyph-name="w" unicode="w" 
d="M116 0l-110 474h95l77 -346l76 293h77l76 -293l78 346h89l-110 -474h-100l-74 288l-74 -288h-100z" />
    <glyph glyph-name="x" unicode="x" 
d="M41 0l183 242l-178 232h130l122 -158l117 158h119l-178 -235l183 -239h-130l-127 165l-122 -165h-119z" />
    <glyph glyph-name="y" unicode="y" 
d="M134 -222q-71 0 -122 32l33 87q39 -23 82 -23q38 0 59.5 18t39.5 65l15 39l-194 478h112l135 -342l134 342h105l-218 -558q-30 -76 -70.5 -107t-110.5 -31z" />
    <glyph glyph-name="z" unicode="z" 
d="M76 0v69l271 311h-261v94h416v-69l-271 -311h271v-94h-426z" />
    <glyph glyph-name="braceleft" unicode="{" 
d="M409 -210q-98 0 -142 47.5t-44 136.5q0 19 1.5 37t3.5 37q2 18 3 34t1 31q0 54 -20 76t-70 22h-55v78h55q50 0 70 22t20 76q0 15 -1 31t-3 34q-2 19 -3.5 37t-1.5 37q0 89 44 136.5t142 47.5h79v-77h-60q-63 0 -90 -26.5t-27 -85.5q0 -13 1.5 -30t2.5 -33q2 -20 3.5 -38
t1.5 -34q0 -58 -22.5 -89.5t-67.5 -44.5v-4q45 -13 67.5 -44t22.5 -90q0 -16 -1.5 -34t-3.5 -38q-1 -16 -2.5 -32.5t-1.5 -30.5q0 -59 27 -85.5t90 -26.5h60v-77h-79z" />
    <glyph glyph-name="bar" unicode="|" 
d="M243 -250v1000h94v-1000h-94z" />
    <glyph glyph-name="braceright" unicode="}" 
d="M92 -210v77h60q63 0 90 26.5t27 85.5q0 14 -1 30.5t-3 32.5q-2 20 -3.5 38t-1.5 34q0 59 22.5 90t67.5 44v4q-45 13 -67.5 44.5t-22.5 89.5q0 16 1.5 34t3.5 38q2 16 3 33t1 30q0 59 -27 85.5t-90 26.5h-60v77h79q99 0 142.5 -47.5t43.5 -136.5q0 -19 -1.5 -37t-3.5 -37
q-2 -18 -3 -34t-1 -31q0 -54 20 -76t70 -22h55v-78h-55q-50 0 -70 -22t-20 -76q0 -15 1 -31t3 -34q2 -19 3.5 -37t1.5 -37q0 -89 -43.5 -136.5t-142.5 -47.5h-79z" />
    <glyph glyph-name="asciitilde" unicode="~" 
d="M131 169l-82 3q4 109 40 159t102 50q45 0 76.5 -25.5t55.5 -51.5q19 -19 35.5 -34t34.5 -15q26 0 39.5 28.5t16.5 97.5l82 -3q-4 -108 -39.5 -158.5t-102.5 -50.5q-45 0 -76.5 25.5t-55.5 51.5q-18 20 -34.5 34.5t-35.5 14.5q-26 0 -39.5 -28.5t-16.5 -97.5z" />
    <glyph glyph-name="uni00A0" unicode="&#xa0;" 
 />
    <glyph glyph-name="exclamdown" unicode="&#xa1;" 
d="M301 246l59 -358v-64h-140v64l59 358h22zM290 486q33 0 55 -22t22 -54q0 -33 -22 -55t-55 -22q-32 0 -54.5 22t-22.5 55q0 32 22.5 54t54.5 22z" />
    <glyph glyph-name="cent" unicode="&#xa2;" 
d="M279 -35l7 102q-104 11 -164.5 76t-60.5 172q0 108 60.5 173.5t164.5 74.5l-7 102h98l-8 -102q37 -5 72.5 -16.5t71.5 -33.5l-42 -89q-54 33 -103 39v-296q28 5 55.5 16t58.5 30l45 -86q-40 -26 -78.5 -40.5t-79.5 -18.5l8 -103h-98zM288 166v298q-59 -7 -89.5 -45
t-30.5 -104t30.5 -103.5t89.5 -45.5z" />
    <glyph glyph-name="sterling" unicode="&#xa3;" 
d="M64 0v104q62 23 87 58.5t25 76.5q0 6 -0.5 11.5t-1.5 11.5h-110v96h68q-8 19 -13.5 42t-5.5 52q0 91 59.5 140.5t168.5 49.5q51 0 94 -11t82 -34l-37 -94q-62 41 -140 41q-58 0 -89 -23t-31 -72q0 -26 9 -47t20 -44h215v-96h-188q1 -4 1 -8v-9q0 -49 -18.5 -84.5
t-56.5 -64.5h313v-96h-451z" />
    <glyph glyph-name="currency" unicode="&#xa4;" 
d="M104 54l-76 77l106 91q-25 41 -25 93t25 93l-106 91l76 77l94 -108q40 24 92 24t92 -24l94 108l76 -77l-106 -91q25 -41 25 -93t-25 -93l106 -91l-76 -77l-94 108q-40 -24 -92 -24t-92 24zM290 227q38 0 61 24t23 64t-23 64t-61 24q-37 0 -60.5 -24t-23.5 -64t23.5 -64
t60.5 -24z" />
    <glyph glyph-name="yen" unicode="&#xa5;" 
d="M235 0v113h-174v79h174v81h-174v79h164l-194 278h126l133 -201l133 201h126l-194 -278h158v-79h-174v-81h174v-79h-174v-113h-104z" />
    <glyph glyph-name="brokenbar" unicode="&#xa6;" 
d="M243 400v350h94v-350h-94zM243 -250v350h94v-350h-94z" />
    <glyph glyph-name="section" unicode="&#xa7;" 
d="M284 -131q-60 0 -111 14t-95 43l39 75q39 -24 79.5 -35t87.5 -11q117 0 117 70q0 24 -16.5 38t-54.5 21l-120 23q-75 14 -111.5 48t-36.5 94q0 94 88 133v2q-70 37 -70 119q0 75 56 117t159 42q116 0 205 -56l-39 -76q-39 24 -79 35t-87 11q-118 0 -118 -69
q0 -25 17 -38.5t55 -20.5l119 -23q76 -14 112 -48.5t36 -93.5q0 -95 -88 -134v-2q70 -36 70 -118q0 -76 -56 -118t-158 -42zM309 180q56 5 82.5 28.5t26.5 62.5q0 29 -16 43.5t-57 21.5l-75 14q-55 -3 -82.5 -26.5t-27.5 -64.5q0 -28 16.5 -42.5t56.5 -22.5z" />
    <glyph glyph-name="dieresis" unicode="&#xa8;" 
d="M185 572q-32 0 -53 21t-21 52q0 32 21 53t53 21q31 0 52 -21t21 -53q0 -31 -21 -52t-52 -21zM395 572q-31 0 -52 21t-21 52q0 32 21 53t52 21q32 0 53 -21t21 -53q0 -31 -21 -52t-53 -21z" />
    <glyph glyph-name="copyright" unicode="&#xa9;" 
d="M290 18q-82 0 -143 37.5t-94.5 106.5t-33.5 163q0 95 33.5 163.5t94.5 106t143 37.5t143 -37.5t94.5 -106t33.5 -163.5q0 -94 -33.5 -163t-94.5 -106.5t-143 -37.5zM294 158q-71 0 -109.5 43.5t-38.5 123.5t38.5 124t108.5 44q30 0 54.5 -8.5t46.5 -28.5l-30 -46
q-31 28 -70 28q-89 0 -89 -113q0 -112 88 -112q44 0 78 34l33 -44q-24 -24 -50.5 -34.5t-59.5 -10.5zM290 73q99 0 155.5 67.5t56.5 184.5t-56.5 184.5t-155.5 67.5q-98 0 -155 -67.5t-57 -184.5t57 -184.5t155 -67.5z" />
    <glyph glyph-name="ordfeminine" unicode="&#xaa;" 
d="M254 272q-68 0 -106.5 32t-38.5 88q0 54 36.5 82t105.5 28h125v10q0 42 -20.5 59.5t-67.5 17.5q-70 0 -131 -33l-26 68q70 38 165 38q85 0 125 -34.5t40 -108.5v-237h-63l-8 34q-60 -44 -136 -44zM109 100v77h352v-77h-352zM270 345q60 0 106 27v67h-119q-32 0 -47 -11.5
t-15 -33.5q0 -49 75 -49z" />
    <glyph glyph-name="guillemotleft" unicode="&#xab;" 
d="M473 47l-167 164v52l167 164l38 -35l-107 -155l107 -155zM235 47l-168 164v52l168 164l37 -35l-106 -155l106 -155z" />
    <glyph glyph-name="logicalnot" unicode="&#xac;" 
d="M425 77v217h-375v85h460v-302h-85z" />
    <glyph glyph-name="registered" unicode="&#xae;" 
d="M290 18q-82 0 -143 37.5t-94.5 106.5t-33.5 163q0 95 33.5 163.5t94.5 106t143 37.5t143 -37.5t94.5 -106t33.5 -163.5q0 -94 -33.5 -163t-94.5 -106.5t-143 -37.5zM290 73q99 0 155.5 67.5t56.5 184.5t-56.5 184.5t-155.5 67.5q-98 0 -155 -67.5t-57 -184.5t57 -184.5
t155 -67.5zM179 164v323h129q50 0 76.5 -27t26.5 -74q0 -73 -59 -94l75 -128h-68l-70 121h-51v-121h-59zM238 339h62q29 0 40.5 12t11.5 35q0 24 -11.5 35.5t-40.5 11.5h-62v-94z" />
    <glyph glyph-name="macron" unicode="&#xaf;" 
d="M148 604v83h285v-83h-285z" />
    <glyph glyph-name="degree" unicode="&#xb0;" 
d="M290 388q-49 0 -87.5 21.5t-60.5 59.5t-22 86t22 86t60.5 59.5t87.5 21.5t87.5 -21.5t60.5 -59.5t22 -86t-22 -86t-60.5 -59.5t-87.5 -21.5zM290 467q37 0 60.5 25t23.5 63q0 39 -23.5 63.5t-60.5 24.5t-60.5 -24.5t-23.5 -63.5q0 -38 23.5 -63t60.5 -25z" />
    <glyph glyph-name="plusminus" unicode="&#xb1;" 
d="M246 133v180h-186v85h186v185h88v-185h186v-85h-186v-180h-88zM60 0v85h460v-85h-460z" />
    <glyph glyph-name="uni00B2" unicode="&#xb2;" 
d="M107 299v61q0 84 35 129t115 66l67 18q29 8 44 19.5t15 34.5q0 31 -24 46t-71 15q-41 0 -75 -12t-64 -36l-44 70q40 29 83.5 43.5t98.5 14.5q91 0 138.5 -37t47.5 -106q0 -54 -31 -84.5t-95 -48.5l-64 -18q-46 -12 -64 -31.5t-21 -65.5h275v-78h-366z" />
    <glyph glyph-name="uni00B3" unicode="&#xb3;" 
d="M105 287l-2 78q102 0 164.5 7.5t90.5 25t28 46.5q0 26 -21.5 37t-72.5 11h-108v75h71q57 0 85 15t28 47q0 59 -94 59q-77 0 -135 -41l-41 70q40 26 84.5 38t95.5 12q87 0 133.5 -32t46.5 -92q0 -70 -67 -95v-2q85 -20 85 -105q0 -56 -37 -90t-118.5 -49t-215.5 -15z" />
    <glyph glyph-name="acute" unicode="&#xb4;" 
d="M256 546l-50 43l145 168l73 -64z" />
    <glyph glyph-name="uni00B5" unicode="&#xb5;" 
d="M80 -210v684h104v-289q0 -55 21.5 -78t71.5 -23q32 0 62 9t57 26v355h104v-474h-77l-9 44q-38 -29 -78 -42.5t-84 -13.5q-51 0 -82 24l14 -151v-71h-104z" />
    <glyph glyph-name="paragraph" unicode="&#xb6;" 
d="M251 -120v383h-7q-102 0 -154 49t-52 145q0 193 206 193h264v-770h-82v683h-92v-683h-83z" />
    <glyph glyph-name="periodcentered" unicode="&#xb7;" 
d="M290 195q-35 0 -59.5 24.5t-24.5 59.5q0 36 24.5 60t59.5 24t59.5 -24t24.5 -60q0 -35 -24.5 -59.5t-59.5 -24.5z" />
    <glyph glyph-name="cedilla" unicode="&#xb8;" 
d="M278 -222q-33 0 -60.5 6.5t-52.5 18.5l17 61q26 -13 49.5 -18t47.5 -5q26 0 37 8t11 22q0 12 -10 18.5t-33 6.5h-50l39 104h49l-21 -55h3q101 0 101 -77q0 -45 -32.5 -67.5t-94.5 -22.5z" />
    <glyph glyph-name="uni00B9" unicode="&#xb9;" 
d="M108 299v78h146v263l-119 -68l-37 59l184 130h62v-384h145v-78h-381z" />
    <glyph glyph-name="ordmasculine" unicode="&#xba;" 
d="M290 272q-57 0 -100.5 24.5t-67.5 68.5t-24 103q0 58 24 101.5t67.5 68t100.5 24.5q58 0 101 -24.5t67 -68t24 -101.5q0 -59 -24 -103t-67 -68.5t-101 -24.5zM98 100v77h384v-77h-384zM290 350q49 0 77.5 31.5t28.5 86.5q0 54 -28.5 85t-77.5 31t-77.5 -31t-28.5 -85
q0 -55 28.5 -86.5t77.5 -31.5z" />
    <glyph glyph-name="guillemotright" unicode="&#xbb;" 
d="M345 44l-37 35l106 155l-106 154l37 35l168 -163v-53zM107 44l-38 35l107 155l-107 154l38 35l167 -163v-53z" />
    <glyph glyph-name="onequarter" unicode="&#xbc;" 
d="M22 347v61h90v137l-71 -40l-30 47l122 84h52v-228h90v-61h-253zM389 361l-46 40l181 238l66 -56zM96 -9l-66 56l201 222l46 -40zM457 0v58h-178v49l143 176h82l-133 -164h86v40l72 34v-74h53v-61h-53v-58h-72z" />
    <glyph glyph-name="onehalf" unicode="&#xbd;" 
d="M22 347v61h90v137l-71 -40l-30 47l122 84h52v-228h90v-61h-253zM369 361l-46 40l181 238l66 -56zM76 -9l-66 56l201 222l46 -40zM318 0v50q0 49 24.5 76t73.5 40l46 12q17 5 24 11.5t7 17.5q0 14 -12.5 20.5t-39.5 6.5t-50 -7t-43 -20l-28 55q23 14 53 23.5t70 9.5
q57 0 89.5 -22.5t32.5 -68.5q0 -37 -21.5 -55t-64.5 -30l-48 -14q-19 -5 -29 -13.5t-11 -30.5h174v-61h-247z" />
    <glyph glyph-name="threequarters" unicode="&#xbe;" 
d="M13 335l-2 61q104 0 143.5 9t39.5 33q0 13 -12 18.5t-49 5.5h-68v57h50q41 0 55.5 8.5t14.5 23.5t-12.5 22.5t-41.5 7.5q-27 0 -51.5 -5.5t-43.5 -16.5l-24 55q29 14 58.5 21t62.5 7q61 0 92 -20.5t31 -58.5q0 -43 -41 -59v-2q52 -13 52 -66q0 -54 -57.5 -77.5
t-196.5 -23.5zM379 361l-46 40l181 238l66 -56zM86 -9l-66 56l201 222l46 -40zM457 0v58h-178v49l143 176h82l-133 -164h86v40l72 34v-74h53v-61h-53v-58h-72z" />
    <glyph glyph-name="questiondown" unicode="&#xbf;" 
d="M370 246q10 -39 10 -68q0 -88 -92 -113l-40 -10q-45 -12 -62 -27t-17 -44q0 -39 28 -56.5t88 -17.5q56 0 100.5 16t84.5 49l56 -82q-53 -42 -109.5 -61.5t-128.5 -19.5q-111 0 -168.5 43.5t-57.5 127.5q0 64 34 101t107 56l39 9q24 6 35.5 17t11.5 34q0 9 -2 21t-6 25h89
zM318 486q33 0 55 -22t22 -54q0 -33 -22 -55t-55 -22q-32 0 -54.5 22t-22.5 55q0 32 22.5 54t54.5 22z" />
    <glyph glyph-name="Agrave" unicode="&#xc0;" 
d="M19 0l214 650h114l214 -650h-111l-50 155h-225l-50 -155h-106zM205 253h164l-82 262zM334 713l-178 107l60 77l158 -131z" />
    <glyph glyph-name="Aacute" unicode="&#xc1;" 
d="M19 0l214 650h114l214 -650h-111l-50 155h-225l-50 -155h-106zM205 253h164l-82 262zM246 713l-40 53l158 131l60 -77z" />
    <glyph glyph-name="Acircumflex" unicode="&#xc2;" 
d="M19 0l214 650h114l214 -650h-111l-50 155h-225l-50 -155h-106zM205 253h164l-82 262zM156 713l-40 53l157 130h34l157 -130l-40 -53l-134 89z" />
    <glyph glyph-name="Atilde" unicode="&#xc3;" 
d="M19 0l214 650h114l214 -650h-111l-50 155h-225l-50 -155h-106zM205 253h164l-82 262zM183 727l-68 12q13 65 41.5 98t72.5 33q31 0 50.5 -10.5t34.5 -20.5q10 -7 19 -12.5t19 -5.5q16 0 27.5 13.5t18.5 45.5l67 -12q-12 -64 -40.5 -97.5t-73.5 -33.5q-30 0 -50 10.5
t-34 20.5q-10 7 -19 12.5t-20 5.5q-16 0 -27.5 -13.5t-17.5 -45.5z" />
    <glyph glyph-name="Adieresis" unicode="&#xc4;" 
d="M19 0l214 650h114l214 -650h-111l-50 155h-225l-50 -155h-106zM205 253h164l-82 262zM185 729q-32 0 -53 21.5t-21 52.5t21 52.5t53 21.5q31 0 52 -21.5t21 -52.5t-21 -52.5t-52 -21.5zM395 729q-31 0 -52 21.5t-21 52.5t21 52.5t52 21.5q32 0 53 -21.5t21 -52.5
t-21 -52.5t-53 -21.5z" />
    <glyph glyph-name="Aring" unicode="&#xc5;" 
d="M19 0l214 650h114l214 -650h-111l-50 155h-225l-50 -155h-106zM205 253h164l-82 262zM290 689q-49 0 -82 32.5t-33 81.5t33 81.5t82 32.5t82 -32.5t33 -81.5t-33 -81.5t-82 -32.5zM290 755q20 0 32.5 13.5t12.5 34.5q0 22 -12.5 35t-32.5 13q-19 0 -32 -13t-13 -35
q0 -21 13 -34.5t32 -13.5z" />
    <glyph glyph-name="AE" unicode="&#xc6;" 
d="M-4 0l229 650h344v-91h-187v-183h158v-90h-158v-195h187v-91h-283v137h-144l-47 -137h-99zM173 228h113v331h-2z" />
    <glyph glyph-name="Ccedilla" unicode="&#xc7;" 
d="M329 -12q-131 0 -200 86.5t-69 250.5t69 250.5t200 86.5q55 0 100 -16.5t86 -52.5l-55 -83q-30 27 -62 39.5t-68 12.5q-162 0 -162 -237t162 -237q41 0 75.5 15.5t69.5 50.5l60 -78q-46 -46 -95 -67t-111 -21zM302 -222q-33 0 -60.5 6.5t-52.5 18.5l17 61
q26 -13 49.5 -18t47.5 -5q26 0 37 8t11 22q0 12 -10 18.5t-33 6.5h-50l39 104h49l-21 -55h3q101 0 101 -77q0 -45 -32.5 -67.5t-94.5 -22.5z" />
    <glyph glyph-name="Egrave" unicode="&#xc8;" 
d="M97 0v650h419v-98h-313v-172h265v-98h-265v-184h313v-98h-419zM350 713l-178 107l60 77l158 -131z" />
    <glyph glyph-name="Eacute" unicode="&#xc9;" 
d="M97 0v650h419v-98h-313v-172h265v-98h-265v-184h313v-98h-419zM262 713l-40 53l158 131l60 -77z" />
    <glyph glyph-name="Ecircumflex" unicode="&#xca;" 
d="M97 0v650h419v-98h-313v-172h265v-98h-265v-184h313v-98h-419zM172 713l-40 53l157 130h34l157 -130l-40 -53l-134 89z" />
    <glyph glyph-name="Edieresis" unicode="&#xcb;" 
d="M97 0v650h419v-98h-313v-172h265v-98h-265v-184h313v-98h-419zM201 729q-32 0 -53 21.5t-21 52.5t21 52.5t53 21.5q31 0 52 -21.5t21 -52.5t-21 -52.5t-52 -21.5zM411 729q-31 0 -52 21.5t-21 52.5t21 52.5t52 21.5q32 0 53 -21.5t21 -52.5t-21 -52.5t-53 -21.5z" />
    <glyph glyph-name="Igrave" unicode="&#xcc;" 
d="M76 0v98h161v454h-161v98h428v-98h-161v-454h161v-98h-428zM334 713l-178 107l60 77l158 -131z" />
    <glyph glyph-name="Iacute" unicode="&#xcd;" 
d="M76 0v98h161v454h-161v98h428v-98h-161v-454h161v-98h-428zM246 713l-40 53l158 131l60 -77z" />
    <glyph glyph-name="Icircumflex" unicode="&#xce;" 
d="M76 0v98h161v454h-161v98h428v-98h-161v-454h161v-98h-428zM156 713l-40 53l157 130h34l157 -130l-40 -53l-134 89z" />
    <glyph glyph-name="Idieresis" unicode="&#xcf;" 
d="M76 0v98h161v454h-161v98h428v-98h-161v-454h161v-98h-428zM185 729q-32 0 -53 21.5t-21 52.5t21 52.5t53 21.5q31 0 52 -21.5t21 -52.5t-21 -52.5t-52 -21.5zM395 729q-31 0 -52 21.5t-21 52.5t21 52.5t52 21.5q32 0 53 -21.5t21 -52.5t-21 -52.5t-53 -21.5z" />
    <glyph glyph-name="Eth" unicode="&#xd0;" 
d="M11 282v86h315v-86h-315zM97 0v650h170q141 0 214 -82.5t73 -242.5t-72 -242.5t-212 -82.5h-173zM203 98h58q95 0 140 55t45 172t-45 172t-140 55h-58v-454z" />
    <glyph glyph-name="Ntilde" unicode="&#xd1;" 
d="M68 0v650h122l226 -453v453h96v-650h-102l-246 495v-495h-96zM183 727l-68 12q13 65 41.5 98t72.5 33q31 0 50.5 -10.5t34.5 -20.5q10 -7 19 -12.5t19 -5.5q16 0 27.5 13.5t18.5 45.5l67 -12q-12 -64 -40.5 -97.5t-73.5 -33.5q-30 0 -50 10.5t-34 20.5q-10 7 -19 12.5
t-20 5.5q-16 0 -27.5 -13.5t-17.5 -45.5z" />
    <glyph glyph-name="Ograve" unicode="&#xd2;" 
d="M290 -12q-123 0 -186 85.5t-63 251.5q0 167 63 252t186 85t186 -85t63 -252q0 -166 -63 -251.5t-186 -85.5zM290 88q141 0 141 237t-141 237t-141 -237t141 -237zM334 713l-178 107l60 77l158 -131z" />
    <glyph glyph-name="Oacute" unicode="&#xd3;" 
d="M290 -12q-123 0 -186 85.5t-63 251.5q0 167 63 252t186 85t186 -85t63 -252q0 -166 -63 -251.5t-186 -85.5zM290 88q141 0 141 237t-141 237t-141 -237t141 -237zM246 713l-40 53l158 131l60 -77z" />
    <glyph glyph-name="Ocircumflex" unicode="&#xd4;" 
d="M290 -12q-123 0 -186 85.5t-63 251.5q0 167 63 252t186 85t186 -85t63 -252q0 -166 -63 -251.5t-186 -85.5zM290 88q141 0 141 237t-141 237t-141 -237t141 -237zM156 713l-40 53l157 130h34l157 -130l-40 -53l-134 89z" />
    <glyph glyph-name="Otilde" unicode="&#xd5;" 
d="M290 -12q-123 0 -186 85.5t-63 251.5q0 167 63 252t186 85t186 -85t63 -252q0 -166 -63 -251.5t-186 -85.5zM290 88q141 0 141 237t-141 237t-141 -237t141 -237zM183 727l-68 12q13 65 41.5 98t72.5 33q31 0 50.5 -10.5t34.5 -20.5q10 -7 19 -12.5t19 -5.5
q16 0 27.5 13.5t18.5 45.5l67 -12q-12 -64 -40.5 -97.5t-73.5 -33.5q-30 0 -50 10.5t-34 20.5q-10 7 -19 12.5t-20 5.5q-16 0 -27.5 -13.5t-17.5 -45.5z" />
    <glyph glyph-name="Odieresis" unicode="&#xd6;" 
d="M290 -12q-123 0 -186 85.5t-63 251.5q0 167 63 252t186 85t186 -85t63 -252q0 -166 -63 -251.5t-186 -85.5zM290 88q141 0 141 237t-141 237t-141 -237t141 -237zM185 729q-32 0 -53 21.5t-21 52.5t21 52.5t53 21.5q31 0 52 -21.5t21 -52.5t-21 -52.5t-52 -21.5zM395 729
q-31 0 -52 21.5t-21 52.5t21 52.5t52 21.5q32 0 53 -21.5t21 -52.5t-21 -52.5t-53 -21.5z" />
    <glyph glyph-name="multiply" unicode="&#xd7;" 
d="M134 61l-60 61l155 155l-155 156l60 61l156 -156l156 156l60 -61l-155 -156l155 -155l-60 -61l-156 155z" />
    <glyph glyph-name="Oslash" unicode="&#xd8;" 
d="M290 -12q-123 0 -186 85.5t-63 251.5q0 167 63 252t186 85t186 -85t63 -252q0 -166 -63 -251.5t-186 -85.5zM290 88q141 0 141 237t-141 237t-141 -237t141 -237zM80 -32l-62 47l482 667l62 -47z" />
    <glyph glyph-name="Ugrave" unicode="&#xd9;" 
d="M290 -12q-108 0 -165.5 56t-57.5 163v443h106v-435q0 -127 118 -127t118 127v435h104v-443q0 -107 -57.5 -163t-165.5 -56zM334 713l-178 107l60 77l158 -131z" />
    <glyph glyph-name="Uacute" unicode="&#xda;" 
d="M290 -12q-108 0 -165.5 56t-57.5 163v443h106v-435q0 -127 118 -127t118 127v435h104v-443q0 -107 -57.5 -163t-165.5 -56zM246 713l-40 53l158 131l60 -77z" />
    <glyph glyph-name="Ucircumflex" unicode="&#xdb;" 
d="M290 -12q-108 0 -165.5 56t-57.5 163v443h106v-435q0 -127 118 -127t118 127v435h104v-443q0 -107 -57.5 -163t-165.5 -56zM156 713l-40 53l157 130h34l157 -130l-40 -53l-134 89z" />
    <glyph glyph-name="Udieresis" unicode="&#xdc;" 
d="M290 -12q-108 0 -165.5 56t-57.5 163v443h106v-435q0 -127 118 -127t118 127v435h104v-443q0 -107 -57.5 -163t-165.5 -56zM185 729q-32 0 -53 21.5t-21 52.5t21 52.5t53 21.5q31 0 52 -21.5t21 -52.5t-21 -52.5t-52 -21.5zM395 729q-31 0 -52 21.5t-21 52.5t21 52.5
t52 21.5q32 0 53 -21.5t21 -52.5t-21 -52.5t-53 -21.5z" />
    <glyph glyph-name="Yacute" unicode="&#xdd;" 
d="M237 0v279l-220 371h126l151 -266l152 266h117l-220 -371v-279h-106zM246 713l-40 53l158 131l60 -77z" />
    <glyph glyph-name="Thorn" unicode="&#xde;" 
d="M82 0v650h107v-107h136q103 0 156.5 -49.5t53.5 -143.5t-53.5 -143.5t-156.5 -49.5h-136v-157h-107zM189 254h126q60 0 86 22.5t26 73.5q0 50 -26 72.5t-86 22.5h-126v-191z" />
    <glyph glyph-name="germandbls" unicode="&#xdf;" 
d="M372 -12q-41 0 -75 10t-63 27l33 85q25 -13 48.5 -19.5t47.5 -6.5q34 0 52.5 13t18.5 42q0 26 -17 40t-41 28q-23 13 -47 31t-40 45.5t-16 68.5q0 33 10 60.5t32 58.5q17 25 25.5 43t8.5 38q0 34 -21 54t-61 20q-89 0 -89 -107v-519h-104v531q0 90 52 140.5t142 50.5
q87 0 137 -45.5t50 -123.5q0 -29 -9.5 -56t-32.5 -58q-17 -25 -25.5 -40t-8.5 -35q0 -26 17 -40.5t41 -28.5q24 -13 47.5 -31.5t39.5 -48t16 -75.5q0 -78 -46 -115t-122 -37z" />
    <glyph glyph-name="agrave" unicode="&#xe0;" 
d="M241 -12q-87 0 -135 40t-48 112q0 70 46 106t134 36h158v13q0 54 -26 77.5t-87 23.5q-90 0 -166 -43l-31 85q91 48 207 48q107 0 157 -44t50 -139v-303h-77l-9 44q-40 -29 -82 -42.5t-91 -13.5zM262 78q75 0 134 38v85h-151q-42 0 -61.5 -14.5t-19.5 -43.5
q0 -32 24 -48.5t74 -16.5zM320 546l-168 147l73 64l145 -168z" />
    <glyph glyph-name="aacute" unicode="&#xe1;" 
d="M241 -12q-87 0 -135 40t-48 112q0 70 46 106t134 36h158v13q0 54 -26 77.5t-87 23.5q-90 0 -166 -43l-31 85q91 48 207 48q107 0 157 -44t50 -139v-303h-77l-9 44q-40 -29 -82 -42.5t-91 -13.5zM262 78q75 0 134 38v85h-151q-42 0 -61.5 -14.5t-19.5 -43.5
q0 -32 24 -48.5t74 -16.5zM253 546l-50 43l145 168l73 -64z" />
    <glyph glyph-name="acircumflex" unicode="&#xe2;" 
d="M241 -12q-87 0 -135 40t-48 112q0 70 46 106t134 36h158v13q0 54 -26 77.5t-87 23.5q-90 0 -166 -43l-31 85q91 48 207 48q107 0 157 -44t50 -139v-303h-77l-9 44q-40 -29 -82 -42.5t-91 -13.5zM262 78q75 0 134 38v85h-151q-42 0 -61.5 -14.5t-19.5 -43.5
q0 -32 24 -48.5t74 -16.5zM165 546l-50 43l155 168h32l155 -168l-50 -43l-121 106z" />
    <glyph glyph-name="atilde" unicode="&#xe3;" 
d="M241 -12q-87 0 -135 40t-48 112q0 70 46 106t134 36h158v13q0 54 -26 77.5t-87 23.5q-90 0 -166 -43l-31 85q91 48 207 48q107 0 157 -44t50 -139v-303h-77l-9 44q-40 -29 -82 -42.5t-91 -13.5zM262 78q75 0 134 38v85h-151q-42 0 -61.5 -14.5t-19.5 -43.5
q0 -32 24 -48.5t74 -16.5zM179 561l-67 12q12 70 40.5 107.5t73.5 37.5q31 0 50 -13.5t34 -26.5q11 -9 20 -16t19 -7q17 0 28 18t18 56l67 -12q-12 -70 -40.5 -107.5t-73.5 -37.5q-31 0 -50 13.5t-34 26.5q-11 9 -20 16t-19 7q-17 0 -28 -17.5t-18 -56.5z" />
    <glyph glyph-name="adieresis" unicode="&#xe4;" 
d="M241 -12q-87 0 -135 40t-48 112q0 70 46 106t134 36h158v13q0 54 -26 77.5t-87 23.5q-90 0 -166 -43l-31 85q91 48 207 48q107 0 157 -44t50 -139v-303h-77l-9 44q-40 -29 -82 -42.5t-91 -13.5zM262 78q75 0 134 38v85h-151q-42 0 -61.5 -14.5t-19.5 -43.5
q0 -32 24 -48.5t74 -16.5zM182 572q-32 0 -53 21t-21 52q0 32 21 53t53 21q31 0 52 -21t21 -53q0 -31 -21 -52t-52 -21zM392 572q-31 0 -52 21t-21 52q0 32 21 53t52 21q32 0 53 -21t21 -53q0 -31 -21 -52t-53 -21z" />
    <glyph glyph-name="aring" unicode="&#xe5;" 
d="M241 -12q-87 0 -135 40t-48 112q0 70 46 106t134 36h158v13q0 54 -26 77.5t-87 23.5q-90 0 -166 -43l-31 85q91 48 207 48q107 0 157 -44t50 -139v-303h-77l-9 44q-40 -29 -82 -42.5t-91 -13.5zM262 78q75 0 134 38v85h-151q-42 0 -61.5 -14.5t-19.5 -43.5
q0 -32 24 -48.5t74 -16.5zM287 531q-49 0 -82 33t-33 81q0 50 33 82.5t82 32.5t82 -32.5t33 -82.5q0 -48 -33 -81t-82 -33zM287 598q20 0 32.5 13.5t12.5 33.5q0 22 -12.5 35t-32.5 13q-19 0 -32 -13t-13 -35q0 -20 13 -33.5t32 -13.5z" />
    <glyph glyph-name="ae" unicode="&#xe6;" 
d="M153 -12q-65 0 -103.5 40t-38.5 107q0 70 44 107t126 37h49v6q0 65 -19.5 92t-59.5 27q-49 0 -97 -35l-36 71q30 23 65 34.5t75 11.5q94 0 124 -74h2q36 74 121 74q77 0 117 -60t40 -174q0 -11 -0.5 -22t-2.5 -25h-233q4 -73 27.5 -104.5t73.5 -31.5q53 0 104 38l36 -72
q-30 -24 -65 -35.5t-76 -11.5q-95 0 -144 60q-53 -60 -129 -60zM176 69q21 0 38.5 8.5t35.5 27.5q-7 21 -12 46.5t-7 53.5h-44q-83 0 -83 -70q0 -31 19 -48.5t53 -17.5zM326 279h147q-2 65 -20 95t-52 30q-36 0 -54 -30t-21 -95z" />
    <glyph glyph-name="ccedilla" unicode="&#xe7;" 
d="M329 -12q-78 0 -135 30.5t-88 86t-31 132.5t31 132.5t88 86t135 30.5q93 0 171 -49l-37 -86q-36 21 -67 30t-65 9q-72 0 -111 -39t-39 -114t39 -114t111 -39q38 0 71 10.5t73 35.5l40 -83q-83 -59 -186 -59zM299 -222q-33 0 -60.5 6.5t-52.5 18.5l17 61q26 -13 49.5 -18
t47.5 -5q26 0 37 8t11 22q0 12 -10 18.5t-33 6.5h-50l39 104h49l-21 -55h3q101 0 101 -77q0 -45 -32.5 -67.5t-94.5 -22.5z" />
    <glyph glyph-name="egrave" unicode="&#xe8;" 
d="M317 -12q-123 0 -193.5 66.5t-70.5 182.5q0 75 30.5 131t85.5 87t127 31q71 0 123 -29t80.5 -81.5t28.5 -123.5q0 -12 -0.5 -24.5t-3.5 -26.5h-365q9 -61 49.5 -92t109.5 -31q78 0 151 47l40 -78q-46 -31 -92 -45t-100 -14zM160 282h265q-7 55 -40.5 84.5t-89.5 29.5
q-54 0 -89 -29.5t-46 -84.5zM330 546l-168 147l73 64l145 -168z" />
    <glyph glyph-name="eacute" unicode="&#xe9;" 
d="M317 -12q-123 0 -193.5 66.5t-70.5 182.5q0 75 30.5 131t85.5 87t127 31q71 0 123 -29t80.5 -81.5t28.5 -123.5q0 -12 -0.5 -24.5t-3.5 -26.5h-365q9 -61 49.5 -92t109.5 -31q78 0 151 47l40 -78q-46 -31 -92 -45t-100 -14zM160 282h265q-7 55 -40.5 84.5t-89.5 29.5
q-54 0 -89 -29.5t-46 -84.5zM262 546l-50 43l145 168l73 -64z" />
    <glyph glyph-name="ecircumflex" unicode="&#xea;" 
d="M317 -12q-123 0 -193.5 66.5t-70.5 182.5q0 75 30.5 131t85.5 87t127 31q71 0 123 -29t80.5 -81.5t28.5 -123.5q0 -12 -0.5 -24.5t-3.5 -26.5h-365q9 -61 49.5 -92t109.5 -31q78 0 151 47l40 -78q-46 -31 -92 -45t-100 -14zM160 282h265q-7 55 -40.5 84.5t-89.5 29.5
q-54 0 -89 -29.5t-46 -84.5zM174 546l-50 43l155 168h32l155 -168l-50 -43l-121 106z" />
    <glyph glyph-name="edieresis" unicode="&#xeb;" 
d="M317 -12q-123 0 -193.5 66.5t-70.5 182.5q0 75 30.5 131t85.5 87t127 31q71 0 123 -29t80.5 -81.5t28.5 -123.5q0 -12 -0.5 -24.5t-3.5 -26.5h-365q9 -61 49.5 -92t109.5 -31q78 0 151 47l40 -78q-46 -31 -92 -45t-100 -14zM160 282h265q-7 55 -40.5 84.5t-89.5 29.5
q-54 0 -89 -29.5t-46 -84.5zM191 572q-32 0 -53 21t-21 52q0 32 21 53t53 21q31 0 52 -21t21 -53q0 -31 -21 -52t-52 -21zM401 572q-31 0 -52 21t-21 52q0 32 21 53t52 21q32 0 53 -21t21 -53q0 -31 -21 -52t-53 -21z" />
    <glyph glyph-name="igrave" unicode="&#xec;" 
d="M238 0v380h-189v94h293v-380h189v-94h-293zM314 546l-168 147l73 64l145 -168z" />
    <glyph glyph-name="iacute" unicode="&#xed;" 
d="M238 0v380h-189v94h293v-380h189v-94h-293zM246 546l-50 43l145 168l73 -64z" />
    <glyph glyph-name="icircumflex" unicode="&#xee;" 
d="M238 0v380h-189v94h293v-380h189v-94h-293zM158 546l-50 43l155 168h32l155 -168l-50 -43l-121 106z" />
    <glyph glyph-name="idieresis" unicode="&#xef;" 
d="M238 0v380h-189v94h293v-380h189v-94h-293zM175 572q-32 0 -53 21t-21 52q0 32 21 53t53 21q31 0 52 -21t21 -53q0 -31 -21 -52t-52 -21zM385 572q-31 0 -52 21t-21 52q0 32 21 53t52 21q32 0 53 -21t21 -53q0 -31 -21 -52t-53 -21z" />
    <glyph glyph-name="eth" unicode="&#xf0;" 
d="M280 -12q-71 0 -124 28.5t-82 79.5t-29 117q0 67 28 116.5t78 76t115 26.5q43 0 78 -12.5t64 -41.5h2q-23 90 -84 153l-182 -80l-26 65l157 58q-33 23 -73.5 38.5t-84.5 22.5l24 87q70 -12 129.5 -40t107.5 -68l100 47l26 -65l-81 -28q51 -58 78.5 -134t27.5 -164
q0 -90 -31 -153t-87 -96t-131 -33zM283 84q70 0 105 46.5t35 139.5v7q-27 35 -59.5 51.5t-74.5 16.5q-65 0 -101.5 -34.5t-36.5 -95.5t35 -96t97 -35z" />
    <glyph glyph-name="ntilde" unicode="&#xf1;" 
d="M83 0v474h77l10 -44q39 29 78.5 42.5t83.5 13.5q83 0 127.5 -46.5t44.5 -134.5v-305h-104v289q0 55 -21.5 78t-71.5 23q-32 0 -61.5 -8.5t-58.5 -26.5v-355h-104zM192 561l-67 12q12 70 40.5 107.5t73.5 37.5q31 0 50 -13.5t34 -26.5q11 -9 20 -16t19 -7q17 0 28 18
t18 56l67 -12q-12 -70 -40.5 -107.5t-73.5 -37.5q-31 0 -50 13.5t-34 26.5q-11 9 -20 16t-19 7q-17 0 -28 -17.5t-18 -56.5z" />
    <glyph glyph-name="ograve" unicode="&#xf2;" 
d="M290 -12q-72 0 -126.5 31.5t-85 87.5t-30.5 130q0 75 30.5 130.5t85 87t126.5 31.5t126.5 -31.5t85 -87t30.5 -130.5q0 -74 -30.5 -130t-85 -87.5t-126.5 -31.5zM290 84q64 0 100 40.5t36 112.5t-36 112.5t-100 40.5q-63 0 -99.5 -40.5t-36.5 -112.5t36.5 -112.5
t99.5 -40.5zM324 546l-168 147l73 64l145 -168z" />
    <glyph glyph-name="oacute" unicode="&#xf3;" 
d="M290 -12q-72 0 -126.5 31.5t-85 87.5t-30.5 130q0 75 30.5 130.5t85 87t126.5 31.5t126.5 -31.5t85 -87t30.5 -130.5q0 -74 -30.5 -130t-85 -87.5t-126.5 -31.5zM290 84q64 0 100 40.5t36 112.5t-36 112.5t-100 40.5q-63 0 -99.5 -40.5t-36.5 -112.5t36.5 -112.5
t99.5 -40.5zM256 546l-50 43l145 168l73 -64z" />
    <glyph glyph-name="ocircumflex" unicode="&#xf4;" 
d="M290 -12q-72 0 -126.5 31.5t-85 87.5t-30.5 130q0 75 30.5 130.5t85 87t126.5 31.5t126.5 -31.5t85 -87t30.5 -130.5q0 -74 -30.5 -130t-85 -87.5t-126.5 -31.5zM290 84q64 0 100 40.5t36 112.5t-36 112.5t-100 40.5q-63 0 -99.5 -40.5t-36.5 -112.5t36.5 -112.5
t99.5 -40.5zM168 546l-50 43l155 168h32l155 -168l-50 -43l-121 106z" />
    <glyph glyph-name="otilde" unicode="&#xf5;" 
d="M290 -12q-72 0 -126.5 31.5t-85 87.5t-30.5 130q0 75 30.5 130.5t85 87t126.5 31.5t126.5 -31.5t85 -87t30.5 -130.5q0 -74 -30.5 -130t-85 -87.5t-126.5 -31.5zM290 84q64 0 100 40.5t36 112.5t-36 112.5t-100 40.5q-63 0 -99.5 -40.5t-36.5 -112.5t36.5 -112.5
t99.5 -40.5zM182 561l-67 12q12 70 40.5 107.5t73.5 37.5q31 0 50 -13.5t34 -26.5q11 -9 20 -16t19 -7q17 0 28 18t18 56l67 -12q-12 -70 -40.5 -107.5t-73.5 -37.5q-31 0 -50 13.5t-34 26.5q-11 9 -20 16t-19 7q-17 0 -28 -17.5t-18 -56.5z" />
    <glyph glyph-name="odieresis" unicode="&#xf6;" 
d="M290 -12q-72 0 -126.5 31.5t-85 87.5t-30.5 130q0 75 30.5 130.5t85 87t126.5 31.5t126.5 -31.5t85 -87t30.5 -130.5q0 -74 -30.5 -130t-85 -87.5t-126.5 -31.5zM290 84q64 0 100 40.5t36 112.5t-36 112.5t-100 40.5q-63 0 -99.5 -40.5t-36.5 -112.5t36.5 -112.5
t99.5 -40.5zM185 572q-32 0 -53 21t-21 52q0 32 21 53t53 21q31 0 52 -21t21 -53q0 -31 -21 -52t-52 -21zM395 572q-31 0 -52 21t-21 52q0 32 21 53t52 21q32 0 53 -21t21 -53q0 -31 -21 -52t-53 -21z" />
    <glyph glyph-name="divide" unicode="&#xf7;" 
d="M50 234v86h480v-86h-480zM290 7q-31 0 -52 20.5t-21 52.5q0 30 21 51t52 21t52 -21t21 -51q0 -32 -21 -52.5t-52 -20.5zM290 402q-31 0 -52 21t-21 52t21 52t52 21t52 -21t21 -52t-21 -52t-52 -21z" />
    <glyph glyph-name="oslash" unicode="&#xf8;" 
d="M290 -12q-72 0 -126.5 31.5t-85 87.5t-30.5 130q0 75 30.5 130.5t85 87t126.5 31.5t126.5 -31.5t85 -87t30.5 -130.5q0 -74 -30.5 -130t-85 -87.5t-126.5 -31.5zM290 80q67 0 103.5 41.5t36.5 115.5q0 75 -36.5 116t-103.5 41q-66 0 -103 -41t-37 -116q0 -74 37 -115.5
t103 -41.5zM96 -12l-54 56l442 442l54 -56z" />
    <glyph glyph-name="ugrave" unicode="&#xf9;" 
d="M248 -12q-83 0 -127.5 46.5t-44.5 134.5v305h104v-289q0 -55 21.5 -78t71.5 -23q32 0 62 9t58 26v355h104v-474h-77l-10 44q-38 -29 -78 -42.5t-84 -13.5zM324 546l-168 147l73 64l145 -168z" />
    <glyph glyph-name="uacute" unicode="&#xfa;" 
d="M248 -12q-83 0 -127.5 46.5t-44.5 134.5v305h104v-289q0 -55 21.5 -78t71.5 -23q32 0 62 9t58 26v355h104v-474h-77l-10 44q-38 -29 -78 -42.5t-84 -13.5zM256 546l-50 43l145 168l73 -64z" />
    <glyph glyph-name="ucircumflex" unicode="&#xfb;" 
d="M248 -12q-83 0 -127.5 46.5t-44.5 134.5v305h104v-289q0 -55 21.5 -78t71.5 -23q32 0 62 9t58 26v355h104v-474h-77l-10 44q-38 -29 -78 -42.5t-84 -13.5zM168 546l-50 43l155 168h32l155 -168l-50 -43l-121 106z" />
    <glyph glyph-name="udieresis" unicode="&#xfc;" 
d="M248 -12q-83 0 -127.5 46.5t-44.5 134.5v305h104v-289q0 -55 21.5 -78t71.5 -23q32 0 62 9t58 26v355h104v-474h-77l-10 44q-38 -29 -78 -42.5t-84 -13.5zM185 572q-32 0 -53 21t-21 52q0 32 21 53t53 21q31 0 52 -21t21 -53q0 -31 -21 -52t-52 -21zM395 572
q-31 0 -52 21t-21 52q0 32 21 53t52 21q32 0 53 -21t21 -53q0 -31 -21 -52t-53 -21z" />
    <glyph glyph-name="yacute" unicode="&#xfd;" 
d="M134 -222q-71 0 -122 32l33 87q39 -23 82 -23q38 0 59.5 18t39.5 65l15 39l-194 478h112l135 -342l134 342h105l-218 -558q-30 -76 -70.5 -107t-110.5 -31zM256 546l-50 43l145 168l73 -64z" />
    <glyph glyph-name="thorn" unicode="&#xfe;" 
d="M78 -210v920h104v-267q68 43 140 43q94 0 149.5 -67.5t55.5 -181.5t-55.5 -181.5t-149.5 -67.5q-36 0 -71.5 11t-68.5 33v-242h-104zM297 84q61 0 93 39t32 114t-32 114t-93 39q-29 0 -58.5 -8.5t-56.5 -26.5v-236q27 -17 56.5 -26t58.5 -9z" />
    <glyph glyph-name="ydieresis" unicode="&#xff;" 
d="M134 -222q-71 0 -122 32l33 87q39 -23 82 -23q38 0 59.5 18t39.5 65l15 39l-194 478h112l135 -342l134 342h105l-218 -558q-30 -76 -70.5 -107t-110.5 -31zM185 572q-32 0 -53 21t-21 52q0 32 21 53t53 21q31 0 52 -21t21 -53q0 -31 -21 -52t-52 -21zM395 572
q-31 0 -52 21t-21 52q0 32 21 53t52 21q32 0 53 -21t21 -53q0 -31 -21 -52t-53 -21z" />
    <glyph glyph-name="Amacron" unicode="&#x100;" 
d="M19 0l214 650h114l214 -650h-111l-50 155h-225l-50 -155h-106zM205 253h164l-82 262zM148 762v82h284v-82h-284z" />
    <glyph glyph-name="amacron" unicode="&#x101;" 
d="M241 -12q-87 0 -135 40t-48 112q0 70 46 106t134 36h158v13q0 54 -26 77.5t-87 23.5q-90 0 -166 -43l-31 85q91 48 207 48q107 0 157 -44t50 -139v-303h-77l-9 44q-40 -29 -82 -42.5t-91 -13.5zM262 78q75 0 134 38v85h-151q-42 0 -61.5 -14.5t-19.5 -43.5
q0 -32 24 -48.5t74 -16.5zM145 604v83h285v-83h-285z" />
    <glyph glyph-name="Abreve" unicode="&#x102;" 
d="M19 0l214 650h114l214 -650h-111l-50 155h-225l-50 -155h-106zM205 253h164l-82 262zM290 726q-45 0 -79.5 18.5t-55 53t-26.5 82.5h79q3 -33 26 -51t56 -18t56.5 18t25.5 51h79q-5 -48 -26 -82.5t-55 -53t-80 -18.5z" />
    <glyph glyph-name="abreve" unicode="&#x103;" 
d="M241 -12q-87 0 -135 40t-48 112q0 70 46 106t134 36h158v13q0 54 -26 77.5t-87 23.5q-90 0 -166 -43l-31 85q91 48 207 48q107 0 157 -44t50 -139v-303h-77l-9 44q-40 -29 -82 -42.5t-91 -13.5zM262 78q75 0 134 38v85h-151q-42 0 -61.5 -14.5t-19.5 -43.5
q0 -32 24 -48.5t74 -16.5zM287 559q-49 0 -82.5 18.5t-53 57t-27.5 97.5h81q6 -47 26.5 -68t55.5 -21t56 21t26 68h81q-8 -59 -27.5 -97.5t-52.5 -57t-83 -18.5z" />
    <glyph glyph-name="Aogonek" unicode="&#x104;" 
d="M19 0l214 650h114l214 -650h-111l-50 155h-225l-50 -155h-106zM205 253h164l-82 262zM477 -222q-50 0 -78 24.5t-28 68.5q0 37 23 72.5t71 76.5l46 -20q-37 -37 -49.5 -62t-12.5 -44q0 -16 11 -26t29 -10q12 0 24 3.5t24 12.5l18 -74q-14 -10 -35 -16t-43 -6z" />
    <glyph glyph-name="aogonek" unicode="&#x105;" 
d="M425 -222q-47 0 -75 24.5t-28 68.5q0 37 23 75t78 76l46 -20q-43 -34 -56 -61.5t-13 -46.5q0 -16 10 -26t26 -10q12 0 23 3.5t22 12.5l19 -75q-14 -9 -34 -15t-41 -6zM241 -12q-87 0 -135 40t-48 112q0 70 46 106t134 36h158v13q0 54 -26 77.5t-87 23.5q-90 0 -166 -43
l-31 85q91 48 207 48q107 0 157 -44t50 -139v-303h-77l-9 44q-40 -29 -82 -42.5t-91 -13.5zM262 78q75 0 134 38v85h-151q-42 0 -61.5 -14.5t-19.5 -43.5q0 -32 24 -48.5t74 -16.5z" />
    <glyph glyph-name="Cacute" unicode="&#x106;" 
d="M329 -12q-131 0 -200 86.5t-69 250.5t69 250.5t200 86.5q55 0 100 -16.5t86 -52.5l-55 -83q-30 27 -62 39.5t-68 12.5q-162 0 -162 -237t162 -237q41 0 75.5 15.5t69.5 50.5l60 -78q-46 -46 -95 -67t-111 -21zM265 713l-40 53l158 131l60 -77z" />
    <glyph glyph-name="cacute" unicode="&#x107;" 
d="M329 -12q-78 0 -135 30.5t-88 86t-31 132.5t31 132.5t88 86t135 30.5q93 0 171 -49l-37 -86q-36 21 -67 30t-65 9q-72 0 -111 -39t-39 -114t39 -114t111 -39q38 0 71 10.5t73 35.5l40 -83q-83 -59 -186 -59zM267 546l-50 43l145 168l73 -64z" />
    <glyph glyph-name="Ccircumflex" unicode="&#x108;" 
d="M329 -12q-131 0 -200 86.5t-69 250.5t69 250.5t200 86.5q55 0 100 -16.5t86 -52.5l-55 -83q-30 27 -62 39.5t-68 12.5q-162 0 -162 -237t162 -237q41 0 75.5 15.5t69.5 50.5l60 -78q-46 -46 -95 -67t-111 -21zM175 713l-40 53l157 130h34l157 -130l-40 -53l-134 89z" />
    <glyph glyph-name="ccircumflex" unicode="&#x109;" 
d="M329 -12q-78 0 -135 30.5t-88 86t-31 132.5t31 132.5t88 86t135 30.5q93 0 171 -49l-37 -86q-36 21 -67 30t-65 9q-72 0 -111 -39t-39 -114t39 -114t111 -39q38 0 71 10.5t73 35.5l40 -83q-83 -59 -186 -59zM179 546l-50 43l155 168h32l155 -168l-50 -43l-121 106z" />
    <glyph glyph-name="Cdotaccent" unicode="&#x10a;" 
d="M329 -12q-131 0 -200 86.5t-69 250.5t69 250.5t200 86.5q55 0 100 -16.5t86 -52.5l-55 -83q-30 27 -62 39.5t-68 12.5q-162 0 -162 -237t162 -237q41 0 75.5 15.5t69.5 50.5l60 -78q-46 -46 -95 -67t-111 -21zM309 726q-32 0 -54.5 22.5t-22.5 54.5t22.5 54.5t54.5 22.5
t54.5 -22.5t22.5 -54.5t-22.5 -54.5t-54.5 -22.5z" />
    <glyph glyph-name="cdotaccent" unicode="&#x10b;" 
d="M329 -12q-78 0 -135 30.5t-88 86t-31 132.5t31 132.5t88 86t135 30.5q93 0 171 -49l-37 -86q-36 21 -67 30t-65 9q-72 0 -111 -39t-39 -114t39 -114t111 -39q38 0 71 10.5t73 35.5l40 -83q-83 -59 -186 -59zM301 569q-32 0 -54.5 22t-22.5 54q0 33 22.5 55t54.5 22
t54.5 -22t22.5 -55q0 -32 -22.5 -54t-54.5 -22z" />
    <glyph glyph-name="Ccaron" unicode="&#x10c;" 
d="M329 -12q-131 0 -200 86.5t-69 250.5t69 250.5t200 86.5q55 0 100 -16.5t86 -52.5l-55 -83q-30 27 -62 39.5t-68 12.5q-162 0 -162 -237t162 -237q41 0 75.5 15.5t69.5 50.5l60 -78q-46 -46 -95 -67t-111 -21zM292 713l-157 131l40 52l134 -88l134 88l40 -52l-157 -131
h-34z" />
    <glyph glyph-name="ccaron" unicode="&#x10d;" 
d="M329 -12q-78 0 -135 30.5t-88 86t-31 132.5t31 132.5t88 86t135 30.5q93 0 171 -49l-37 -86q-36 21 -67 30t-65 9q-72 0 -111 -39t-39 -114t39 -114t111 -39q38 0 71 10.5t73 35.5l40 -83q-83 -59 -186 -59zM284 546l-155 168l50 43l121 -106l121 106l50 -43l-155 -168
h-32z" />
    <glyph glyph-name="Dcaron" unicode="&#x10e;" 
d="M75 0v650h170q141 0 214.5 -82.5t73.5 -242.5t-72.5 -242.5t-211.5 -82.5h-174zM181 98h58q96 0 141 55t45 172t-45 172t-141 55h-58v-454zM242 713l-157 131l40 52l134 -88l134 88l40 -52l-157 -131h-34z" />
    <glyph glyph-name="dcaron" unicode="&#x10f;" 
d="M258 -12q-94 0 -149.5 67.5t-55.5 181.5t55.5 181.5t149.5 67.5q36 0 71.5 -11t68.5 -33v268h104v-710h-76l-10 43q-76 -55 -158 -55zM283 84q29 0 58.5 9t56.5 26v236q-27 18 -56.5 26.5t-58.5 8.5q-61 0 -93 -39t-32 -114t32 -114t93 -39zM568 511l-49 34
q25 31 35 58.5t10 56.5q0 12 -1.5 24.5t-4.5 25.5l107 12q0 -49 -9 -84.5t-30 -65t-58 -61.5z" />
    <glyph glyph-name="Dcroat" unicode="&#x110;" 
d="M11 282v86h315v-86h-315zM97 0v650h170q141 0 214 -82.5t73 -242.5t-72 -242.5t-212 -82.5h-173zM203 98h58q95 0 140 55t45 172t-45 172t-140 55h-58v-454z" />
    <glyph glyph-name="dcroat" unicode="&#x111;" 
d="M258 -12q-62 0 -108.5 30t-71.5 81.5t-25 117.5q0 67 25 118t71.5 81t108.5 30q36 0 71.5 -11t68.5 -33v132h-152v78h152v98h104v-98h88v-78h-88v-534h-76l-10 44q-76 -56 -158 -56zM283 84q29 0 58.5 9t56.5 26v196q-27 18 -56.5 26.5t-58.5 8.5q-61 0 -93 -36.5
t-32 -96.5t32 -96.5t93 -36.5z" />
    <glyph glyph-name="Emacron" unicode="&#x112;" 
d="M97 0v650h419v-98h-313v-172h265v-98h-265v-184h313v-98h-419zM164 762v82h284v-82h-284z" />
    <glyph glyph-name="emacron" unicode="&#x113;" 
d="M317 -12q-123 0 -193.5 66.5t-70.5 182.5q0 75 30.5 131t85.5 87t127 31q71 0 123 -29t80.5 -81.5t28.5 -123.5q0 -12 -0.5 -24.5t-3.5 -26.5h-365q9 -61 49.5 -92t109.5 -31q78 0 151 47l40 -78q-46 -31 -92 -45t-100 -14zM160 282h265q-7 55 -40.5 84.5t-89.5 29.5
q-54 0 -89 -29.5t-46 -84.5zM154 604v83h285v-83h-285z" />
    <glyph glyph-name="Ebreve" unicode="&#x114;" 
d="M97 0v650h419v-98h-313v-172h265v-98h-265v-184h313v-98h-419zM306 726q-45 0 -79.5 18.5t-55 53t-26.5 82.5h79q3 -33 26 -51t56 -18t56.5 18t25.5 51h79q-5 -48 -26 -82.5t-55 -53t-80 -18.5z" />
    <glyph glyph-name="ebreve" unicode="&#x115;" 
d="M317 -12q-123 0 -193.5 66.5t-70.5 182.5q0 75 30.5 131t85.5 87t127 31q71 0 123 -29t80.5 -81.5t28.5 -123.5q0 -12 -0.5 -24.5t-3.5 -26.5h-365q9 -61 49.5 -92t109.5 -31q78 0 151 47l40 -78q-46 -31 -92 -45t-100 -14zM160 282h265q-7 55 -40.5 84.5t-89.5 29.5
q-54 0 -89 -29.5t-46 -84.5zM296 559q-49 0 -82.5 18.5t-53 57t-27.5 97.5h81q6 -47 26.5 -68t55.5 -21t56 21t26 68h81q-8 -59 -27.5 -97.5t-52.5 -57t-83 -18.5z" />
    <glyph glyph-name="Edotaccent" unicode="&#x116;" 
d="M97 0v650h419v-98h-313v-172h265v-98h-265v-184h313v-98h-419zM306 726q-32 0 -54.5 22.5t-22.5 54.5t22.5 54.5t54.5 22.5t54.5 -22.5t22.5 -54.5t-22.5 -54.5t-54.5 -22.5z" />
    <glyph glyph-name="edotaccent" unicode="&#x117;" 
d="M317 -12q-123 0 -193.5 66.5t-70.5 182.5q0 75 30.5 131t85.5 87t127 31q71 0 123 -29t80.5 -81.5t28.5 -123.5q0 -12 -0.5 -24.5t-3.5 -26.5h-365q9 -61 49.5 -92t109.5 -31q78 0 151 47l40 -78q-46 -31 -92 -45t-100 -14zM160 282h265q-7 55 -40.5 84.5t-89.5 29.5
q-54 0 -89 -29.5t-46 -84.5zM296 569q-32 0 -54.5 22t-22.5 54q0 33 22.5 55t54.5 22t54.5 -22t22.5 -55q0 -32 -22.5 -54t-54.5 -22z" />
    <glyph glyph-name="Eogonek" unicode="&#x118;" 
d="M97 0v650h419v-98h-313v-172h265v-98h-265v-184h313v-98h-419zM438 -222q-50 0 -78 24.5t-28 68.5q0 37 23 72.5t71 76.5l46 -20q-37 -37 -49.5 -62t-12.5 -44q0 -16 11 -26t29 -10q12 0 24 3.5t24 12.5l18 -74q-14 -10 -35 -16t-43 -6z" />
    <glyph glyph-name="eogonek" unicode="&#x119;" 
d="M411 -222q-50 0 -77.5 24.5t-27.5 68.5q0 37 21.5 74.5t70.5 78.5l79 4q-53 -37 -73.5 -70t-20.5 -61q0 -19 11 -29t30 -10q12 0 23.5 3.5t23.5 12.5l19 -74q-15 -10 -35.5 -16t-43.5 -6zM317 -12q-123 0 -193.5 66.5t-70.5 182.5q0 75 30.5 131t85.5 87t127 31
q71 0 123 -29t80.5 -81.5t28.5 -123.5q0 -12 -0.5 -24.5t-3.5 -26.5h-365q9 -61 49.5 -92t109.5 -31q78 0 151 47l40 -78q-46 -31 -92 -45t-100 -14zM160 282h265q-7 55 -40.5 84.5t-89.5 29.5q-54 0 -89 -29.5t-46 -84.5z" />
    <glyph glyph-name="Ecaron" unicode="&#x11a;" 
d="M97 0v650h419v-98h-313v-172h265v-98h-265v-184h313v-98h-419zM289 713l-157 131l40 52l134 -88l134 88l40 -52l-157 -131h-34z" />
    <glyph glyph-name="ecaron" unicode="&#x11b;" 
d="M317 -12q-123 0 -193.5 66.5t-70.5 182.5q0 75 30.5 131t85.5 87t127 31q71 0 123 -29t80.5 -81.5t28.5 -123.5q0 -12 -0.5 -24.5t-3.5 -26.5h-365q9 -61 49.5 -92t109.5 -31q78 0 151 47l40 -78q-46 -31 -92 -45t-100 -14zM160 282h265q-7 55 -40.5 84.5t-89.5 29.5
q-54 0 -89 -29.5t-46 -84.5zM279 546l-155 168l50 43l121 -106l121 106l50 -43l-155 -168h-32z" />
    <glyph glyph-name="Gcircumflex" unicode="&#x11c;" 
d="M295 -12q-76 0 -131.5 40.5t-85 116t-29.5 180.5q0 164 69 250.5t200 86.5q55 0 100 -16.5t86 -52.5l-55 -83q-30 27 -62 39.5t-68 12.5q-162 0 -162 -237t158 -237q57 0 100 35v152h-115v98h221v-373h-70l-10 46q-32 -30 -67.5 -44t-78.5 -14zM156 713l-40 53l157 130
h34l157 -130l-40 -53l-134 89z" />
    <glyph glyph-name="gcircumflex" unicode="&#x11d;" 
d="M273 -222q-53 0 -102 12t-96 39l35 87q35 -21 75.5 -31.5t81.5 -10.5q67 0 99 28.5t32 85.5v54q-33 -22 -68.5 -33t-71.5 -11q-62 0 -108.5 31t-71.5 85.5t-25 127.5t25 127.5t71.5 85.5t108.5 31q82 0 158 -55l10 43h76v-494q0 -98 -58 -150t-171 -52zM283 94
q29 0 58.5 9t56.5 26v226q-27 18 -56.5 26.5t-58.5 8.5q-61 0 -93 -39t-32 -109t32 -109t93 -39zM157 546l-50 43l155 168h32l155 -168l-50 -43l-121 106z" />
    <glyph glyph-name="Gbreve" unicode="&#x11e;" 
d="M295 -12q-76 0 -131.5 40.5t-85 116t-29.5 180.5q0 164 69 250.5t200 86.5q55 0 100 -16.5t86 -52.5l-55 -83q-30 27 -62 39.5t-68 12.5q-162 0 -162 -237t158 -237q57 0 100 35v152h-115v98h221v-373h-70l-10 46q-32 -30 -67.5 -44t-78.5 -14zM290 726q-45 0 -79.5 18.5
t-55 53t-26.5 82.5h79q3 -33 26 -51t56 -18t56.5 18t25.5 51h79q-5 -48 -26 -82.5t-55 -53t-80 -18.5z" />
    <glyph glyph-name="gbreve" unicode="&#x11f;" 
d="M273 -222q-53 0 -102 12t-96 39l35 87q35 -21 75.5 -31.5t81.5 -10.5q67 0 99 28.5t32 85.5v54q-33 -22 -68.5 -33t-71.5 -11q-62 0 -108.5 31t-71.5 85.5t-25 127.5t25 127.5t71.5 85.5t108.5 31q82 0 158 -55l10 43h76v-494q0 -98 -58 -150t-171 -52zM283 94
q29 0 58.5 9t56.5 26v226q-27 18 -56.5 26.5t-58.5 8.5q-61 0 -93 -39t-32 -109t32 -109t93 -39zM279 559q-49 0 -82.5 18.5t-53 57t-27.5 97.5h81q6 -47 26.5 -68t55.5 -21t56 21t26 68h81q-8 -59 -27.5 -97.5t-52.5 -57t-83 -18.5z" />
    <glyph glyph-name="Gdotaccent" unicode="&#x120;" 
d="M295 -12q-76 0 -131.5 40.5t-85 116t-29.5 180.5q0 164 69 250.5t200 86.5q55 0 100 -16.5t86 -52.5l-55 -83q-30 27 -62 39.5t-68 12.5q-162 0 -162 -237t158 -237q57 0 100 35v152h-115v98h221v-373h-70l-10 46q-32 -30 -67.5 -44t-78.5 -14zM290 726q-32 0 -54.5 22.5
t-22.5 54.5t22.5 54.5t54.5 22.5t54.5 -22.5t22.5 -54.5t-22.5 -54.5t-54.5 -22.5z" />
    <glyph glyph-name="gdotaccent" unicode="&#x121;" 
d="M273 -222q-53 0 -102 12t-96 39l35 87q35 -21 75.5 -31.5t81.5 -10.5q67 0 99 28.5t32 85.5v54q-33 -22 -68.5 -33t-71.5 -11q-62 0 -108.5 31t-71.5 85.5t-25 127.5t25 127.5t71.5 85.5t108.5 31q82 0 158 -55l10 43h76v-494q0 -98 -58 -150t-171 -52zM283 94
q29 0 58.5 9t56.5 26v226q-27 18 -56.5 26.5t-58.5 8.5q-61 0 -93 -39t-32 -109t32 -109t93 -39zM279 569q-32 0 -54.5 22t-22.5 54q0 33 22.5 55t54.5 22t54.5 -22t22.5 -55q0 -32 -22.5 -54t-54.5 -22z" />
    <glyph glyph-name="uni0122" unicode="&#x122;" 
d="M295 -12q-76 0 -131.5 40.5t-85 116t-29.5 180.5q0 164 69 250.5t200 86.5q55 0 100 -16.5t86 -52.5l-55 -83q-30 27 -62 39.5t-68 12.5q-162 0 -162 -237t158 -237q57 0 100 35v152h-115v98h221v-373h-70l-10 46q-32 -30 -67.5 -44t-78.5 -14zM231 -294l-2 46
q34 2 51.5 13t22.5 33q-5 -2 -12 -2q-28 0 -45 16.5t-17 40.5q0 27 20.5 44.5t50.5 17.5q32 0 53 -20.5t21 -58.5q0 -34 -16.5 -63t-48 -47.5t-78.5 -19.5z" />
    <glyph glyph-name="uni0123" unicode="&#x123;" 
d="M273 -222q-53 0 -102 12t-96 39l35 87q35 -21 75.5 -31.5t81.5 -10.5q67 0 99 28.5t32 85.5v54q-33 -22 -68.5 -33t-71.5 -11q-62 0 -108.5 31t-71.5 85.5t-25 127.5t25 127.5t71.5 85.5t108.5 31q82 0 158 -55l10 43h76v-494q0 -98 -58 -150t-171 -52zM283 94
q29 0 58.5 9t56.5 26v226q-27 18 -56.5 26.5t-58.5 8.5q-61 0 -93 -39t-32 -109t32 -109t93 -39zM287 660q29 0 45.5 -16.5t16.5 -41.5q0 -26 -20 -43.5t-51 -17.5t-52.5 20.5t-21.5 58.5q0 34 16.5 63t48 47.5t78.5 19.5l2 -46q-34 -1 -51.5 -12.5t-22.5 -33.5q5 2 12 2z
" />
    <glyph glyph-name="Hcircumflex" unicode="&#x124;" 
d="M68 0v650h106v-270h232v270h106v-650h-106v282h-232v-282h-106zM156 713l-40 53l157 130h34l157 -130l-40 -53l-134 89z" />
    <glyph glyph-name="hcircumflex" unicode="&#x125;" 
d="M83 0v710h104v-268q67 44 145 44q83 0 127.5 -46.5t44.5 -134.5v-305h-104v289q0 55 -21.5 78t-71.5 23q-32 0 -61.5 -8.5t-58.5 -26.5v-355h-104zM0 743l-40 53l157 130h34l157 -130l-40 -53l-134 89z" />
    <glyph glyph-name="Hbar" unicode="&#x126;" 
d="M68 0v457h-43v86h43v107h106v-107h232v107h106v-107h43v-86h-43v-457h-106v252h-232v-252h-106zM174 350h232v107h-232v-107z" />
    <glyph glyph-name="hbar" unicode="&#x127;" 
d="M83 0v534h-93v78h93v98h104v-98h147v-78h-147v-132q67 44 145 44q83 0 127.5 -46.5t44.5 -134.5v-265h-104v249q0 55 -21.5 78t-71.5 23q-32 0 -61.5 -8.5t-58.5 -26.5v-315h-104z" />
    <glyph glyph-name="Itilde" unicode="&#x128;" 
d="M76 0v98h161v454h-161v98h428v-98h-161v-454h161v-98h-428zM183 727l-68 12q13 65 41.5 98t72.5 33q31 0 50.5 -10.5t34.5 -20.5q10 -7 19 -12.5t19 -5.5q16 0 27.5 13.5t18.5 45.5l67 -12q-12 -64 -40.5 -97.5t-73.5 -33.5q-30 0 -50 10.5t-34 20.5q-10 7 -19 12.5
t-20 5.5q-16 0 -27.5 -13.5t-17.5 -45.5z" />
    <glyph glyph-name="itilde" unicode="&#x129;" 
d="M238 0v380h-189v94h293v-380h189v-94h-293zM172 561l-67 12q12 70 40.5 107.5t73.5 37.5q31 0 50 -13.5t34 -26.5q11 -9 20 -16t19 -7q17 0 28 18t18 56l67 -12q-12 -70 -40.5 -107.5t-73.5 -37.5q-31 0 -50 13.5t-34 26.5q-11 9 -20 16t-19 7q-17 0 -28 -17.5t-18 -56.5
z" />
    <glyph glyph-name="Imacron" unicode="&#x12a;" 
d="M76 0v98h161v454h-161v98h428v-98h-161v-454h161v-98h-428zM148 762v82h284v-82h-284z" />
    <glyph glyph-name="imacron" unicode="&#x12b;" 
d="M238 0v380h-189v94h293v-380h189v-94h-293zM138 604v83h285v-83h-285z" />
    <glyph glyph-name="Ibreve" unicode="&#x12c;" 
d="M76 0v98h161v454h-161v98h428v-98h-161v-454h161v-98h-428zM290 726q-45 0 -79.5 18.5t-55 53t-26.5 82.5h79q3 -33 26 -51t56 -18t56.5 18t25.5 51h79q-5 -48 -26 -82.5t-55 -53t-80 -18.5z" />
    <glyph glyph-name="ibreve" unicode="&#x12d;" 
d="M238 0v380h-189v94h293v-380h189v-94h-293zM280 559q-49 0 -82.5 18.5t-53 57t-27.5 97.5h81q6 -47 26.5 -68t55.5 -21t56 21t26 68h81q-8 -59 -27.5 -97.5t-52.5 -57t-83 -18.5z" />
    <glyph glyph-name="Iogonek" unicode="&#x12e;" 
d="M316 -222q-48 0 -75 26.5t-27 73.5q0 37 14 69.5t45 71.5l44 -19q-16 -27 -22 -49.5t-6 -45.5q0 -25 11 -36t29 -11q12 0 23 3.5t22 12.5l19 -75q-15 -10 -35 -15.5t-42 -5.5zM76 0v98h161v454h-161v98h428v-98h-161v-454h161v-98h-428z" />
    <glyph glyph-name="iogonek" unicode="&#x12f;" 
d="M329 -222q-47 0 -74.5 26.5t-27.5 73.5q0 37 14 69.5t46 71.5l43 -19q-16 -27 -22 -49.5t-6 -45.5q0 -25 11 -36t29 -11q12 0 23 3.5t22 12.5l19 -75q-15 -10 -35 -15.5t-42 -5.5zM238 0v380h-189v94h293v-380h189v-94h-293zM280 569q-32 0 -54.5 22t-22.5 54
q0 33 22.5 55t54.5 22t54.5 -22t22.5 -55q0 -32 -22.5 -54t-54.5 -22z" />
    <glyph glyph-name="Idotaccent" unicode="&#x130;" 
d="M76 0v98h161v454h-161v98h428v-98h-161v-454h161v-98h-428zM290 726q-32 0 -54.5 22.5t-22.5 54.5t22.5 54.5t54.5 22.5t54.5 -22.5t22.5 -54.5t-22.5 -54.5t-54.5 -22.5z" />
    <glyph glyph-name="dotlessi" unicode="&#x131;" 
d="M238 0v380h-189v94h293v-380h189v-94h-293z" />
    <glyph glyph-name="Jcircumflex" unicode="&#x134;" 
d="M265 -12q-63 0 -114 20.5t-97 66.5l60 79q35 -34 70 -50t76 -16q59 0 89.5 30.5t30.5 87.5v346h-218v98h324v-451q0 -101 -57.5 -156t-163.5 -55zM190 713l-40 53l157 130h34l157 -130l-40 -53l-134 89z" />
    <glyph glyph-name="jcircumflex" unicode="&#x135;" 
d="M222 -222q-50 0 -95.5 12.5t-84.5 37.5l34 87q31 -20 64 -30.5t67 -10.5q52 0 79 26.5t27 76.5v403h-189v94h293v-513q0 -87 -51 -135t-144 -48zM233 546l-50 43l155 168h32l155 -168l-50 -43l-121 106z" />
    <glyph glyph-name="uni0136" unicode="&#x136;" 
d="M69 0v650h106v-305l247 305h132l-214 -258l219 -392h-122l-170 303l-92 -110v-193h-106zM235 -294l-2 46q34 2 51.5 13t22.5 33q-5 -2 -12 -2q-28 0 -45 16.5t-17 40.5q0 27 20.5 44.5t50.5 17.5q32 0 53 -20.5t21 -58.5q0 -34 -16.5 -63t-48 -47.5t-78.5 -19.5z" />
    <glyph glyph-name="uni0137" unicode="&#x137;" 
d="M86 0v710h104v-449l221 213h136l-201 -188l206 -286h-128l-154 214l-80 -75v-139h-104zM237 -294l-2 46q34 2 51.5 13t22.5 33q-5 -2 -12 -2q-28 0 -45 16.5t-17 40.5q0 27 20.5 44.5t50.5 17.5q32 0 53 -20.5t21 -58.5q0 -34 -16.5 -63t-48 -47.5t-78.5 -19.5z" />
    <glyph glyph-name="kgreenlandic" unicode="&#x138;" 
d="M86 0v474h104v-213l221 213h136l-201 -188l206 -286h-128l-154 214l-80 -75v-139h-104z" />
    <glyph glyph-name="Lacute" unicode="&#x139;" 
d="M102 0v650h106v-552h314v-98h-420zM111 713l-40 53l158 131l60 -77z" />
    <glyph glyph-name="lacute" unicode="&#x13a;" 
d="M396 -12q-182 0 -182 181v446h-189v95h293v-525q0 -55 21.5 -78t72.5 -23q60 0 115 33l27 -89q-70 -40 -158 -40zM222 743l-40 53l158 131l60 -77z" />
    <glyph glyph-name="uni013B" unicode="&#x13b;" 
d="M102 0v650h106v-552h314v-98h-420zM243 -294l-2 46q34 2 51.5 13t22.5 33q-5 -2 -12 -2q-28 0 -45 16.5t-17 40.5q0 27 20.5 44.5t50.5 17.5q32 0 53 -20.5t21 -58.5q0 -34 -16.5 -63t-48 -47.5t-78.5 -19.5z" />
    <glyph glyph-name="uni013C" unicode="&#x13c;" 
d="M396 -12q-182 0 -182 181v446h-189v95h293v-525q0 -55 21.5 -78t72.5 -23q60 0 115 33l27 -89q-70 -40 -158 -40zM231 -294l-2 46q34 2 51.5 13t22.5 33q-5 -2 -12 -2q-28 0 -45 16.5t-17 40.5q0 27 20.5 44.5t50.5 17.5q32 0 53 -20.5t21 -58.5q0 -34 -16.5 -63
t-48 -47.5t-78.5 -19.5z" />
    <glyph glyph-name="Lcaron" unicode="&#x13d;" 
d="M102 0v650h106v-552h314v-98h-420zM308 451l-49 34q25 31 35 58.5t10 56.5q0 12 -1.5 24.5t-4.5 25.5l107 12q0 -49 -9 -84.5t-30 -65t-58 -61.5z" />
    <glyph glyph-name="lcaron" unicode="&#x13e;" 
d="M396 -12q-182 0 -182 181v446h-189v95h293v-525q0 -55 21.5 -78t72.5 -23q60 0 115 33l27 -89q-70 -40 -158 -40zM411 511l-49 34q25 31 35 58.5t10 56.5q0 12 -1.5 24.5t-4.5 25.5l107 12q0 -49 -9 -84.5t-30 -65t-58 -61.5z" />
    <glyph glyph-name="Ldot" unicode="&#x13f;" 
d="M102 0v650h106v-552h314v-98h-420zM440 290q-35 0 -59.5 24.5t-24.5 59.5q0 36 24.5 60t59.5 24t59.5 -24t24.5 -60q0 -35 -24.5 -59.5t-59.5 -24.5z" />
    <glyph glyph-name="ldot" unicode="&#x140;" 
d="M396 -12q-182 0 -182 181v446h-189v95h293v-525q0 -55 21.5 -78t72.5 -23q60 0 115 33l27 -89q-70 -40 -158 -40zM556 266q-35 0 -59.5 24.5t-24.5 59.5q0 36 24.5 60t59.5 24t59.5 -24t24.5 -60q0 -35 -24.5 -59.5t-59.5 -24.5z" />
    <glyph glyph-name="Lslash" unicode="&#x141;" 
d="M83 181l-45 80l359 205l45 -80zM120 0v650h106v-552h313v-98h-419z" />
    <glyph glyph-name="lslash" unicode="&#x142;" 
d="M83 171l-51 77l419 291l52 -76zM396 -12q-182 0 -182 181v446h-189v95h293v-525q0 -55 21.5 -78t72.5 -23q60 0 115 33l27 -89q-70 -40 -158 -40z" />
    <glyph glyph-name="Nacute" unicode="&#x143;" 
d="M68 0v650h122l226 -453v453h96v-650h-102l-246 495v-495h-96zM246 713l-40 53l158 131l60 -77z" />
    <glyph glyph-name="nacute" unicode="&#x144;" 
d="M83 0v474h77l10 -44q39 29 78.5 42.5t83.5 13.5q83 0 127.5 -46.5t44.5 -134.5v-305h-104v289q0 55 -21.5 78t-71.5 23q-32 0 -61.5 -8.5t-58.5 -26.5v-355h-104zM266 546l-50 43l145 168l73 -64z" />
    <glyph glyph-name="uni0145" unicode="&#x145;" 
d="M68 0v650h122l226 -453v453h96v-650h-102l-246 495v-495h-96zM221 -294l-2 46q34 2 51.5 13t22.5 33q-5 -2 -12 -2q-28 0 -45 16.5t-17 40.5q0 27 20.5 44.5t50.5 17.5q32 0 53 -20.5t21 -58.5q0 -34 -16.5 -63t-48 -47.5t-78.5 -19.5z" />
    <glyph glyph-name="uni0146" unicode="&#x146;" 
d="M83 0v474h77l10 -44q39 29 78.5 42.5t83.5 13.5q83 0 127.5 -46.5t44.5 -134.5v-305h-104v289q0 55 -21.5 78t-71.5 23q-32 0 -61.5 -8.5t-58.5 -26.5v-355h-104zM231 -294l-2 46q34 2 51.5 13t22.5 33q-5 -2 -12 -2q-28 0 -45 16.5t-17 40.5q0 27 20.5 44.5t50.5 17.5
q32 0 53 -20.5t21 -58.5q0 -34 -16.5 -63t-48 -47.5t-78.5 -19.5z" />
    <glyph glyph-name="Ncaron" unicode="&#x147;" 
d="M68 0v650h122l226 -453v453h96v-650h-102l-246 495v-495h-96zM273 713l-157 131l40 52l134 -88l134 88l40 -52l-157 -131h-34z" />
    <glyph glyph-name="ncaron" unicode="&#x148;" 
d="M83 0v474h77l10 -44q39 29 78.5 42.5t83.5 13.5q83 0 127.5 -46.5t44.5 -134.5v-305h-104v289q0 55 -21.5 78t-71.5 23q-32 0 -61.5 -8.5t-58.5 -26.5v-355h-104zM283 546l-155 168l50 43l121 -106l121 106l50 -43l-155 -168h-32z" />
    <glyph glyph-name="napostrophe" unicode="&#x149;" 
d="M83 0v474h77l10 -44q39 29 78.5 42.5t83.5 13.5q83 0 127.5 -46.5t44.5 -134.5v-305h-104v289q0 55 -21.5 78t-71.5 23q-32 0 -61.5 -8.5t-58.5 -26.5v-355h-104zM-4 513l-2 47q34 2 51.5 13t22.5 32q-5 -2 -12 -2q-28 0 -45 16.5t-17 41.5q0 27 20.5 44.5t50.5 17.5
q32 0 53 -21t21 -58q0 -34 -16.5 -63t-48 -47.5t-78.5 -20.5z" />
    <glyph glyph-name="Eng" unicode="&#x14a;" 
d="M329 -222q-62 0 -112 30l33 90q35 -22 72 -22q45 0 64.5 27.5t19.5 87.5v18l-242 486v-495h-96v650h122l226 -453v453h96v-666q0 -100 -47 -153t-136 -53z" />
    <glyph glyph-name="eng" unicode="&#x14b;" 
d="M325 -222q-56 0 -101 25l32 88q28 -17 63 -17q43 0 62 27t19 85v303q0 55 -21.5 78t-71.5 23q-32 0 -61.5 -8.5t-58.5 -26.5v-355h-104v474h77l10 -44q39 29 78.5 42.5t83.5 13.5q83 0 127.5 -46.5t44.5 -134.5v-326q0 -97 -46 -149t-133 -52z" />
    <glyph glyph-name="Omacron" unicode="&#x14c;" 
d="M290 -12q-123 0 -186 85.5t-63 251.5q0 167 63 252t186 85t186 -85t63 -252q0 -166 -63 -251.5t-186 -85.5zM290 88q141 0 141 237t-141 237t-141 -237t141 -237zM148 762v82h284v-82h-284z" />
    <glyph glyph-name="omacron" unicode="&#x14d;" 
d="M290 -12q-72 0 -126.5 31.5t-85 87.5t-30.5 130q0 75 30.5 130.5t85 87t126.5 31.5t126.5 -31.5t85 -87t30.5 -130.5q0 -74 -30.5 -130t-85 -87.5t-126.5 -31.5zM290 84q64 0 100 40.5t36 112.5t-36 112.5t-100 40.5q-63 0 -99.5 -40.5t-36.5 -112.5t36.5 -112.5
t99.5 -40.5zM148 604v83h285v-83h-285z" />
    <glyph glyph-name="Obreve" unicode="&#x14e;" 
d="M290 -12q-123 0 -186 85.5t-63 251.5q0 167 63 252t186 85t186 -85t63 -252q0 -166 -63 -251.5t-186 -85.5zM290 88q141 0 141 237t-141 237t-141 -237t141 -237zM290 726q-45 0 -79.5 18.5t-55 53t-26.5 82.5h79q3 -33 26 -51t56 -18t56.5 18t25.5 51h79
q-5 -48 -26 -82.5t-55 -53t-80 -18.5z" />
    <glyph glyph-name="obreve" unicode="&#x14f;" 
d="M290 -12q-72 0 -126.5 31.5t-85 87.5t-30.5 130q0 75 30.5 130.5t85 87t126.5 31.5t126.5 -31.5t85 -87t30.5 -130.5q0 -74 -30.5 -130t-85 -87.5t-126.5 -31.5zM290 84q64 0 100 40.5t36 112.5t-36 112.5t-100 40.5q-63 0 -99.5 -40.5t-36.5 -112.5t36.5 -112.5
t99.5 -40.5zM290 559q-49 0 -82.5 18.5t-53 57t-27.5 97.5h81q6 -47 26.5 -68t55.5 -21t56 21t26 68h81q-8 -59 -27.5 -97.5t-52.5 -57t-83 -18.5z" />
    <glyph glyph-name="Ohungarumlaut" unicode="&#x150;" 
d="M290 -12q-123 0 -186 85.5t-63 251.5q0 167 63 252t186 85t186 -85t63 -252q0 -166 -63 -251.5t-186 -85.5zM290 88q141 0 141 237t-141 237t-141 -237t141 -237zM368 714l-41 51l134 130l61 -75zM149 714l-41 51l134 130l61 -75z" />
    <glyph glyph-name="ohungarumlaut" unicode="&#x151;" 
d="M290 -12q-72 0 -126.5 31.5t-85 87.5t-30.5 130q0 75 30.5 130.5t85 87t126.5 31.5t126.5 -31.5t85 -87t30.5 -130.5q0 -74 -30.5 -130t-85 -87.5t-126.5 -31.5zM290 84q64 0 100 40.5t36 112.5t-36 112.5t-100 40.5q-63 0 -99.5 -40.5t-36.5 -112.5t36.5 -112.5
t99.5 -40.5zM357 546l-49 43l144 168l73 -64zM155 546l-50 43l145 168l73 -64z" />
    <glyph glyph-name="OE" unicode="&#x152;" 
d="M254 0q-112 0 -171 82.5t-59 242.5t60 242.5t174 82.5h304v-91h-187v-183h158v-90h-158v-195h187v-91h-308zM263 91h15v468h-15q-41 0 -73 -20.5t-49.5 -71.5t-17.5 -142t17.5 -142t49.5 -71.5t73 -20.5z" />
    <glyph glyph-name="oe" unicode="&#x153;" 
d="M167 -12q-157 0 -157 249t157 249q84 0 119 -74h2q39 74 124 74q79 0 119 -60t40 -174v-22t-2 -25h-234q4 -73 27.5 -104.5t74.5 -31.5q27 0 53 10t51 28l35 -72q-30 -23 -65 -35t-77 -12q-102 0 -144 77h-2q-36 -77 -121 -77zM173 69q37 0 52 39.5t15 128.5
q0 91 -15 129t-52 38q-38 0 -53 -38t-15 -129q0 -89 15 -128.5t53 -39.5zM335 279h147q-2 66 -20 95.5t-52 29.5q-35 0 -53 -30t-22 -95z" />
    <glyph glyph-name="Racute" unicode="&#x154;" 
d="M76 0v650h234q102 0 154.5 -48.5t52.5 -142.5q0 -149 -132 -182l163 -277h-124l-155 269h-86v-269h-107zM183 366h118q58 0 83 22t25 71q0 50 -25 71.5t-83 21.5h-118v-186zM229 713l-40 53l158 131l60 -77z" />
    <glyph glyph-name="racute" unicode="&#x155;" 
d="M114 0v474h81l12 -71q38 43 83 63t101 20q71 0 120 -35l-39 -91q-21 16 -43 22.5t-48 6.5q-93 0 -163 -89v-300h-104zM256 546l-50 43l145 168l73 -64z" />
    <glyph glyph-name="uni0156" unicode="&#x156;" 
d="M76 0v650h234q102 0 154.5 -48.5t52.5 -142.5q0 -149 -132 -182l163 -277h-124l-155 269h-86v-269h-107zM183 366h118q58 0 83 22t25 71q0 50 -25 71.5t-83 21.5h-118v-186zM232 -294l-2 46q34 2 51.5 13t22.5 33q-5 -2 -12 -2q-28 0 -45 16.5t-17 40.5q0 27 20.5 44.5
t50.5 17.5q32 0 53 -20.5t21 -58.5q0 -34 -16.5 -63t-48 -47.5t-78.5 -19.5z" />
    <glyph glyph-name="uni0157" unicode="&#x157;" 
d="M114 0v474h81l12 -71q38 43 83 63t101 20q71 0 120 -35l-39 -91q-21 16 -43 22.5t-48 6.5q-93 0 -163 -89v-300h-104zM97 -294l-2 46q34 2 51.5 13t22.5 33q-5 -2 -12 -2q-28 0 -45 16.5t-17 40.5q0 27 20.5 44.5t50.5 17.5q32 0 53 -20.5t21 -58.5q0 -34 -16.5 -63
t-48 -47.5t-78.5 -19.5z" />
    <glyph glyph-name="Rcaron" unicode="&#x158;" 
d="M76 0v650h234q102 0 154.5 -48.5t52.5 -142.5q0 -149 -132 -182l163 -277h-124l-155 269h-86v-269h-107zM183 366h118q58 0 83 22t25 71q0 50 -25 71.5t-83 21.5h-118v-186zM255 713l-157 131l40 52l134 -88l134 88l40 -52l-157 -131h-34z" />
    <glyph glyph-name="rcaron" unicode="&#x159;" 
d="M114 0v474h81l12 -71q38 43 83 63t101 20q71 0 120 -35l-39 -91q-21 16 -43 22.5t-48 6.5q-93 0 -163 -89v-300h-104zM273 546l-155 168l50 43l121 -106l121 106l50 -43l-155 -168h-32z" />
    <glyph glyph-name="Sacute" unicode="&#x15a;" 
d="M283 -12q-69 0 -128 20t-108 62l55 85q39 -34 85 -50.5t99 -16.5q63 0 95.5 24.5t32.5 70.5q0 37 -18.5 55.5t-61.5 29.5l-105 25q-80 19 -118 62t-38 114q0 90 60 141.5t168 51.5q117 0 208 -66l-52 -87q-66 53 -157 53q-59 0 -89.5 -22.5t-30.5 -65.5q0 -32 18.5 -50.5
t61.5 -28.5l105 -26q80 -19 118 -61.5t38 -119.5q0 -93 -62 -146.5t-176 -53.5zM241 713l-40 53l158 131l60 -77z" />
    <glyph glyph-name="sacute" unicode="&#x15b;" 
d="M287 -12q-131 0 -226 59l38 82q41 -25 89.5 -38t101.5 -13q113 0 113 58q0 23 -13.5 33.5t-46.5 13.5l-112 14q-75 10 -110.5 42t-35.5 93q0 74 53.5 114t152.5 40q110 0 203 -48l-34 -84q-75 42 -171 42q-100 0 -100 -56q0 -21 13.5 -31.5t46.5 -14.5l112 -14
q75 -9 110.5 -41t35.5 -94q0 -76 -56.5 -116.5t-163.5 -40.5zM251 546l-50 43l145 168l73 -64z" />
    <glyph glyph-name="Scircumflex" unicode="&#x15c;" 
d="M283 -12q-69 0 -128 20t-108 62l55 85q39 -34 85 -50.5t99 -16.5q63 0 95.5 24.5t32.5 70.5q0 37 -18.5 55.5t-61.5 29.5l-105 25q-80 19 -118 62t-38 114q0 90 60 141.5t168 51.5q117 0 208 -66l-52 -87q-66 53 -157 53q-59 0 -89.5 -22.5t-30.5 -65.5q0 -32 18.5 -50.5
t61.5 -28.5l105 -26q80 -19 118 -61.5t38 -119.5q0 -93 -62 -146.5t-176 -53.5zM151 713l-40 53l157 130h34l157 -130l-40 -53l-134 89z" />
    <glyph glyph-name="scircumflex" unicode="&#x15d;" 
d="M287 -12q-131 0 -226 59l38 82q41 -25 89.5 -38t101.5 -13q113 0 113 58q0 23 -13.5 33.5t-46.5 13.5l-112 14q-75 10 -110.5 42t-35.5 93q0 74 53.5 114t152.5 40q110 0 203 -48l-34 -84q-75 42 -171 42q-100 0 -100 -56q0 -21 13.5 -31.5t46.5 -14.5l112 -14
q75 -9 110.5 -41t35.5 -94q0 -76 -56.5 -116.5t-163.5 -40.5zM163 546l-50 43l155 168h32l155 -168l-50 -43l-121 106z" />
    <glyph glyph-name="Scedilla" unicode="&#x15e;" 
d="M283 -12q-69 0 -128 20t-108 62l55 85q39 -34 85 -50.5t99 -16.5q63 0 95.5 24.5t32.5 70.5q0 37 -18.5 55.5t-61.5 29.5l-105 25q-80 19 -118 62t-38 114q0 90 60 141.5t168 51.5q117 0 208 -66l-52 -87q-66 53 -157 53q-59 0 -89.5 -22.5t-30.5 -65.5q0 -32 18.5 -50.5
t61.5 -28.5l105 -26q80 -19 118 -61.5t38 -119.5q0 -93 -62 -146.5t-176 -53.5zM278 -222q-33 0 -60.5 6.5t-52.5 18.5l17 61q26 -13 49.5 -18t47.5 -5q26 0 37 8t11 22q0 12 -10 18.5t-33 6.5h-50l39 104h49l-21 -55h3q101 0 101 -77q0 -45 -32.5 -67.5t-94.5 -22.5z" />
    <glyph glyph-name="scedilla" unicode="&#x15f;" 
d="M287 -12q-131 0 -226 59l38 82q41 -25 89.5 -38t101.5 -13q113 0 113 58q0 23 -13.5 33.5t-46.5 13.5l-112 14q-75 10 -110.5 42t-35.5 93q0 74 53.5 114t152.5 40q110 0 203 -48l-34 -84q-75 42 -171 42q-100 0 -100 -56q0 -21 13.5 -31.5t46.5 -14.5l112 -14
q75 -9 110.5 -41t35.5 -94q0 -76 -56.5 -116.5t-163.5 -40.5zM278 -222q-33 0 -60.5 6.5t-52.5 18.5l17 61q26 -13 49.5 -18t47.5 -5q26 0 37 8t11 22q0 12 -10 18.5t-33 6.5h-50l39 104h49l-21 -55h3q101 0 101 -77q0 -45 -32.5 -67.5t-94.5 -22.5z" />
    <glyph glyph-name="Scaron" unicode="&#x160;" 
d="M283 -12q-69 0 -128 20t-108 62l55 85q39 -34 85 -50.5t99 -16.5q63 0 95.5 24.5t32.5 70.5q0 37 -18.5 55.5t-61.5 29.5l-105 25q-80 19 -118 62t-38 114q0 90 60 141.5t168 51.5q117 0 208 -66l-52 -87q-66 53 -157 53q-59 0 -89.5 -22.5t-30.5 -65.5q0 -32 18.5 -50.5
t61.5 -28.5l105 -26q80 -19 118 -61.5t38 -119.5q0 -93 -62 -146.5t-176 -53.5zM268 713l-157 131l40 52l134 -88l134 88l40 -52l-157 -131h-34z" />
    <glyph glyph-name="scaron" unicode="&#x161;" 
d="M287 -12q-131 0 -226 59l38 82q41 -25 89.5 -38t101.5 -13q113 0 113 58q0 23 -13.5 33.5t-46.5 13.5l-112 14q-75 10 -110.5 42t-35.5 93q0 74 53.5 114t152.5 40q110 0 203 -48l-34 -84q-75 42 -171 42q-100 0 -100 -56q0 -21 13.5 -31.5t46.5 -14.5l112 -14
q75 -9 110.5 -41t35.5 -94q0 -76 -56.5 -116.5t-163.5 -40.5zM268 546l-155 168l50 43l121 -106l121 106l50 -43l-155 -168h-32z" />
    <glyph glyph-name="uni0162" unicode="&#x162;" 
d="M237 0v551h-205v99h516v-99h-205v-551h-106zM278 -222q-33 0 -60.5 6.5t-52.5 18.5l17 61q26 -13 49.5 -18t47.5 -5q26 0 37 8t11 22q0 12 -10 18.5t-33 6.5h-50l39 104h49l-21 -55h3q101 0 101 -77q0 -45 -32.5 -67.5t-94.5 -22.5z" />
    <glyph glyph-name="uni0163" unicode="&#x163;" 
d="M374 -12q-182 0 -182 181v211h-143v94h143v140l104 48v-188h186v-94h-186v-195q0 -55 21.5 -78t72.5 -23q60 0 115 33l27 -89q-70 -40 -158 -40zM312 -222q-33 0 -60.5 6.5t-52.5 18.5l17 61q26 -13 49.5 -18t47.5 -5q26 0 37 8t11 22q0 12 -10 18.5t-33 6.5h-50l39 104
h49l-21 -55h3q101 0 101 -77q0 -45 -32.5 -67.5t-94.5 -22.5z" />
    <glyph glyph-name="Tcaron" unicode="&#x164;" 
d="M237 0v551h-205v99h516v-99h-205v-551h-106zM273 713l-157 131l40 52l134 -88l134 88l40 -52l-157 -131h-34z" />
    <glyph glyph-name="tcaron" unicode="&#x165;" 
d="M374 -12q-182 0 -182 181v211h-143v94h143v140l104 48v-188h186v-94h-186v-195q0 -55 21.5 -78t72.5 -23q60 0 115 33l27 -89q-70 -40 -158 -40zM389 525l-49 34q25 31 35 58.5t10 56.5q0 12 -1.5 24.5t-4.5 25.5l107 12q0 -49 -9 -84.5t-30 -65t-58 -61.5z" />
    <glyph glyph-name="Tbar" unicode="&#x166;" 
d="M237 0v551h-205v99h516v-99h-205v-551h-106zM91 281v86h396v-86h-396z" />
    <glyph glyph-name="tbar" unicode="&#x167;" 
d="M374 -12q-182 0 -182 181v211h-143v94h143v140l104 48v-188h186v-94h-186v-195q0 -55 21.5 -78t72.5 -23q60 0 115 33l27 -89q-70 -40 -158 -40zM65 201v86h396v-86h-396z" />
    <glyph glyph-name="Utilde" unicode="&#x168;" 
d="M290 -12q-108 0 -165.5 56t-57.5 163v443h106v-435q0 -127 118 -127t118 127v435h104v-443q0 -107 -57.5 -163t-165.5 -56zM183 727l-68 12q13 65 41.5 98t72.5 33q31 0 50.5 -10.5t34.5 -20.5q10 -7 19 -12.5t19 -5.5q16 0 27.5 13.5t18.5 45.5l67 -12
q-12 -64 -40.5 -97.5t-73.5 -33.5q-30 0 -50 10.5t-34 20.5q-10 7 -19 12.5t-20 5.5q-16 0 -27.5 -13.5t-17.5 -45.5z" />
    <glyph glyph-name="utilde" unicode="&#x169;" 
d="M248 -12q-83 0 -127.5 46.5t-44.5 134.5v305h104v-289q0 -55 21.5 -78t71.5 -23q32 0 62 9t58 26v355h104v-474h-77l-10 44q-38 -29 -78 -42.5t-84 -13.5zM182 561l-67 12q12 70 40.5 107.5t73.5 37.5q31 0 50 -13.5t34 -26.5q11 -9 20 -16t19 -7q17 0 28 18t18 56
l67 -12q-12 -70 -40.5 -107.5t-73.5 -37.5q-31 0 -50 13.5t-34 26.5q-11 9 -20 16t-19 7q-17 0 -28 -17.5t-18 -56.5z" />
    <glyph glyph-name="Umacron" unicode="&#x16a;" 
d="M290 -12q-108 0 -165.5 56t-57.5 163v443h106v-435q0 -127 118 -127t118 127v435h104v-443q0 -107 -57.5 -163t-165.5 -56zM148 762v82h284v-82h-284z" />
    <glyph glyph-name="umacron" unicode="&#x16b;" 
d="M248 -12q-83 0 -127.5 46.5t-44.5 134.5v305h104v-289q0 -55 21.5 -78t71.5 -23q32 0 62 9t58 26v355h104v-474h-77l-10 44q-38 -29 -78 -42.5t-84 -13.5zM148 604v83h285v-83h-285z" />
    <glyph glyph-name="Ubreve" unicode="&#x16c;" 
d="M290 -12q-108 0 -165.5 56t-57.5 163v443h106v-435q0 -127 118 -127t118 127v435h104v-443q0 -107 -57.5 -163t-165.5 -56zM290 726q-45 0 -79.5 18.5t-55 53t-26.5 82.5h79q3 -33 26 -51t56 -18t56.5 18t25.5 51h79q-5 -48 -26 -82.5t-55 -53t-80 -18.5z" />
    <glyph glyph-name="ubreve" unicode="&#x16d;" 
d="M248 -12q-83 0 -127.5 46.5t-44.5 134.5v305h104v-289q0 -55 21.5 -78t71.5 -23q32 0 62 9t58 26v355h104v-474h-77l-10 44q-38 -29 -78 -42.5t-84 -13.5zM290 559q-49 0 -82.5 18.5t-53 57t-27.5 97.5h81q6 -47 26.5 -68t55.5 -21t56 21t26 68h81q-8 -59 -27.5 -97.5
t-52.5 -57t-83 -18.5z" />
    <glyph glyph-name="Uring" unicode="&#x16e;" 
d="M290 -12q-108 0 -165.5 56t-57.5 163v443h106v-435q0 -127 118 -127t118 127v435h104v-443q0 -107 -57.5 -163t-165.5 -56zM290 689q-49 0 -82 32.5t-33 81.5t33 81.5t82 32.5t82 -32.5t33 -81.5t-33 -81.5t-82 -32.5zM290 755q20 0 32.5 13.5t12.5 34.5q0 22 -12.5 35
t-32.5 13q-19 0 -32 -13t-13 -35q0 -21 13 -34.5t32 -13.5z" />
    <glyph glyph-name="uring" unicode="&#x16f;" 
d="M248 -12q-83 0 -127.5 46.5t-44.5 134.5v305h104v-289q0 -55 21.5 -78t71.5 -23q32 0 62 9t58 26v355h104v-474h-77l-10 44q-38 -29 -78 -42.5t-84 -13.5zM290 531q-49 0 -82 33t-33 81q0 50 33 82.5t82 32.5t82 -32.5t33 -82.5q0 -48 -33 -81t-82 -33zM290 598
q20 0 32.5 13.5t12.5 33.5q0 22 -12.5 35t-32.5 13q-19 0 -32 -13t-13 -35q0 -20 13 -33.5t32 -13.5z" />
    <glyph glyph-name="Uhungarumlaut" unicode="&#x170;" 
d="M290 -12q-108 0 -165.5 56t-57.5 163v443h106v-435q0 -127 118 -127t118 127v435h104v-443q0 -107 -57.5 -163t-165.5 -56zM368 714l-41 51l134 130l61 -75zM149 714l-41 51l134 130l61 -75z" />
    <glyph glyph-name="uhungarumlaut" unicode="&#x171;" 
d="M248 -12q-83 0 -127.5 46.5t-44.5 134.5v305h104v-289q0 -55 21.5 -78t71.5 -23q32 0 62 9t58 26v355h104v-474h-77l-10 44q-38 -29 -78 -42.5t-84 -13.5zM357 546l-49 43l144 168l73 -64zM155 546l-50 43l145 168l73 -64z" />
    <glyph glyph-name="Uogonek" unicode="&#x172;" 
d="M332 -222q-50 0 -78 24.5t-28 68.5q0 39 24.5 74t78.5 70l55 -13q-48 -28 -64 -57.5t-16 -50.5q0 -16 11 -26t29 -10q12 0 24 3.5t24 12.5l18 -74q-14 -10 -35 -16t-43 -6zM290 -12q-108 0 -165.5 56t-57.5 163v443h106v-435q0 -127 118 -127t118 127v435h104v-443
q0 -107 -57.5 -163t-165.5 -56z" />
    <glyph glyph-name="uogonek" unicode="&#x173;" 
d="M422 -222q-48 0 -75.5 24.5t-27.5 68.5q0 37 23 75t77 76l46 -20q-43 -34 -56 -61.5t-13 -46.5q0 -16 10 -26t27 -10q11 0 22 3.5t23 12.5l19 -75q-15 -9 -35 -15t-40 -6zM248 -12q-83 0 -127.5 46.5t-44.5 134.5v305h104v-289q0 -55 21.5 -78t71.5 -23q32 0 62 9t58 26
v355h104v-474h-77l-10 44q-38 -29 -78 -42.5t-84 -13.5z" />
    <glyph glyph-name="Wcircumflex" unicode="&#x174;" 
d="M105 0l-102 650h100l69 -461l77 388h87l77 -388l70 461h94l-102 -650h-101l-82 409l-82 -409h-105zM156 713l-40 53l157 130h34l157 -130l-40 -53l-134 89z" />
    <glyph glyph-name="wcircumflex" unicode="&#x175;" 
d="M116 0l-110 474h95l77 -346l76 293h77l76 -293l78 346h89l-110 -474h-100l-74 288l-74 -288h-100zM168 546l-50 43l155 168h32l155 -168l-50 -43l-121 106z" />
    <glyph glyph-name="Ycircumflex" unicode="&#x176;" 
d="M237 0v279l-220 371h126l151 -266l152 266h117l-220 -371v-279h-106zM156 713l-40 53l157 130h34l157 -130l-40 -53l-134 89z" />
    <glyph glyph-name="ycircumflex" unicode="&#x177;" 
d="M134 -222q-71 0 -122 32l33 87q39 -23 82 -23q38 0 59.5 18t39.5 65l15 39l-194 478h112l135 -342l134 342h105l-218 -558q-30 -76 -70.5 -107t-110.5 -31zM168 546l-50 43l155 168h32l155 -168l-50 -43l-121 106z" />
    <glyph glyph-name="Ydieresis" unicode="&#x178;" 
d="M237 0v279l-220 371h126l151 -266l152 266h117l-220 -371v-279h-106zM185 729q-32 0 -53 21.5t-21 52.5t21 52.5t53 21.5q31 0 52 -21.5t21 -52.5t-21 -52.5t-52 -21.5zM395 729q-31 0 -52 21.5t-21 52.5t21 52.5t52 21.5q32 0 53 -21.5t21 -52.5t-21 -52.5t-53 -21.5z
" />
    <glyph glyph-name="Zacute" unicode="&#x179;" 
d="M64 0v73l309 479h-294v98h435v-73l-310 -479h310v-98h-450zM252 713l-40 53l158 131l60 -77z" />
    <glyph glyph-name="zacute" unicode="&#x17a;" 
d="M76 0v69l271 311h-261v94h416v-69l-271 -311h271v-94h-426zM260 546l-50 43l145 168l73 -64z" />
    <glyph glyph-name="Zdotaccent" unicode="&#x17b;" 
d="M64 0v73l309 479h-294v98h435v-73l-310 -479h310v-98h-450zM296 726q-32 0 -54.5 22.5t-22.5 54.5t22.5 54.5t54.5 22.5t54.5 -22.5t22.5 -54.5t-22.5 -54.5t-54.5 -22.5z" />
    <glyph glyph-name="zdotaccent" unicode="&#x17c;" 
d="M76 0v69l271 311h-261v94h416v-69l-271 -311h271v-94h-426zM294 569q-32 0 -54.5 22t-22.5 54q0 33 22.5 55t54.5 22t54.5 -22t22.5 -55q0 -32 -22.5 -54t-54.5 -22z" />
    <glyph glyph-name="Zcaron" unicode="&#x17d;" 
d="M64 0v73l309 479h-294v98h435v-73l-310 -479h310v-98h-450zM279 713l-157 131l40 52l134 -88l134 88l40 -52l-157 -131h-34z" />
    <glyph glyph-name="zcaron" unicode="&#x17e;" 
d="M76 0v69l271 311h-261v94h416v-69l-271 -311h271v-94h-426zM277 546l-155 168l50 43l121 -106l121 106l50 -43l-155 -168h-32z" />
    <glyph glyph-name="florin" unicode="&#x192;" 
d="M164 -94q-32 0 -63 5.5t-61 17.5l25 94q23 -11 45 -15t44 -4q39 0 59.5 21.5t20.5 71.5v201h-157v95h157v68q0 89 44.5 135t131.5 46q33 0 63.5 -5t60.5 -18l-26 -94q-23 11 -44.5 15t-43.5 4q-39 0 -60 -21.5t-21 -71.5v-58h158v-95h-158v-211q0 -89 -44.5 -135
t-130.5 -46z" />
    <glyph glyph-name="AEacute" unicode="&#x1fc;" 
d="M-4 0l229 650h344v-91h-187v-183h158v-90h-158v-195h187v-91h-283v137h-144l-47 -137h-99zM173 228h113v331h-2zM261 713l-40 53l158 131l60 -77z" />
    <glyph glyph-name="aeacute" unicode="&#x1fd;" 
d="M153 -12q-65 0 -103.5 40t-38.5 107q0 70 44 107t126 37h49v6q0 65 -19.5 92t-59.5 27q-49 0 -97 -35l-36 71q30 23 65 34.5t75 11.5q94 0 124 -74h2q36 74 121 74q77 0 117 -60t40 -174q0 -11 -0.5 -22t-2.5 -25h-233q4 -73 27.5 -104.5t73.5 -31.5q53 0 104 38l36 -72
q-30 -24 -65 -35.5t-76 -11.5q-95 0 -144 60q-53 -60 -129 -60zM176 69q21 0 38.5 8.5t35.5 27.5q-7 21 -12 46.5t-7 53.5h-44q-83 0 -83 -70q0 -31 19 -48.5t53 -17.5zM326 279h147q-2 65 -20 95t-52 30q-36 0 -54 -30t-21 -95zM255 546l-50 43l145 168l73 -64z" />
    <glyph glyph-name="Oslashacute" unicode="&#x1fe;" 
d="M290 -12q-123 0 -186 85.5t-63 251.5q0 167 63 252t186 85t186 -85t63 -252q0 -166 -63 -251.5t-186 -85.5zM290 88q141 0 141 237t-141 237t-141 -237t141 -237zM80 -32l-62 47l482 667l62 -47zM246 713l-40 53l158 131l60 -77z" />
    <glyph glyph-name="oslashacute" unicode="&#x1ff;" 
d="M290 -12q-72 0 -126.5 31.5t-85 87.5t-30.5 130q0 75 30.5 130.5t85 87t126.5 31.5t126.5 -31.5t85 -87t30.5 -130.5q0 -74 -30.5 -130t-85 -87.5t-126.5 -31.5zM290 80q67 0 103.5 41.5t36.5 115.5q0 75 -36.5 116t-103.5 41q-66 0 -103 -41t-37 -116q0 -74 37 -115.5
t103 -41.5zM96 -12l-54 56l442 442l54 -56zM256 546l-50 43l145 168l73 -64z" />
    <glyph glyph-name="uni0218" unicode="&#x218;" 
d="M283 -12q-69 0 -128 20t-108 62l55 85q39 -34 85 -50.5t99 -16.5q63 0 95.5 24.5t32.5 70.5q0 37 -18.5 55.5t-61.5 29.5l-105 25q-80 19 -118 62t-38 114q0 90 60 141.5t168 51.5q117 0 208 -66l-52 -87q-66 53 -157 53q-59 0 -89.5 -22.5t-30.5 -65.5q0 -32 18.5 -50.5
t61.5 -28.5l105 -26q80 -19 118 -61.5t38 -119.5q0 -93 -62 -146.5t-176 -53.5zM221 -294l-2 46q34 2 51.5 13t22.5 33q-5 -2 -12 -2q-28 0 -45 16.5t-17 40.5q0 27 20.5 44.5t50.5 17.5q32 0 53 -20.5t21 -58.5q0 -34 -16.5 -63t-48 -47.5t-78.5 -19.5z" />
    <glyph glyph-name="uni0219" unicode="&#x219;" 
d="M287 -12q-131 0 -226 59l38 82q41 -25 89.5 -38t101.5 -13q113 0 113 58q0 23 -13.5 33.5t-46.5 13.5l-112 14q-75 10 -110.5 42t-35.5 93q0 74 53.5 114t152.5 40q110 0 203 -48l-34 -84q-75 42 -171 42q-100 0 -100 -56q0 -21 13.5 -31.5t46.5 -14.5l112 -14
q75 -9 110.5 -41t35.5 -94q0 -76 -56.5 -116.5t-163.5 -40.5zM221 -294l-2 46q34 2 51.5 13t22.5 33q-5 -2 -12 -2q-28 0 -45 16.5t-17 40.5q0 27 20.5 44.5t50.5 17.5q32 0 53 -20.5t21 -58.5q0 -34 -16.5 -63t-48 -47.5t-78.5 -19.5z" />
    <glyph glyph-name="uni021A" unicode="&#x21a;" 
d="M237 0v551h-205v99h516v-99h-205v-551h-106zM221 -294l-2 46q34 2 51.5 13t22.5 33q-5 -2 -12 -2q-28 0 -45 16.5t-17 40.5q0 27 20.5 44.5t50.5 17.5q32 0 53 -20.5t21 -58.5q0 -34 -16.5 -63t-48 -47.5t-78.5 -19.5z" />
    <glyph glyph-name="uni021B" unicode="&#x21b;" 
d="M374 -12q-182 0 -182 181v211h-143v94h143v140l104 48v-188h186v-94h-186v-195q0 -55 21.5 -78t72.5 -23q60 0 115 33l27 -89q-70 -40 -158 -40zM255 -294l-2 46q34 2 51.5 13t22.5 33q-5 -2 -12 -2q-28 0 -45 16.5t-17 40.5q0 27 20.5 44.5t50.5 17.5q32 0 53 -20.5
t21 -58.5q0 -34 -16.5 -63t-48 -47.5t-78.5 -19.5z" />
    <glyph glyph-name="uni0237" unicode="&#x237;" 
d="M222 -222q-50 0 -95.5 12.5t-84.5 37.5l34 87q31 -20 64 -30.5t67 -10.5q52 0 79 26.5t27 76.5v403h-189v94h293v-513q0 -87 -51 -135t-144 -48z" />
    <glyph glyph-name="uni02BC" unicode="&#x2bc;" 
d="M222 513l-2 47q34 2 51.5 13t22.5 32q-5 -2 -12 -2q-28 0 -45 16.5t-17 41.5q0 27 20.5 44.5t50.5 17.5q32 0 53 -21t21 -58q0 -34 -16.5 -63t-48 -47.5t-78.5 -20.5z" />
    <glyph glyph-name="circumflex" unicode="&#x2c6;" 
d="M169 546l-50 43l155 168h32l155 -168l-50 -43l-121 106z" />
    <glyph glyph-name="caron" unicode="&#x2c7;" 
d="M274 546l-155 168l50 43l121 -106l121 106l50 -43l-155 -168h-32z" />
    <glyph glyph-name="uni02C9" unicode="&#x2c9;" 
d="M148 604v83h285v-83h-285z" />
    <glyph glyph-name="breve" unicode="&#x2d8;" 
d="M290 559q-49 0 -82.5 18.5t-53 57t-27.5 97.5h81q6 -47 26.5 -68t55.5 -21t56 21t26 68h81q-8 -59 -27.5 -97.5t-52.5 -57t-83 -18.5z" />
    <glyph glyph-name="dotaccent" unicode="&#x2d9;" 
d="M290 569q-32 0 -54.5 22t-22.5 54q0 33 22.5 55t54.5 22t54.5 -22t22.5 -55q0 -32 -22.5 -54t-54.5 -22z" />
    <glyph glyph-name="ring" unicode="&#x2da;" 
d="M290 531q-49 0 -82 33t-33 81q0 50 33 82.5t82 32.5t82 -32.5t33 -82.5q0 -48 -33 -81t-82 -33zM290 598q20 0 32.5 13.5t12.5 33.5q0 22 -12.5 35t-32.5 13q-19 0 -32 -13t-13 -35q0 -20 13 -33.5t32 -13.5z" />
    <glyph glyph-name="ogonek" unicode="&#x2db;" 
d="M304 -222q-50 0 -78 24.5t-28 68.5q0 37 23 72.5t71 76.5l46 -20q-37 -37 -49.5 -62t-12.5 -44q0 -16 11 -26t29 -10q12 0 24 3.5t24 12.5l18 -74q-14 -10 -35 -16t-43 -6z" />
    <glyph glyph-name="tilde" unicode="&#x2dc;" 
d="M182 561l-67 12q12 70 40.5 107.5t73.5 37.5q31 0 50 -13.5t34 -26.5q11 -9 20 -16t19 -7q17 0 28 18t18 56l67 -12q-12 -70 -40.5 -107.5t-73.5 -37.5q-31 0 -50 13.5t-34 26.5q-11 9 -20 16t-19 7q-17 0 -28 -17.5t-18 -56.5z" />
    <glyph glyph-name="hungarumlaut" unicode="&#x2dd;" 
d="M357 546l-49 43l144 168l73 -64zM155 546l-50 43l145 168l73 -64z" />
    <glyph glyph-name="gravecomb" unicode="&#x300;" horiz-adv-x="0" 
d="M324 546l-168 147l73 64l145 -168z" />
    <glyph glyph-name="acutecomb" unicode="&#x301;" horiz-adv-x="0" 
d="M256 546l-50 43l145 168l73 -64z" />
    <glyph glyph-name="uni0302" unicode="&#x302;" horiz-adv-x="0" 
d="M169 546l-50 43l155 168h32l155 -168l-50 -43l-121 106z" />
    <glyph glyph-name="tildecomb" unicode="&#x303;" horiz-adv-x="0" 
d="M182 561l-67 12q12 70 40.5 107.5t73.5 37.5q31 0 50 -13.5t34 -26.5q11 -9 20 -16t19 -7q17 0 28 18t18 56l67 -12q-12 -70 -40.5 -107.5t-73.5 -37.5q-31 0 -50 13.5t-34 26.5q-11 9 -20 16t-19 7q-17 0 -28 -17.5t-18 -56.5z" />
    <glyph glyph-name="uni0304" unicode="&#x304;" horiz-adv-x="0" 
d="M148 604v83h285v-83h-285z" />
    <glyph glyph-name="uni0306" unicode="&#x306;" horiz-adv-x="0" 
d="M290 559q-49 0 -82.5 18.5t-53 57t-27.5 97.5h81q6 -47 26.5 -68t55.5 -21t56 21t26 68h81q-8 -59 -27.5 -97.5t-52.5 -57t-83 -18.5z" />
    <glyph glyph-name="uni0307" unicode="&#x307;" horiz-adv-x="0" 
d="M290 569q-32 0 -54.5 22t-22.5 54q0 33 22.5 55t54.5 22t54.5 -22t22.5 -55q0 -32 -22.5 -54t-54.5 -22z" />
    <glyph glyph-name="uni0308" unicode="&#x308;" horiz-adv-x="0" 
d="M185 572q-32 0 -53 21t-21 52q0 32 21 53t53 21q31 0 52 -21t21 -53q0 -31 -21 -52t-52 -21zM395 572q-31 0 -52 21t-21 52q0 32 21 53t52 21q32 0 53 -21t21 -53q0 -31 -21 -52t-53 -21z" />
    <glyph glyph-name="uni030A" unicode="&#x30a;" horiz-adv-x="0" 
d="M290 531q-49 0 -82 33t-33 81q0 50 33 82.5t82 32.5t82 -32.5t33 -82.5q0 -48 -33 -81t-82 -33zM290 598q20 0 32.5 13.5t12.5 33.5q0 22 -12.5 35t-32.5 13q-19 0 -32 -13t-13 -35q0 -20 13 -33.5t32 -13.5z" />
    <glyph glyph-name="uni030B" unicode="&#x30b;" horiz-adv-x="0" 
d="M357 546l-49 43l144 168l73 -64zM155 546l-50 43l145 168l73 -64z" />
    <glyph glyph-name="uni030C" unicode="&#x30c;" horiz-adv-x="0" 
d="M274 546l-155 168l50 43l121 -106l121 106l50 -43l-155 -168h-32z" />
    <glyph glyph-name="uni0312" unicode="&#x312;" horiz-adv-x="0" 
d="M299 660q29 0 45.5 -16.5t16.5 -41.5q0 -26 -20 -43.5t-51 -17.5t-52.5 20.5t-21.5 58.5q0 34 16.5 63t48 47.5t78.5 19.5l2 -46q-34 -1 -51.5 -12.5t-22.5 -33.5q5 2 12 2z" />
    <glyph glyph-name="uni0326" unicode="&#x326;" horiz-adv-x="0" 
d="M222 -294l-2 46q34 2 51.5 13t22.5 33q-5 -2 -12 -2q-28 0 -45 16.5t-17 40.5q0 27 20.5 44.5t50.5 17.5q32 0 53 -20.5t21 -58.5q0 -34 -16.5 -63t-48 -47.5t-78.5 -19.5z" />
    <glyph glyph-name="uni0327" unicode="&#x327;" horiz-adv-x="0" 
d="M278 -222q-33 0 -60.5 6.5t-52.5 18.5l17 61q26 -13 49.5 -18t47.5 -5q26 0 37 8t11 22q0 12 -10 18.5t-33 6.5h-50l39 104h49l-21 -55h3q101 0 101 -77q0 -45 -32.5 -67.5t-94.5 -22.5z" />
    <glyph glyph-name="uni0328" unicode="&#x328;" horiz-adv-x="0" 
d="M304 -222q-50 0 -78 24.5t-28 68.5q0 37 23 72.5t71 76.5l46 -20q-37 -37 -49.5 -62t-12.5 -44q0 -16 11 -26t29 -10q12 0 24 3.5t24 12.5l18 -74q-14 -10 -35 -16t-43 -6z" />
    <glyph glyph-name="uni0335" unicode="&#x335;" horiz-adv-x="0" 
d="M92 234v86h396v-86h-396z" />
    <glyph glyph-name="uni0336" unicode="&#x336;" horiz-adv-x="0" 
d="M25 234v86h530v-86h-530z" />
    <glyph glyph-name="uni0337" unicode="&#x337;" horiz-adv-x="0" 
d="M96 -12l-54 56l442 442l54 -56z" />
    <glyph glyph-name="uni0338" unicode="&#x338;" horiz-adv-x="0" 
d="M80 -32l-62 47l482 667l62 -47z" />
    <glyph glyph-name="uni0394" unicode="&#x394;" 
d="M19 0l214 650h114l214 -650h-542zM156 98h263l-132 406z" />
    <glyph glyph-name="uni03A9" unicode="&#x3a9;" 
d="M31 0v98h141v16q-132 116 -132 278q0 82 30.5 142.5t87 94t132.5 33.5t132.5 -33.5t87 -94t30.5 -142.5q0 -162 -132 -278v-16h141v-98h-233v142q116 101 116 242q0 83 -37.5 130.5t-104.5 47.5t-104.5 -47.5t-37.5 -130.5q0 -141 116 -242v-142h-233z" />
    <glyph glyph-name="uni03BC" unicode="&#x3bc;" 
d="M80 -210v684h104v-289q0 -55 21.5 -78t71.5 -23q32 0 62 9t57 26v355h104v-474h-77l-9 44q-38 -29 -78 -42.5t-84 -13.5q-51 0 -82 24l14 -151v-71h-104z" />
    <glyph glyph-name="pi" unicode="&#x3c0;" 
d="M175 -12l-111 12q29 64 42.5 144t13.5 192v44q-30 0 -50 -2.5t-39 -9.5v93q17 7 40.5 10t63.5 3h322q27 0 45.5 3t35.5 9v-93q-16 -6 -37 -9t-56 -4v-260q0 -20 9 -28t29 -8q23 0 43 10l17 -88q-38 -18 -83 -18q-61 0 -90 28t-29 87v277h-117v-44q0 -115 -11.5 -197.5
t-37.5 -150.5z" />
    <glyph glyph-name="Wgrave" unicode="&#x1e80;" 
d="M105 0l-102 650h100l69 -461l77 388h87l77 -388l70 461h94l-102 -650h-101l-82 409l-82 -409h-105zM334 713l-178 107l60 77l158 -131z" />
    <glyph glyph-name="wgrave" unicode="&#x1e81;" 
d="M116 0l-110 474h95l77 -346l76 293h77l76 -293l78 346h89l-110 -474h-100l-74 288l-74 -288h-100zM324 546l-168 147l73 64l145 -168z" />
    <glyph glyph-name="Wacute" unicode="&#x1e82;" 
d="M105 0l-102 650h100l69 -461l77 388h87l77 -388l70 461h94l-102 -650h-101l-82 409l-82 -409h-105zM246 713l-40 53l158 131l60 -77z" />
    <glyph glyph-name="wacute" unicode="&#x1e83;" 
d="M116 0l-110 474h95l77 -346l76 293h77l76 -293l78 346h89l-110 -474h-100l-74 288l-74 -288h-100zM256 546l-50 43l145 168l73 -64z" />
    <glyph glyph-name="Wdieresis" unicode="&#x1e84;" 
d="M105 0l-102 650h100l69 -461l77 388h87l77 -388l70 461h94l-102 -650h-101l-82 409l-82 -409h-105zM185 729q-32 0 -53 21.5t-21 52.5t21 52.5t53 21.5q31 0 52 -21.5t21 -52.5t-21 -52.5t-52 -21.5zM395 729q-31 0 -52 21.5t-21 52.5t21 52.5t52 21.5q32 0 53 -21.5
t21 -52.5t-21 -52.5t-53 -21.5z" />
    <glyph glyph-name="wdieresis" unicode="&#x1e85;" 
d="M116 0l-110 474h95l77 -346l76 293h77l76 -293l78 346h89l-110 -474h-100l-74 288l-74 -288h-100zM185 572q-32 0 -53 21t-21 52q0 32 21 53t53 21q31 0 52 -21t21 -53q0 -31 -21 -52t-52 -21zM395 572q-31 0 -52 21t-21 52q0 32 21 53t52 21q32 0 53 -21t21 -53
q0 -31 -21 -52t-53 -21z" />
    <glyph glyph-name="uni1E9E" unicode="&#x1e9e;" 
d="M360 -12q-75 0 -138 33l33 94q47 -27 99 -27q42 0 62.5 17t20.5 46q0 25 -14 39.5t-47 35.5q-26 17 -49 36t-37 46t-14 70q0 60 29 101t82 62v2q-45 19 -95 19q-67 0 -96.5 -32.5t-29.5 -105.5v-424h-106v446q0 102 61 159t170 57q123 0 220 -78l-30 -87
q-97 -28 -97 -104q0 -33 17 -49.5t44 -34.5q29 -19 51.5 -38.5t35.5 -46.5t13 -70q0 -78 -47 -122t-138 -44z" />
    <glyph glyph-name="Ygrave" unicode="&#x1ef2;" 
d="M237 0v279l-220 371h126l151 -266l152 266h117l-220 -371v-279h-106zM334 713l-178 107l60 77l158 -131z" />
    <glyph glyph-name="ygrave" unicode="&#x1ef3;" 
d="M134 -222q-71 0 -122 32l33 87q39 -23 82 -23q38 0 59.5 18t39.5 65l15 39l-194 478h112l135 -342l134 342h105l-218 -558q-30 -76 -70.5 -107t-110.5 -31zM323 546l-168 147l73 64l145 -168z" />
    <glyph glyph-name="uni2002" unicode="&#x2002;" 
 />
    <glyph glyph-name="uni2003" unicode="&#x2003;" 
 />
    <glyph glyph-name="uni2008" unicode="&#x2008;" 
 />
    <glyph glyph-name="endash" unicode="&#x2013;" 
d="M60 238v78h460v-78h-460z" />
    <glyph glyph-name="emdash" unicode="&#x2014;" 
d="M0 238v78h580v-78h-580z" />
    <glyph glyph-name="uni2016" unicode="&#x2016;" 
d="M147 -120v770h82v-770h-82zM351 -120v770h82v-770h-82z" />
    <glyph glyph-name="quoteleft" unicode="&#x2018;" 
d="M385 662l12 -57q-51 -8 -81.5 -40t-40.5 -87q4 1 7 1h6q33 0 54.5 -23t21.5 -57q0 -35 -22 -59t-58 -24q-39 0 -63.5 27.5t-24.5 80.5q0 58 23.5 107.5t65.5 84.5t100 46z" />
    <glyph glyph-name="quoteright" unicode="&#x2019;" 
d="M197 316l-13 56q51 10 82 42t40 86q-3 -1 -6.5 -1.5t-6.5 -0.5q-32 0 -54 23t-22 57q0 35 22.5 59.5t58.5 24.5q39 0 63 -27.5t24 -81.5q0 -57 -23 -107t-65.5 -84.5t-99.5 -45.5z" />
    <glyph glyph-name="quotesinglbase" unicode="&#x201a;" 
d="M186 -190l-13 56q51 10 82 42t40 86q-3 -1 -6.5 -1.5t-6.5 -0.5q-32 0 -54 23t-22 57q0 35 22.5 59.5t58.5 24.5q39 0 63 -27.5t24 -81.5q0 -57 -23 -107t-65.5 -84.5t-99.5 -45.5z" />
    <glyph glyph-name="quotedblleft" unicode="&#x201c;" 
d="M260 662l12 -57q-51 -8 -81.5 -40t-40.5 -87q4 1 7 1h6q33 0 54.5 -23t21.5 -57q0 -35 -22 -59t-58 -24q-39 0 -63.5 27.5t-24.5 80.5q0 58 23.5 107.5t65.5 84.5t100 46zM510 662l12 -57q-50 -8 -80.5 -40t-41.5 -87q4 1 7 1h6q34 0 55 -23t21 -57q0 -35 -22 -59
t-58 -24q-39 0 -63.5 27.5t-24.5 80.5q0 58 23.5 107.5t66 84.5t99.5 46z" />
    <glyph glyph-name="quotedblright" unicode="&#x201d;" 
d="M322 316l-13 56q51 10 82 42t40 86q-3 -1 -6.5 -1.5t-6.5 -0.5q-32 0 -54 23t-22 57q0 35 22.5 59.5t58.5 24.5q39 0 63 -27.5t24 -81.5q0 -57 -23 -107t-65.5 -84.5t-99.5 -45.5zM72 316l-13 56q51 10 82 42t40 86q-3 -1 -6.5 -1.5t-6.5 -0.5q-32 0 -54 23t-22 57
q0 35 22.5 59.5t58.5 24.5q39 0 63 -27.5t24 -81.5q0 -57 -23 -107t-65.5 -84.5t-99.5 -45.5z" />
    <glyph glyph-name="quotedblbase" unicode="&#x201e;" 
d="M311 -190l-13 56q51 10 82 42t40 86q-3 -1 -6.5 -1.5t-6.5 -0.5q-32 0 -54 23t-22 57q0 35 22.5 59.5t58.5 24.5q39 0 63 -27.5t24 -81.5q0 -57 -23 -107t-65.5 -84.5t-99.5 -45.5zM61 -190l-13 56q51 10 82 42t40 86q-3 -1 -6.5 -1.5t-6.5 -0.5q-32 0 -54 23t-22 57
q0 35 22.5 59.5t58.5 24.5q39 0 63 -27.5t24 -81.5q0 -57 -23 -107t-65.5 -84.5t-99.5 -45.5z" />
    <glyph glyph-name="dagger" unicode="&#x2020;" 
d="M240 -120l16 485l-202 -10v90l201 -11l-15 216h100l-15 -216l201 11v-90l-202 10l16 -485h-100z" />
    <glyph glyph-name="daggerdbl" unicode="&#x2021;" 
d="M240 -120l15 182l-201 -11v92l200 -11l-14 133l14 133l-200 -11v92l201 -11l-15 182h100l-15 -182l201 11v-92l-200 11l14 -133l-14 -133l200 11v-92l-201 11l15 -182h-100z" />
    <glyph glyph-name="bullet" unicode="&#x2022;" 
d="M290 136q-39 0 -72 19.5t-52.5 52t-19.5 72.5q0 39 19.5 71.5t52.5 52.5t72 20q40 0 72.5 -20t52 -52.5t19.5 -71.5q0 -40 -19.5 -72.5t-52 -52t-72.5 -19.5z" />
    <glyph glyph-name="ellipsis" unicode="&#x2026;" 
d="M290 -12q-27 0 -46 19t-19 46q0 28 19 47t46 19q28 0 46.5 -19t18.5 -47q0 -27 -18.5 -46t-46.5 -19zM97 -12q-27 0 -46 19t-19 46q0 28 19 47t46 19t46 -19t19 -47q0 -27 -19 -46t-46 -19zM483 -12q-27 0 -46 19t-19 46q0 28 19 47t46 19q28 0 46.5 -19t18.5 -47
q0 -27 -18.5 -46t-46.5 -19z" />
    <glyph glyph-name="perthousand" unicode="&#x2030;" 
d="M48 252l-12 48l491 152l20 -81zM164 -12q-55 0 -86.5 35t-31.5 92t31.5 92t86.5 35t86.5 -35t31.5 -92t-31.5 -92t-86.5 -35zM164 47q24 0 35 17.5t11 50.5t-11 50.5t-35 17.5t-35.5 -17.5t-11.5 -50.5t11.5 -50.5t35.5 -17.5zM435 -12q-54 0 -86 35t-32 92t32 92t86 35
q55 0 86.5 -35t31.5 -92t-31.5 -92t-86.5 -35zM435 47q25 0 36 17.5t11 50.5t-11 50.5t-36 17.5q-24 0 -35.5 -17.5t-11.5 -50.5t11.5 -50.5t35.5 -17.5zM164 388q-55 0 -86.5 35t-31.5 92t31.5 92t86.5 35t86.5 -35t31.5 -92t-31.5 -92t-86.5 -35zM164 447q24 0 35 17.5
t11 50.5t-11 50.5t-35 17.5t-35.5 -17.5t-11.5 -50.5t11.5 -50.5t35.5 -17.5z" />
    <glyph glyph-name="guilsinglleft" unicode="&#x2039;" 
d="M385 49l-224 162v52l224 162l31 -40l-147 -148l147 -147z" />
    <glyph glyph-name="guilsinglright" unicode="&#x203a;" 
d="M195 49l-31 41l147 147l-147 148l31 40l224 -162v-52z" />
    <glyph glyph-name="fraction" unicode="&#x2044;" 
d="M369 361l-46 40l181 238l66 -56zM76 -9l-66 56l201 222l46 -40z" />
    <glyph glyph-name="uni2070" unicode="&#x2070;" 
d="M290 287q-97 0 -148.5 61.5t-51.5 178.5q0 118 51.5 179.5t148.5 61.5t148.5 -61.5t51.5 -179.5q0 -117 -51.5 -178.5t-148.5 -61.5zM290 367q110 0 110 160q0 34 -4 60l-183 -188q27 -32 77 -32zM184 468l183 188q-27 32 -77 32q-110 0 -110 -161q0 -33 4 -59z" />
    <glyph glyph-name="uni2074" unicode="&#x2074;" 
d="M334 299v99h-261v66l210 292h99l-200 -279h152v102l90 53v-155h85v-79h-85v-99h-90z" />
    <glyph glyph-name="uni2075" unicode="&#x2075;" 
d="M108 287l-2 78q101 0 162 8t87.5 27t26.5 49q0 24 -18 37t-59 13q-61 0 -113 -26l-70 24l31 259h300v-78h-228l-14 -124q51 24 113 24q71 0 110 -33.5t39 -94.5q0 -59 -37.5 -94.5t-117.5 -51.5t-210 -17z" />
    <glyph glyph-name="uni2076" unicode="&#x2076;" 
d="M297 287q-93 0 -144.5 55t-51.5 155q0 129 87.5 199.5t258.5 71.5l5 -78q-116 -1 -180.5 -38t-77.5 -106h2q48 47 123 47q77 0 120.5 -39.5t43.5 -105.5q0 -72 -51 -116.5t-135 -44.5zM299 367q44 0 69 21t25 56q0 32 -23 51.5t-68 19.5q-32 0 -60 -11t-50 -36
q5 -48 33 -74.5t74 -26.5z" />
    <glyph glyph-name="uni2077" unicode="&#x2077;" 
d="M174 299q27 116 74 208.5t121 170.5h-267v78h375v-83q-82 -77 -131 -168t-71 -206h-101z" />
    <glyph glyph-name="uni2078" unicode="&#x2078;" 
d="M290 287q-93 0 -147 37t-54 100q0 36 19 62t60 47v2q-60 34 -60 100q0 63 49.5 98t132.5 35q84 0 133 -35t49 -93q0 -60 -60 -96v-2q41 -16 60 -43.5t19 -67.5q0 -68 -54 -106t-147 -38zM290 367q52 0 81.5 16t29.5 47q0 21 -14.5 34t-48.5 20l-81 21q-40 -15 -59 -32.5
t-19 -41.5q0 -32 29.5 -48t81.5 -16zM323 568q30 12 44 28t14 37q0 28 -23 41.5t-68 13.5q-42 0 -66.5 -13t-24.5 -40q0 -19 14.5 -30.5t48.5 -20.5z" />
    <glyph glyph-name="uni2079" unicode="&#x2079;" 
d="M133 287l-5 78q117 1 181.5 38.5t76.5 105.5h-2q-48 -47 -123 -47q-76 0 -120 39.5t-44 105.5q0 72 51 116.5t135 44.5q93 0 144.5 -55t51.5 -155q0 -130 -87.5 -200t-258.5 -71zM278 540q32 0 60 11.5t50 35.5q-4 48 -32.5 74.5t-74.5 26.5q-43 0 -68.5 -21t-25.5 -56
q0 -32 23 -51.5t68 -19.5z" />
    <glyph glyph-name="uni2080" unicode="&#x2080;" 
d="M290 -138q-97 0 -148.5 61.5t-51.5 178.5q0 118 51.5 179.5t148.5 61.5t148.5 -61.5t51.5 -179.5q0 -117 -51.5 -178.5t-148.5 -61.5zM290 -58q110 0 110 160q0 34 -4 60l-183 -188q27 -32 77 -32zM184 43l183 188q-27 32 -77 32q-110 0 -110 -161q0 -33 4 -59z" />
    <glyph glyph-name="uni2081" unicode="&#x2081;" 
d="M108 -126v78h146v263l-119 -68l-37 59l184 130h62v-384h145v-78h-381z" />
    <glyph glyph-name="uni2082" unicode="&#x2082;" 
d="M107 -126v61q0 84 35 129t115 66l67 18q29 8 44 19.5t15 34.5q0 31 -24 46t-71 15q-41 0 -75 -12t-64 -36l-44 70q40 29 83.5 43.5t98.5 14.5q91 0 138.5 -37t47.5 -106q0 -54 -31 -84.5t-95 -48.5l-64 -18q-46 -12 -64 -31.5t-21 -65.5h275v-78h-366z" />
    <glyph glyph-name="uni2083" unicode="&#x2083;" 
d="M105 -138l-2 78q102 0 164.5 7.5t90.5 25t28 46.5q0 26 -21.5 37t-72.5 11h-108v75h71q57 0 85 15t28 47q0 59 -94 59q-77 0 -135 -41l-41 70q40 26 84.5 38t95.5 12q87 0 133.5 -32t46.5 -92q0 -70 -67 -95v-2q85 -20 85 -105q0 -56 -37 -90t-118.5 -49t-215.5 -15z" />
    <glyph glyph-name="uni2084" unicode="&#x2084;" 
d="M334 -126v99h-261v66l210 292h99l-200 -279h152v102l90 53v-155h85v-79h-85v-99h-90z" />
    <glyph glyph-name="uni2085" unicode="&#x2085;" 
d="M108 -138l-2 78q101 0 162 8t87.5 27t26.5 49q0 24 -18 37t-59 13q-61 0 -113 -26l-70 24l31 259h300v-78h-228l-14 -124q51 24 113 24q71 0 110 -33.5t39 -94.5q0 -59 -37.5 -94.5t-117.5 -51.5t-210 -17z" />
    <glyph glyph-name="uni2086" unicode="&#x2086;" 
d="M297 -138q-93 0 -144.5 55t-51.5 155q0 129 87.5 199.5t258.5 71.5l5 -78q-116 -1 -180.5 -38t-77.5 -106h2q48 47 123 47q77 0 120.5 -39.5t43.5 -105.5q0 -72 -51 -116.5t-135 -44.5zM299 -58q44 0 69 21t25 56q0 32 -23 51.5t-68 19.5q-32 0 -60 -11t-50 -36
q5 -48 33 -74.5t74 -26.5z" />
    <glyph glyph-name="uni2087" unicode="&#x2087;" 
d="M174 -125q27 116 74 208.5t121 170.5h-267v78h375v-83q-82 -77 -131 -168t-71 -206h-101z" />
    <glyph glyph-name="uni2088" unicode="&#x2088;" 
d="M290 -138q-93 0 -147 37t-54 100q0 36 19 62t60 47v2q-60 34 -60 100q0 63 49.5 98t132.5 35q84 0 133 -35t49 -93q0 -60 -60 -96v-2q41 -16 60 -43.5t19 -67.5q0 -68 -54 -106t-147 -38zM290 -58q52 0 81.5 16t29.5 47q0 21 -14.5 34t-48.5 20l-81 21q-40 -15 -59 -32.5
t-19 -41.5q0 -32 29.5 -48t81.5 -16zM323 143q30 12 44 28t14 37q0 28 -23 41.5t-68 13.5q-42 0 -66.5 -13t-24.5 -40q0 -19 14.5 -30.5t48.5 -20.5z" />
    <glyph glyph-name="uni2089" unicode="&#x2089;" 
d="M133 -137l-5 78q117 1 181.5 38.5t76.5 105.5h-2q-48 -47 -123 -47q-76 0 -120 39.5t-44 105.5q0 72 51 116.5t135 44.5q93 0 144.5 -55t51.5 -155q0 -130 -87.5 -200t-258.5 -71zM278 116q32 0 60 11.5t50 35.5q-4 48 -32.5 74.5t-74.5 26.5q-43 0 -68.5 -21t-25.5 -56
q0 -32 23 -51.5t68 -19.5z" />
    <glyph glyph-name="Euro" unicode="&#x20ac;" 
d="M364 -12q-100 0 -163.5 53.5t-84.5 156.5h-72v78h62v78h-62v78h72q21 103 84.5 156.5t163.5 53.5q47 0 86 -12t73 -39l-32 -102q-30 29 -61 42t-66 13q-106 0 -139 -112h248l-25 -78h-235v-78h211l-25 -78h-174q33 -112 139 -112q35 0 64.5 12t58.5 39l54 -83
q-39 -34 -81.5 -50t-95.5 -16z" />
    <glyph glyph-name="uni20B9" unicode="&#x20b9;" 
d="M336 0l-272 253v43h119q62 0 95 21.5t42 65.5h-287l47 80h240q-9 44 -42 65.5t-95 21.5h-150l47 80h472l-48 -80h-117q34 -34 41 -87h124l-48 -80h-78q-11 -70 -58.5 -109t-125.5 -48l253 -226h-159z" />
    <glyph glyph-name="uni20BF" unicode="&#x20bf;" 
d="M151 -82l9 102h-81v590h81l-9 102h83l-9 -102h91l-9 102h83l-10 -107q67 -12 99.5 -49.5t32.5 -99.5q0 -54 -23.5 -85t-65.5 -45v-2q48 -13 77.5 -45.5t29.5 -95.5q0 -138 -149 -159l9 -106h-83l9 102h-91l9 -102h-83zM185 117h129q31 0 55 6t39 22t15 47q0 32 -16 49
t-43.5 23t-62.5 6h-116v-153zM185 367h104q34 0 60.5 5.5t41.5 22t15 47.5t-13.5 45.5t-37 20t-53.5 5.5h-117v-146z" />
    <glyph glyph-name="uni2113" unicode="&#x2113;" 
d="M349 -12q-96 0 -142.5 45t-46.5 136v352q0 97 46 149t132 52q83 0 128 -48t45 -133q0 -87 -47 -163t-143.5 -136.5t-246.5 -105.5l-23 86q94 30 162 64.5t111.5 74t64 84.5t20.5 94q0 87 -71 87q-38 0 -56 -24t-18 -81v-342q0 -52 20 -73.5t69 -21.5q34 0 67.5 11
t62.5 31l34 -88q-38 -25 -78.5 -37.5t-89.5 -12.5z" />
    <glyph glyph-name="uni2116" unicode="&#x2116;" 
d="M33 0v630h101l92 -403v403h71v-630h-80l-112 495v-495h-72zM361 0v69h205v-69h-205zM465 131q-54 0 -83.5 38.5t-29.5 109.5t29.5 109.5t83.5 38.5q55 0 84 -38.5t29 -109.5t-29 -109.5t-84 -38.5zM465 198q44 0 44 81q0 43 -11 62t-33 19q-23 0 -33.5 -19t-10.5 -62
q0 -42 10.5 -61.5t33.5 -19.5z" />
    <glyph glyph-name="uni2117" unicode="&#x2117;" 
d="M290 18q-82 0 -143 37.5t-94.5 106.5t-33.5 163q0 95 33.5 163.5t94.5 106t143 37.5t143 -37.5t94.5 -106t33.5 -163.5q0 -94 -33.5 -163t-94.5 -106.5t-143 -37.5zM290 73q99 0 155.5 67.5t56.5 184.5t-56.5 184.5t-155.5 67.5q-98 0 -155 -67.5t-57 -184.5t57 -184.5
t155 -67.5zM188 164v323h130q52 0 79.5 -27.5t27.5 -75.5q0 -49 -27.5 -76t-79.5 -27h-71v-117h-59zM247 335h66q29 0 41 12.5t12 36.5t-12 36.5t-41 12.5h-66v-98z" />
    <glyph glyph-name="uni2120" unicode="&#x2120;" 
d="M282 352v298h87l46 -139l47 139h88v-298h-65v219l-53 -157h-35l-53 157v-219h-62zM118 351q-31 0 -60 9.5t-51 27.5l30 53q36 -29 82 -29q23 0 35 8t12 23q0 22 -35 31l-40 9q-74 18 -74 84q0 45 29 70t83 25q58 0 98 -29l-31 -54q-29 22 -66 22q-44 0 -44 -31
q0 -23 35 -30l41 -10q74 -17 74 -84q0 -44 -31.5 -69.5t-86.5 -25.5z" />
    <glyph glyph-name="trademark" unicode="&#x2122;" 
d="M273 352v298h87l46 -139l46 139h88v-298h-64v219l-53 -157h-36l-53 157v-219h-61zM79 352v234h-78v64h225v-64h-77v-234h-70z" />
    <glyph glyph-name="uni2126" unicode="&#x2126;" 
d="M31 0v98h141v16q-132 116 -132 278q0 82 30.5 142.5t87 94t132.5 33.5t132.5 -33.5t87 -94t30.5 -142.5q0 -162 -132 -278v-16h141v-98h-233v142q116 101 116 242q0 83 -37.5 130.5t-104.5 47.5t-104.5 -47.5t-37.5 -130.5q0 -141 116 -242v-142h-233z" />
    <glyph glyph-name="estimated" unicode="&#x212e;" 
d="M298 -12q-86 0 -146.5 45.5t-92 122t-31.5 169.5t31.5 169.5t91 122t144.5 45.5t144 -45.5t90.5 -122t31.5 -169.5v-19h-422q-6 0 -6 -6v-152q0 -6 1 -13t3 -11q20 -36 60 -66t102 -30q60 0 98 28t51 64h65q-22 -61 -80.5 -96.5t-134.5 -35.5zM140 346h309q7 0 7 6v150
q0 6 -1 13t-3 11q-6 15 -25 37.5t-52 40.5t-81 18q-42 0 -73.5 -14.5t-52.5 -36.5t-31 -45q-2 -4 -3 -11t-1 -13v-150q0 -6 7 -6z" />
    <glyph glyph-name="uni2153" unicode="&#x2153;" 
d="M22 347v61h90v137l-71 -40l-30 47l122 84h52v-228h90v-61h-253zM369 361l-46 40l181 238l66 -56zM76 -9l-66 56l201 222l46 -40zM313 -12l-2 61q104 0 143.5 9t39.5 33q0 13 -12 18.5t-49 5.5h-68v57h50q41 0 55.5 8.5t14.5 23.5t-12.5 22.5t-41.5 7.5q-27 0 -51.5 -5.5
t-43.5 -16.5l-24 55q29 14 58.5 21t62.5 7q61 0 92 -20.5t31 -58.5q0 -43 -41 -59v-2q52 -13 52 -66q0 -54 -57.5 -77.5t-196.5 -23.5z" />
    <glyph glyph-name="uni2154" unicode="&#x2154;" 
d="M18 347v50q0 49 24.5 76t73.5 40l46 12q17 5 24 11.5t7 17.5q0 14 -12.5 20.5t-39.5 6.5t-50 -7t-43 -20l-28 55q23 14 53 23.5t70 9.5q57 0 89.5 -22.5t32.5 -68.5q0 -37 -21.5 -55t-64.5 -30l-48 -14q-19 -5 -29 -13.5t-11 -30.5h174v-61h-247zM369 361l-46 40l181 238
l66 -56zM76 -9l-66 56l201 222l46 -40zM313 -12l-2 61q104 0 143.5 9t39.5 33q0 13 -12 18.5t-49 5.5h-68v57h50q41 0 55.5 8.5t14.5 23.5t-12.5 22.5t-41.5 7.5q-27 0 -51.5 -5.5t-43.5 -16.5l-24 55q29 14 58.5 21t62.5 7q61 0 92 -20.5t31 -58.5q0 -43 -41 -59v-2
q52 -13 52 -66q0 -54 -57.5 -77.5t-196.5 -23.5z" />
    <glyph glyph-name="uni2155" unicode="&#x2155;" 
d="M22 347v61h90v137l-71 -40l-30 47l122 84h52v-228h90v-61h-253zM374 361l-46 40l181 238l66 -56zM81 -9l-66 56l201 222l46 -40zM317 -12l-2 61q68 0 106.5 4t54 13.5t15.5 24.5q0 10 -8 17t-35 7q-21 0 -37 -3.5t-33 -11.5l-57 17l19 166h211v-61h-152l-7 -65
q16 8 34.5 12.5t39.5 4.5q47 0 72.5 -20t25.5 -61q0 -57 -57 -81t-190 -24z" />
    <glyph glyph-name="uni2156" unicode="&#x2156;" 
d="M18 347v50q0 49 24.5 76t73.5 40l46 12q17 5 24 11.5t7 17.5q0 14 -12.5 20.5t-39.5 6.5t-50 -7t-43 -20l-28 55q23 14 53 23.5t70 9.5q57 0 89.5 -22.5t32.5 -68.5q0 -37 -21.5 -55t-64.5 -30l-48 -14q-19 -5 -29 -13.5t-11 -30.5h174v-61h-247zM369 361l-46 40l181 238
l66 -56zM76 -9l-66 56l201 222l46 -40zM317 -12l-2 61q68 0 106.5 4t54 13.5t15.5 24.5q0 10 -8 17t-35 7q-21 0 -37 -3.5t-33 -11.5l-57 17l19 166h211v-61h-152l-7 -65q16 8 34.5 12.5t39.5 4.5q47 0 72.5 -20t25.5 -61q0 -57 -57 -81t-190 -24z" />
    <glyph glyph-name="uni2157" unicode="&#x2157;" 
d="M13 335l-2 61q104 0 143.5 9t39.5 33q0 13 -12 18.5t-49 5.5h-68v57h50q41 0 55.5 8.5t14.5 23.5t-12.5 22.5t-41.5 7.5q-27 0 -51.5 -5.5t-43.5 -16.5l-24 55q29 14 58.5 21t62.5 7q61 0 92 -20.5t31 -58.5q0 -43 -41 -59v-2q52 -13 52 -66q0 -54 -57.5 -77.5
t-196.5 -23.5zM369 361l-46 40l181 238l66 -56zM76 -9l-66 56l201 222l46 -40zM317 -12l-2 61q68 0 106.5 4t54 13.5t15.5 24.5q0 10 -8 17t-35 7q-21 0 -37 -3.5t-33 -11.5l-57 17l19 166h211v-61h-152l-7 -65q16 8 34.5 12.5t39.5 4.5q47 0 72.5 -20t25.5 -61
q0 -57 -57 -81t-190 -24z" />
    <glyph glyph-name="uni2158" unicode="&#x2158;" 
d="M177 347v58h-178v49l143 176h82l-133 -164h86v40l72 34v-74h53v-61h-53v-58h-72zM384 361l-46 40l181 238l66 -56zM91 -9l-66 56l201 222l46 -40zM317 -12l-2 61q68 0 106.5 4t54 13.5t15.5 24.5q0 10 -8 17t-35 7q-21 0 -37 -3.5t-33 -11.5l-57 17l19 166h211v-61h-152
l-7 -65q16 8 34.5 12.5t39.5 4.5q47 0 72.5 -20t25.5 -61q0 -57 -57 -81t-190 -24z" />
    <glyph glyph-name="uni2159" unicode="&#x2159;" 
d="M22 347v61h90v137l-71 -40l-30 47l122 84h52v-228h90v-61h-253zM389 361l-46 40l181 238l66 -56zM96 -9l-66 56l201 222l46 -40zM441 -12q-65 0 -100 35t-35 98q0 81 59.5 127.5t174.5 46.5l5 -61q-81 -1 -120.5 -23.5t-44.5 -63.5h2q14 13 34.5 21.5t48.5 8.5
q49 0 75 -24t26 -66q0 -44 -32 -71.5t-93 -27.5zM443 49q26 0 38 10.5t12 26.5q0 15 -10.5 23.5t-37.5 8.5q-18 0 -34.5 -4.5t-29.5 -15.5q4 -23 19.5 -36t42.5 -13z" />
    <glyph glyph-name="uni215A" unicode="&#x215a;" 
d="M17 335l-2 61q68 0 106.5 4t54 13.5t15.5 24.5q0 10 -8 17t-35 7q-21 0 -37 -3.5t-33 -11.5l-57 17l19 166h211v-61h-152l-7 -65q16 8 34.5 12.5t39.5 4.5q47 0 72.5 -20t25.5 -61q0 -57 -57 -81t-190 -24zM379 361l-46 40l181 238l66 -56zM86 -9l-66 56l201 222l46 -40z
M441 -12q-65 0 -100 35t-35 98q0 81 59.5 127.5t174.5 46.5l5 -61q-81 -1 -120.5 -23.5t-44.5 -63.5h2q14 13 34.5 21.5t48.5 8.5q49 0 75 -24t26 -66q0 -44 -32 -71.5t-93 -27.5zM443 49q26 0 38 10.5t12 26.5q0 15 -10.5 23.5t-37.5 8.5q-18 0 -34.5 -4.5t-29.5 -15.5
q4 -23 19.5 -36t42.5 -13z" />
    <glyph glyph-name="oneeighth" unicode="&#x215b;" 
d="M22 347v61h90v137l-71 -40l-30 47l122 84h52v-228h90v-61h-253zM374 361l-46 40l181 238l66 -56zM81 -9l-66 56l201 222l46 -40zM440 -12q-61 0 -97.5 24.5t-36.5 64.5q0 22 13 37t36 26v2q-40 22 -40 64q0 44 34 66.5t91 22.5t91 -22t34 -59q0 -19 -10 -33.5t-29 -24.5
v-2q24 -10 36 -28t12 -41q0 -47 -37.5 -72t-96.5 -25zM441 47q27 0 44 8.5t17 28.5q0 12 -9 18.5t-34 11.5l-46 10q-18 -7 -26.5 -18.5t-8.5 -23.5q0 -17 16.5 -26t46.5 -9zM466 170q15 7 21.5 16t6.5 19q0 31 -55 31q-23 0 -38 -7.5t-15 -22.5q0 -13 10.5 -18.5t37.5 -10.5
z" />
    <glyph glyph-name="threeeighths" unicode="&#x215c;" 
d="M13 335l-2 61q104 0 143.5 9t39.5 33q0 13 -12 18.5t-49 5.5h-68v57h50q41 0 55.5 8.5t14.5 23.5t-12.5 22.5t-41.5 7.5q-27 0 -51.5 -5.5t-43.5 -16.5l-24 55q29 14 58.5 21t62.5 7q61 0 92 -20.5t31 -58.5q0 -43 -41 -59v-2q52 -13 52 -66q0 -54 -57.5 -77.5
t-196.5 -23.5zM369 361l-46 40l181 238l66 -56zM76 -9l-66 56l201 222l46 -40zM440 -12q-61 0 -97.5 24.5t-36.5 64.5q0 22 13 37t36 26v2q-40 22 -40 64q0 44 34 66.5t91 22.5t91 -22t34 -59q0 -19 -10 -33.5t-29 -24.5v-2q24 -10 36 -28t12 -41q0 -47 -37.5 -72t-96.5 -25
zM441 47q27 0 44 8.5t17 28.5q0 12 -9 18.5t-34 11.5l-46 10q-18 -7 -26.5 -18.5t-8.5 -23.5q0 -17 16.5 -26t46.5 -9zM466 170q15 7 21.5 16t6.5 19q0 31 -55 31q-23 0 -38 -7.5t-15 -22.5q0 -13 10.5 -18.5t37.5 -10.5z" />
    <glyph glyph-name="fiveeighths" unicode="&#x215d;" 
d="M17 335l-2 61q68 0 106.5 4t54 13.5t15.5 24.5q0 10 -8 17t-35 7q-21 0 -37 -3.5t-33 -11.5l-57 17l19 166h211v-61h-152l-7 -65q16 8 34.5 12.5t39.5 4.5q47 0 72.5 -20t25.5 -61q0 -57 -57 -81t-190 -24zM369 361l-46 40l181 238l66 -56zM76 -9l-66 56l201 222l46 -40z
M440 -12q-61 0 -97.5 24.5t-36.5 64.5q0 22 13 37t36 26v2q-40 22 -40 64q0 44 34 66.5t91 22.5t91 -22t34 -59q0 -19 -10 -33.5t-29 -24.5v-2q24 -10 36 -28t12 -41q0 -47 -37.5 -72t-96.5 -25zM441 47q27 0 44 8.5t17 28.5q0 12 -9 18.5t-34 11.5l-46 10
q-18 -7 -26.5 -18.5t-8.5 -23.5q0 -17 16.5 -26t46.5 -9zM466 170q15 7 21.5 16t6.5 19q0 31 -55 31q-23 0 -38 -7.5t-15 -22.5q0 -13 10.5 -18.5t37.5 -10.5z" />
    <glyph glyph-name="seveneighths" unicode="&#x215e;" 
d="M56 347q18 70 47.5 124t73.5 98h-163v61h251v-61q-52 -44 -83.5 -97.5t-44.5 -124.5h-81zM349 361l-46 40l181 238l66 -56zM56 -9l-66 56l201 222l46 -40zM440 -12q-61 0 -97.5 24.5t-36.5 64.5q0 22 13 37t36 26v2q-40 22 -40 64q0 44 34 66.5t91 22.5t91 -22t34 -59
q0 -19 -10 -33.5t-29 -24.5v-2q24 -10 36 -28t12 -41q0 -47 -37.5 -72t-96.5 -25zM441 47q27 0 44 8.5t17 28.5q0 12 -9 18.5t-34 11.5l-46 10q-18 -7 -26.5 -18.5t-8.5 -23.5q0 -17 16.5 -26t46.5 -9zM466 170q15 7 21.5 16t6.5 19q0 31 -55 31q-23 0 -38 -7.5t-15 -22.5
q0 -13 10.5 -18.5t37.5 -10.5z" />
    <glyph glyph-name="arrowleft" unicode="&#x2190;" 
d="M249 47l-234 234l234 235l56 -55l-138 -139h390v-81h-390l138 -139z" />
    <glyph glyph-name="arrowup" unicode="&#x2191;" 
d="M250 10v391l-139 -139l-55 56l234 234l234 -234l-55 -56l-139 139v-391h-80z" />
    <glyph glyph-name="arrowright" unicode="&#x2192;" 
d="M331 47l-56 55l138 139h-390v81h390l-138 139l56 55l234 -235z" />
    <glyph glyph-name="arrowdown" unicode="&#x2193;" 
d="M290 10l-234 234l55 56l139 -139v391h80v-391l139 139l55 -56z" />
    <glyph glyph-name="arrowboth" unicode="&#x2194;" 
d="M172 76l-153 216l153 216l64 -46l-93 -132h294l-93 132l64 46l153 -216l-153 -216l-64 46l93 132h-294l93 -132z" />
    <glyph glyph-name="arrowupdn" unicode="&#x2195;" 
d="M290 11l-223 156l46 64l139 -97v316l-139 -97l-46 64l223 156l223 -156l-46 -64l-139 97v-316l139 97l46 -64z" />
    <glyph glyph-name="uni2196" unicode="&#x2196;" 
d="M456 61l-276 276v-195h-79v330h332v-78h-196l276 -276z" />
    <glyph glyph-name="uni2197" unicode="&#x2197;" 
d="M124 61l-57 57l277 277h-197v77h332v-330h-79v196z" />
    <glyph glyph-name="uni2198" unicode="&#x2198;" 
d="M147 61v79h196l-276 276l57 56l276 -275v195h79v-331h-332z" />
    <glyph glyph-name="uni2199" unicode="&#x2199;" 
d="M101 61v331h79v-195l276 275l57 -56l-276 -276h196v-79h-332z" />
    <glyph glyph-name="partialdiff" unicode="&#x2202;" 
d="M257 -12q-63 0 -110.5 26t-74 72.5t-26.5 108.5t26.5 109.5t73.5 74.5t108 27q47 0 89.5 -16.5t76.5 -49.5h2q0 6 0.5 11.5t0.5 11.5q0 101 -31.5 151.5t-92.5 50.5q-30 0 -56 -13.5t-48 -41.5l-80 68q35 41 82.5 62.5t104.5 21.5q112 0 171 -79.5t59 -226.5
q0 -112 -34 -194.5t-96 -128t-145 -45.5zM257 85q55 0 95 42.5t58 117.5q-57 64 -137 64q-54 0 -86.5 -31t-32.5 -83q0 -50 28.5 -80t74.5 -30z" />
    <glyph glyph-name="emptyset" unicode="&#x2205;" 
d="M80 14l-69 70l66 57q-21 32 -32.5 71t-11.5 83q0 77 33.5 136.5t91.5 93.5t132 34q88 0 154 -48l56 65l69 -70l-66 -57q21 -31 32.5 -70t11.5 -84q0 -77 -33.5 -136.5t-91.5 -93.5t-132 -34q-88 0 -154 48zM290 118q47 0 83.5 22.5t56.5 62t20 92.5q0 48 -18 86
l-233 -236q19 -13 42 -20t49 -7zM148 209l233 236q-19 13 -42 20t-49 7q-47 0 -83.5 -22.5t-56.5 -62t-20 -92.5q0 -48 18 -86z" />
    <glyph glyph-name="uni2206" unicode="&#x2206;" 
d="M19 0l214 650h114l214 -650h-542zM156 98h263l-132 406z" />
    <glyph glyph-name="product" unicode="&#x220f;" 
d="M68 -180v830h444v-830h-106v732h-232v-732h-106z" />
    <glyph glyph-name="summation" unicode="&#x2211;" 
d="M65 -180v73l233 342l-233 342v73h450v-98h-313l217 -317l-217 -317h313v-98h-450z" />
    <glyph glyph-name="minus" unicode="&#x2212;" 
d="M50 234v86h480v-86h-480z" />
    <glyph glyph-name="uni2215" unicode="&#x2215;" 
d="M-8 0l489 630h107l-489 -630h-107z" />
    <glyph glyph-name="uni2219" unicode="&#x2219;" 
d="M290 191q-35 0 -59.5 24.5t-24.5 59.5q0 36 24.5 60t59.5 24t59.5 -24t24.5 -60q0 -35 -24.5 -59.5t-59.5 -24.5z" />
    <glyph glyph-name="radical" unicode="&#x221a;" 
d="M244 -180l-108 414h-81v86h148l88 -338l165 728h87l-201 -890h-98z" />
    <glyph glyph-name="infinity" unicode="&#x221e;" 
d="M158 130q-45 0 -77 21t-48 58.5t-16 86.5q0 73 36.5 118.5t102.5 45.5q42 0 74 -21t57 -64h2q23 40 56 62.5t77 22.5q46 0 77.5 -21t47.5 -58.5t16 -86.5q0 -73 -36 -118.5t-103 -45.5q-42 0 -74 21t-57 64h-2q-22 -40 -55.5 -62.5t-77.5 -22.5zM163 211q30 0 48 23.5
t37 74.5q-15 26 -36 48t-49 22q-26 0 -41.5 -22t-15.5 -61q0 -40 15.5 -62.5t41.5 -22.5zM417 211q26 0 41.5 22t15.5 61q0 41 -15.5 63t-41.5 22q-29 0 -47.5 -23.5t-37.5 -74.5q15 -26 36 -48t49 -22z" />
    <glyph glyph-name="integral" unicode="&#x222b;" 
d="M150 -192q-71 0 -126 35l35 90q37 -27 85 -27q49 0 71 29t22 94v487q0 100 50 153t143 53q71 0 126 -35l-35 -90q-37 27 -85 27q-49 0 -71 -29t-22 -94v-487q0 -100 -49.5 -153t-143.5 -53z" />
    <glyph glyph-name="approxequal" unicode="&#x2248;" 
d="M142 302l-83 4q4 97 39 145t98 48q45 0 74 -21.5t50 -45.5q16 -17 32 -30t34 -13q24 0 36.5 26.5t15.5 83.5l83 -4q-4 -96 -38.5 -144t-98.5 -48q-45 0 -74 21.5t-50 45.5q-16 17 -31.5 30t-34.5 13q-24 0 -36.5 -26.5t-15.5 -84.5zM142 55l-83 4q4 96 39 144t98 48
q45 0 74 -21.5t50 -44.5q16 -18 32 -30.5t34 -12.5q24 0 36.5 26.5t15.5 83.5l83 -4q-4 -97 -38.5 -144.5t-98.5 -47.5q-45 0 -74 21t-50 45q-16 17 -31.5 30t-34.5 13q-24 0 -36.5 -26t-15.5 -84z" />
    <glyph glyph-name="notequal" unicode="&#x2260;" 
d="M89 27l60 99h-89v85h140l79 132h-219v85h271l59 99h101l-60 -99h89v-85h-141l-78 -132h219v-85h-271l-59 -99h-101z" />
    <glyph glyph-name="lessequal" unicode="&#x2264;" 
d="M495 126l-420 189v69l420 189v-91l-293 -132l293 -132v-92zM75 0v85h420v-85h-420z" />
    <glyph glyph-name="greaterequal" unicode="&#x2265;" 
d="M85 126v92l293 132l-293 132v91l420 -189v-69zM85 0v85h420v-85h-420z" />
    <glyph glyph-name="lozenge" unicode="&#x25ca;" 
d="M255 -10l-189 325l189 325h70l189 -325l-189 -325h-70zM290 96l124 219l-124 219l-124 -219z" />
    <glyph glyph-name="uniE0FF" unicode="&#xe0ff;" 
 />
    <glyph glyph-name="uniEFFD" unicode="&#xeffd;" 
 />
    <glyph glyph-name="uniF000" unicode="&#xf000;" 
 />
    <glyph glyph-name="uniF8FF" unicode="&#xf8ff;" 
d="M65 336v126h126v-126h-126zM227 282v18h-18v90h36v36h-36v36h18v-18h36v-18h18v18h-18v18h36v-18h18v18h18v-36h18v-18h-18v-36h-18v-18h-18v54h-36v-18h18v-36h-18v18h-36v-54h18v36h18v-18h18v18h18v-36h-36v-36h-36zM353 426v36h18v-36h-18zM389 336v126h126v-126
h-126zM83 354h90v90h-90v-90zM407 354h90v90h-90v-90zM101 372v54h54v-54h-54zM425 372v54h54v-54h-54zM317 318v36h18v-36h-18zM353 336v18h18v-18h-18zM83 264v18h-18v36h54v-18h-18v-18h18v-18h-36zM137 282v18h18v18h36v-18h-18v-18h-36zM335 264v54h18v-18h18v-18h-18
v-18h-18zM371 246v36h18v18h-18v18h72v-18h-18v-18h18v18h18v-18h18v-18h-18v-18h-36v18h-36v-18h-18zM497 264v18h-18v36h36v-54h-18zM173 264v18h18v18h18v-36h-36zM299 282v18h18v-18h-18zM263 264v18h18v-18h-18zM119 246v18h18v-18h-18zM137 228v18h18v18h18v-18h36
v-18h-72zM227 210v54h18v-54h-18zM317 246v18h18v-18h-18zM65 210v36h18v-36h-18zM299 12v18h18v18h-18v-18h-36v18h18v36h-18v-18h-18v36h54v18h18v-36h-18v-18h36v54h18v18h-18v18h-18v-18h-18v36h18v18h18v-18h18v18h-18v36h54v18h36v-36h54v-18h-54v-18h18v-36h18v-18
h-18v-18h18v-18h36v-18h18v-18h-36v18h-36v-36h-36v-18h-18v18h-18v-18h-18v36h-18v-36h-36zM263 174v18h18v36h-18v18h36v-18h18v-36h-18v-18h-36zM497 192v18h-18v18h18v18h18v-54h-18zM137 156v18h-18v18h-18v18h18v18h18v-36h18v-36h-18zM209 138v18h-36v18h18v18h-36
v18h54v-36h18v-36h-18zM245 192v18h18v-18h-18zM65 174v18h36v-18h-36zM227 174v18h18v-18h-18zM371 174h18v18h-18v-18zM101 156v18h18v-18h-18zM245 156v18h18v-18h-18zM479 156v18h18v-18h-18zM371 102h54v54h-54v-54zM461 138v18h18v-18h-18zM497 84v18h-18v18h18v36h18
v-72h-18zM65 12v126h126v-126h-126zM209 102v18h18v18h18v-36h-36zM263 120v18h18v-18h-18zM389 120v18h18v-18h-18zM83 30h90v90h-90v-90zM101 48v54h54v-54h-54zM353 66h18v18h-18v-18zM389 48h36v36h-36v-36zM209 12v54h36v-36h18v-18h-54zM443 12v18h18v-18h-18zM497 12
v18h18v-18h-18z" />
    <glyph glyph-name="uni004A0301" 
d="M265 -12q-63 0 -114 20.5t-97 66.5l60 79q35 -34 70 -50t76 -16q59 0 89.5 30.5t30.5 87.5v346h-218v98h324v-451q0 -101 -57.5 -156t-163.5 -55zM280 713l-40 53l158 131l60 -77z" />
    <glyph glyph-name="i.loclTRK" 
d="M238 0v380h-189v94h293v-380h189v-94h-293zM280 569q-32 0 -54.5 22t-22.5 54q0 33 22.5 55t54.5 22t54.5 -22t22.5 -55q0 -32 -22.5 -54t-54.5 -22z" />
    <glyph glyph-name="uni006A0301" 
d="M222 -222q-50 0 -95.5 12.5t-84.5 37.5l34 87q31 -20 64 -30.5t67 -10.5q52 0 79 26.5t27 76.5v403h-189v94h293v-513q0 -87 -51 -135t-144 -48zM321 546l-50 43l145 168l73 -64z" />
    <glyph glyph-name="zero.micro" 
d="M290 -12q-66 0 -100.5 39t-34.5 114q0 76 34.5 115t100.5 39q67 0 101 -39t34 -115q0 -75 -34 -114t-101 -39zM290 47q36 0 52.5 21.5t16.5 72.5q0 11 -0.5 20t-2.5 17l-114 -114q16 -17 48 -17zM224 105l114 114q-16 17 -48 17q-35 0 -52 -21.5t-17 -73.5q0 -10 1 -19
t2 -17z" />
    <glyph glyph-name="one.micro" 
d="M172 0v61h90v137l-71 -40l-30 47l122 84h52v-228h90v-61h-253z" />
    <glyph glyph-name="two.micro" 
d="M168 0v50q0 49 24.5 76t73.5 40l46 12q17 5 24 11.5t7 17.5q0 14 -12.5 20.5t-39.5 6.5t-50 -7t-43 -20l-28 55q23 14 53 23.5t70 9.5q57 0 89.5 -22.5t32.5 -68.5q0 -37 -21.5 -55t-64.5 -30l-48 -14q-19 -5 -29 -13.5t-11 -30.5h174v-61h-247z" />
    <glyph glyph-name="three.micro" 
d="M163 -12l-2 61q104 0 143.5 9t39.5 33q0 13 -12 18.5t-49 5.5h-68v57h50q41 0 55.5 8.5t14.5 23.5t-12.5 22.5t-41.5 7.5q-27 0 -51.5 -5.5t-43.5 -16.5l-24 55q29 14 58.5 21t62.5 7q61 0 92 -20.5t31 -58.5q0 -43 -41 -59v-2q52 -13 52 -66q0 -54 -57.5 -77.5
t-196.5 -23.5z" />
    <glyph glyph-name="four.micro" 
d="M317 0v58h-178v49l143 176h82l-133 -164h86v40l72 34v-74h53v-61h-53v-58h-72z" />
    <glyph glyph-name="five.micro" 
d="M167 -12l-2 61q68 0 106.5 4t54 13.5t15.5 24.5q0 10 -8 17t-35 7q-21 0 -37 -3.5t-33 -11.5l-57 17l19 166h211v-61h-152l-7 -65q16 8 34.5 12.5t39.5 4.5q47 0 72.5 -20t25.5 -61q0 -57 -57 -81t-190 -24z" />
    <glyph glyph-name="six.micro" 
d="M291 -12q-65 0 -100 35t-35 98q0 81 59.5 127.5t174.5 46.5l5 -61q-81 -1 -120.5 -23.5t-44.5 -63.5h2q14 13 34.5 21.5t48.5 8.5q49 0 75 -24t26 -66q0 -44 -32 -71.5t-93 -27.5zM293 49q26 0 38 10.5t12 26.5q0 15 -10.5 23.5t-37.5 8.5q-18 0 -34.5 -4.5t-29.5 -15.5
q4 -23 19.5 -36t42.5 -13z" />
    <glyph glyph-name="seven.micro" 
d="M206 0q18 70 47.5 124t73.5 98h-163v61h251v-61q-52 -44 -83.5 -97.5t-44.5 -124.5h-81z" />
    <glyph glyph-name="eight.micro" 
d="M290 -12q-61 0 -97.5 24.5t-36.5 64.5q0 22 13 37t36 26v2q-40 22 -40 64q0 44 34 66.5t91 22.5t91 -22t34 -59q0 -19 -10 -33.5t-29 -24.5v-2q24 -10 36 -28t12 -41q0 -47 -37.5 -72t-96.5 -25zM291 47q27 0 44 8.5t17 28.5q0 12 -9 18.5t-34 11.5l-46 10
q-18 -7 -26.5 -18.5t-8.5 -23.5q0 -17 16.5 -26t46.5 -9zM316 170q15 7 21.5 16t6.5 19q0 31 -55 31q-23 0 -38 -7.5t-15 -22.5q0 -13 10.5 -18.5t37.5 -10.5z" />
    <glyph glyph-name="nine.micro" 
d="M189 -12l-5 61q81 1 120.5 23.5t44.5 63.5h-2q-14 -13 -34.5 -21.5t-48.5 -8.5q-48 0 -74.5 24t-26.5 66q0 44 32.5 71.5t92.5 27.5q65 0 100 -34.5t35 -98.5q0 -81 -59.5 -127.5t-174.5 -46.5zM284 165q18 0 34.5 5t29.5 15q-4 23 -19 36t-43 13q-26 0 -38 -10.5
t-12 -26.5q0 -15 10.5 -23.5t37.5 -8.5z" />
    <glyph glyph-name="zero.mini" 
d="M290 -12q-97 0 -148.5 61.5t-51.5 178.5q0 118 51.5 179.5t148.5 61.5t148.5 -61.5t51.5 -179.5q0 -117 -51.5 -178.5t-148.5 -61.5zM290 68q110 0 110 160q0 34 -4 60l-183 -188q27 -32 77 -32zM184 169l183 188q-27 32 -77 32q-110 0 -110 -161q0 -33 4 -59z" />
    <glyph glyph-name="one.mini" 
d="M108 0v78h146v263l-119 -68l-37 59l184 130h62v-384h145v-78h-381z" />
    <glyph glyph-name="two.mini" 
d="M107 0v61q0 84 35 129t115 66l67 18q29 8 44 19.5t15 34.5q0 31 -24 46t-71 15q-41 0 -75 -12t-64 -36l-44 70q40 29 83.5 43.5t98.5 14.5q91 0 138.5 -37t47.5 -106q0 -54 -31 -84.5t-95 -48.5l-64 -18q-46 -12 -64 -31.5t-21 -65.5h275v-78h-366z" />
    <glyph glyph-name="three.mini" 
d="M105 -12l-2 78q102 0 164.5 7.5t90.5 25t28 46.5q0 26 -21.5 37t-72.5 11h-108v75h71q57 0 85 15t28 47q0 59 -94 59q-77 0 -135 -41l-41 70q40 26 84.5 38t95.5 12q87 0 133.5 -32t46.5 -92q0 -70 -67 -95v-2q85 -20 85 -105q0 -56 -37 -90t-118.5 -49t-215.5 -15z" />
    <glyph glyph-name="four.mini" 
d="M334 0v99h-261v66l210 292h99l-200 -279h152v102l90 53v-155h85v-79h-85v-99h-90z" />
    <glyph glyph-name="five.mini" 
d="M108 -12l-2 78q101 0 162 8t87.5 27t26.5 49q0 24 -18 37t-59 13q-61 0 -113 -26l-70 24l31 259h300v-78h-228l-14 -124q51 24 113 24q71 0 110 -33.5t39 -94.5q0 -59 -37.5 -94.5t-117.5 -51.5t-210 -17z" />
    <glyph glyph-name="six.mini" 
d="M297 -12q-93 0 -144.5 55t-51.5 155q0 129 87.5 199.5t258.5 71.5l5 -78q-116 -1 -180.5 -38t-77.5 -106h2q48 47 123 47q77 0 120.5 -39.5t43.5 -105.5q0 -72 -51 -116.5t-135 -44.5zM299 68q44 0 69 21t25 56q0 32 -23 51.5t-68 19.5q-32 0 -60 -11t-50 -36
q5 -48 33 -74.5t74 -26.5z" />
    <glyph glyph-name="seven.mini" 
d="M174 0q27 116 74 208.5t121 170.5h-267v78h375v-83q-82 -77 -131 -168t-71 -206h-101z" />
    <glyph glyph-name="eight.mini" 
d="M290 -12q-93 0 -147 37t-54 100q0 36 19 62t60 47v2q-60 34 -60 100q0 63 49.5 98t132.5 35q84 0 133 -35t49 -93q0 -60 -60 -96v-2q41 -16 60 -43.5t19 -67.5q0 -68 -54 -106t-147 -38zM290 68q52 0 81.5 16t29.5 47q0 21 -14.5 34t-48.5 20l-81 21q-40 -15 -59 -32.5
t-19 -41.5q0 -32 29.5 -48t81.5 -16zM323 269q30 12 44 28t14 37q0 28 -23 41.5t-68 13.5q-42 0 -66.5 -13t-24.5 -40q0 -19 14.5 -30.5t48.5 -20.5z" />
    <glyph glyph-name="nine.mini" 
d="M133 -12l-5 78q117 1 181.5 38.5t76.5 105.5h-2q-48 -47 -123 -47q-76 0 -120 39.5t-44 105.5q0 72 51 116.5t135 44.5q93 0 144.5 -55t51.5 -155q0 -130 -87.5 -200t-258.5 -71zM278 241q32 0 60 11.5t50 35.5q-4 48 -32.5 74.5t-74.5 26.5q-43 0 -68.5 -21t-25.5 -56
q0 -32 23 -51.5t68 -19.5z" />
    <glyph glyph-name="zero.putit" 
d="M290 -12q-80 0 -122.5 46t-42.5 133t42.5 133t122.5 46t122.5 -46t42.5 -133t-42.5 -133t-122.5 -46zM290 52q93 0 93 115q0 13 -1 23.5t-3 20.5l-151 -139q23 -20 62 -20zM201 123l151 139q-22 20 -62 20q-93 0 -93 -115q0 -12 1 -23t3 -21z" />
    <glyph glyph-name="one.putit" 
d="M143 0v64h116v180l-95 -48l-31 47l148 97h53v-276h116v-64h-307z" />
    <glyph glyph-name="two.putit" 
d="M143 0v52q0 62 27.5 94t91.5 48l55 14q24 6 34.5 14t10.5 22q0 38 -71 38q-35 0 -62 -8.5t-53 -27.5l-34 59q31 20 66.5 30.5t82.5 10.5q71 0 109 -26t38 -78q0 -41 -25 -63.5t-77 -35.5l-50 -13q-37 -10 -51.5 -22t-16.5 -44h220v-64h-295z" />
    <glyph glyph-name="three.putit" 
d="M137 -12l-1 64q125 0 177.5 12t52.5 41q0 17 -18 24.5t-65 7.5h-81v60h58q47 0 69 11t22 32q0 22 -19 32t-55 10q-32 0 -61 -8t-53 -22l-28 59q63 35 144 35q72 0 110 -24.5t38 -69.5q0 -50 -51 -69v-2q66 -18 66 -79q0 -41 -29.5 -66t-96.5 -36.5t-179 -11.5z" />
    <glyph glyph-name="four.putit" 
d="M327 0v71h-219v54l176 209h90l-167 -200h120v54l76 43v-97h70v-63h-70v-71h-76z" />
    <glyph glyph-name="five.putit" 
d="M143 -12l-2 64q119 0 169.5 12.5t50.5 45.5q0 17 -13.5 26t-46.5 9q-48 0 -89 -19l-59 18l24 190h243v-64h-183l-10 -82q20 9 42 14t47 5q57 0 88 -25t31 -72q0 -66 -68 -94t-224 -28z" />
    <glyph glyph-name="six.putit" 
d="M291 -12q-74 0 -117 41t-43 115q0 97 72 149t210 53l5 -64q-96 0 -148 -27t-61 -77h2q40 36 103 36q64 0 97 -29t33 -77q0 -53 -39.5 -86.5t-113.5 -33.5zM292 52q38 0 57 14.5t19 38.5q0 20 -16 33.5t-54 13.5q-52 0 -89 -34q5 -31 27 -48.5t56 -17.5z" />
    <glyph glyph-name="seven.putit" 
d="M195 0q22 84 58.5 149.5t92.5 120.5h-208v64h304v-67q-67 -55 -106 -118.5t-56 -148.5h-85z" />
    <glyph glyph-name="eight.putit" 
d="M290 -12q-74 0 -118.5 28t-44.5 75q0 27 14 46t46 33v2q-46 24 -46 74q0 46 40.5 73t108.5 27t108.5 -26t40.5 -70q0 -45 -45 -70v-2q59 -25 59 -80q0 -52 -44 -81t-119 -29zM290 52q40 0 63.5 12t23.5 34q0 14 -12.5 22t-41.5 15l-54 12q-66 -19 -66 -51q0 -22 23 -33
t64 -11zM311 199q27 8 39.5 19t12.5 26q0 38 -73 38q-34 0 -53.5 -9.5t-19.5 -27.5q0 -14 12 -21.5t42 -15.5z" />
    <glyph glyph-name="nine.putit" 
d="M167 -12l-5 64q96 0 148 27t61 77h-2q-40 -36 -103 -36q-64 0 -97 29t-33 77q0 53 39.5 86.5t113.5 33.5q75 0 117.5 -41t42.5 -115q0 -97 -71.5 -149t-210.5 -53zM282 183q52 0 89 33q-5 31 -26.5 48.5t-56.5 17.5q-38 0 -57 -14.5t-19 -38.5q0 -20 16 -33t54 -13z" />
    <glyph glyph-name="zero.dnom" 
d="M290 -12q-66 0 -100.5 39t-34.5 114q0 76 34.5 115t100.5 39q67 0 101 -39t34 -115q0 -75 -34 -114t-101 -39zM290 47q36 0 52.5 21.5t16.5 72.5q0 11 -0.5 20t-2.5 17l-114 -114q16 -17 48 -17zM224 105l114 114q-16 17 -48 17q-35 0 -52 -21.5t-17 -73.5q0 -10 1 -19
t2 -17z" />
    <glyph glyph-name="one.dnom" 
d="M172 0v61h90v137l-71 -40l-30 47l122 84h52v-228h90v-61h-253z" />
    <glyph glyph-name="two.dnom" 
d="M168 0v50q0 49 24.5 76t73.5 40l46 12q17 5 24 11.5t7 17.5q0 14 -12.5 20.5t-39.5 6.5t-50 -7t-43 -20l-28 55q23 14 53 23.5t70 9.5q57 0 89.5 -22.5t32.5 -68.5q0 -37 -21.5 -55t-64.5 -30l-48 -14q-19 -5 -29 -13.5t-11 -30.5h174v-61h-247z" />
    <glyph glyph-name="three.dnom" 
d="M163 -12l-2 61q104 0 143.5 9t39.5 33q0 13 -12 18.5t-49 5.5h-68v57h50q41 0 55.5 8.5t14.5 23.5t-12.5 22.5t-41.5 7.5q-27 0 -51.5 -5.5t-43.5 -16.5l-24 55q29 14 58.5 21t62.5 7q61 0 92 -20.5t31 -58.5q0 -43 -41 -59v-2q52 -13 52 -66q0 -54 -57.5 -77.5
t-196.5 -23.5z" />
    <glyph glyph-name="four.dnom" 
d="M317 0v58h-178v49l143 176h82l-133 -164h86v40l72 34v-74h53v-61h-53v-58h-72z" />
    <glyph glyph-name="five.dnom" 
d="M167 -12l-2 61q68 0 106.5 4t54 13.5t15.5 24.5q0 10 -8 17t-35 7q-21 0 -37 -3.5t-33 -11.5l-57 17l19 166h211v-61h-152l-7 -65q16 8 34.5 12.5t39.5 4.5q47 0 72.5 -20t25.5 -61q0 -57 -57 -81t-190 -24z" />
    <glyph glyph-name="six.dnom" 
d="M291 -12q-65 0 -100 35t-35 98q0 81 59.5 127.5t174.5 46.5l5 -61q-81 -1 -120.5 -23.5t-44.5 -63.5h2q14 13 34.5 21.5t48.5 8.5q49 0 75 -24t26 -66q0 -44 -32 -71.5t-93 -27.5zM293 49q26 0 38 10.5t12 26.5q0 15 -10.5 23.5t-37.5 8.5q-18 0 -34.5 -4.5t-29.5 -15.5
q4 -23 19.5 -36t42.5 -13z" />
    <glyph glyph-name="seven.dnom" 
d="M206 0q18 70 47.5 124t73.5 98h-163v61h251v-61q-52 -44 -83.5 -97.5t-44.5 -124.5h-81z" />
    <glyph glyph-name="eight.dnom" 
d="M290 -12q-61 0 -97.5 24.5t-36.5 64.5q0 22 13 37t36 26v2q-40 22 -40 64q0 44 34 66.5t91 22.5t91 -22t34 -59q0 -19 -10 -33.5t-29 -24.5v-2q24 -10 36 -28t12 -41q0 -47 -37.5 -72t-96.5 -25zM291 47q27 0 44 8.5t17 28.5q0 12 -9 18.5t-34 11.5l-46 10
q-18 -7 -26.5 -18.5t-8.5 -23.5q0 -17 16.5 -26t46.5 -9zM316 170q15 7 21.5 16t6.5 19q0 31 -55 31q-23 0 -38 -7.5t-15 -22.5q0 -13 10.5 -18.5t37.5 -10.5z" />
    <glyph glyph-name="nine.dnom" 
d="M189 -12l-5 61q81 1 120.5 23.5t44.5 63.5h-2q-14 -13 -34.5 -21.5t-48.5 -8.5q-48 0 -74.5 24t-26.5 66q0 44 32.5 71.5t92.5 27.5q65 0 100 -34.5t35 -98.5q0 -81 -59.5 -127.5t-174.5 -46.5zM284 165q18 0 34.5 5t29.5 15q-4 23 -19 36t-43 13q-26 0 -38 -10.5
t-12 -26.5q0 -15 10.5 -23.5t37.5 -8.5z" />
    <glyph glyph-name="zero.numr" 
d="M290 335q-66 0 -100.5 39t-34.5 114q0 76 34.5 115t100.5 39q67 0 101 -39t34 -115q0 -75 -34 -114t-101 -39zM290 394q36 0 52.5 21.5t16.5 72.5q0 11 -0.5 20t-2.5 17l-114 -114q16 -17 48 -17zM224 452l114 114q-16 17 -48 17q-35 0 -52 -21.5t-17 -73.5q0 -10 1 -19
t2 -17z" />
    <glyph glyph-name="one.numr" 
d="M172 347v61h90v137l-71 -40l-30 47l122 84h52v-228h90v-61h-253z" />
    <glyph glyph-name="two.numr" 
d="M168 347v50q0 49 24.5 76t73.5 40l46 12q17 5 24 11.5t7 17.5q0 14 -12.5 20.5t-39.5 6.5t-50 -7t-43 -20l-28 55q23 14 53 23.5t70 9.5q57 0 89.5 -22.5t32.5 -68.5q0 -37 -21.5 -55t-64.5 -30l-48 -14q-19 -5 -29 -13.5t-11 -30.5h174v-61h-247z" />
    <glyph glyph-name="three.numr" 
d="M163 335l-2 61q104 0 143.5 9t39.5 33q0 13 -12 18.5t-49 5.5h-68v57h50q41 0 55.5 8.5t14.5 23.5t-12.5 22.5t-41.5 7.5q-27 0 -51.5 -5.5t-43.5 -16.5l-24 55q29 14 58.5 21t62.5 7q61 0 92 -20.5t31 -58.5q0 -43 -41 -59v-2q52 -13 52 -66q0 -54 -57.5 -77.5
t-196.5 -23.5z" />
    <glyph glyph-name="four.numr" 
d="M317 347v58h-178v49l143 176h82l-133 -164h86v40l72 34v-74h53v-61h-53v-58h-72z" />
    <glyph glyph-name="five.numr" 
d="M167 335l-2 61q68 0 106.5 4t54 13.5t15.5 24.5q0 10 -8 17t-35 7q-21 0 -37 -3.5t-33 -11.5l-57 17l19 166h211v-61h-152l-7 -65q16 8 34.5 12.5t39.5 4.5q47 0 72.5 -20t25.5 -61q0 -57 -57 -81t-190 -24z" />
    <glyph glyph-name="six.numr" 
d="M291 335q-65 0 -100 35t-35 98q0 81 59.5 127.5t174.5 46.5l5 -61q-81 -1 -120.5 -23.5t-44.5 -63.5h2q14 13 34.5 21.5t48.5 8.5q49 0 75 -24t26 -66q0 -44 -32 -71.5t-93 -27.5zM293 396q26 0 38 10.5t12 26.5q0 15 -10.5 23.5t-37.5 8.5q-18 0 -34.5 -4.5t-29.5 -15.5
q4 -23 19.5 -36t42.5 -13z" />
    <glyph glyph-name="seven.numr" 
d="M206 347q18 70 47.5 124t73.5 98h-163v61h251v-61q-52 -44 -83.5 -97.5t-44.5 -124.5h-81z" />
    <glyph glyph-name="eight.numr" 
d="M290 335q-61 0 -97.5 24.5t-36.5 64.5q0 22 13 37t36 26v2q-40 22 -40 64q0 44 34 66.5t91 22.5t91 -22t34 -59q0 -19 -10 -33.5t-29 -24.5v-2q24 -10 36 -28t12 -41q0 -47 -37.5 -72t-96.5 -25zM291 394q27 0 44 8.5t17 28.5q0 12 -9 18.5t-34 11.5l-46 10
q-18 -7 -26.5 -18.5t-8.5 -23.5q0 -17 16.5 -26t46.5 -9zM316 517q15 7 21.5 16t6.5 19q0 31 -55 31q-23 0 -38 -7.5t-15 -22.5q0 -13 10.5 -18.5t37.5 -10.5z" />
    <glyph glyph-name="nine.numr" 
d="M189 335l-5 61q81 1 120.5 23.5t44.5 63.5h-2q-14 -13 -34.5 -21.5t-48.5 -8.5q-48 0 -74.5 24t-26.5 66q0 44 32.5 71.5t92.5 27.5q65 0 100 -34.5t35 -98.5q0 -81 -59.5 -127.5t-174.5 -46.5zM284 512q18 0 34.5 5t29.5 15q-4 23 -19 36t-43 13q-26 0 -38 -10.5
t-12 -26.5q0 -15 10.5 -23.5t37.5 -8.5z" />
    <glyph glyph-name="zero.dnom.alt" 
d="M290 -12q-80 0 -122.5 46t-42.5 133t42.5 133t122.5 46t122.5 -46t42.5 -133t-42.5 -133t-122.5 -46zM290 52q93 0 93 115q0 13 -1 23.5t-3 20.5l-151 -139q23 -20 62 -20zM201 123l151 139q-22 20 -62 20q-93 0 -93 -115q0 -12 1 -23t3 -21z" />
    <glyph glyph-name="one.dnom.alt" 
d="M143 0v64h116v180l-95 -48l-31 47l148 97h53v-276h116v-64h-307z" />
    <glyph glyph-name="two.dnom.alt" 
d="M143 0v52q0 62 27.5 94t91.5 48l55 14q24 6 34.5 14t10.5 22q0 38 -71 38q-35 0 -62 -8.5t-53 -27.5l-34 59q31 20 66.5 30.5t82.5 10.5q71 0 109 -26t38 -78q0 -41 -25 -63.5t-77 -35.5l-50 -13q-37 -10 -51.5 -22t-16.5 -44h220v-64h-295z" />
    <glyph glyph-name="three.dnom.alt" 
d="M137 -12l-1 64q125 0 177.5 12t52.5 41q0 17 -18 24.5t-65 7.5h-81v60h58q47 0 69 11t22 32q0 22 -19 32t-55 10q-32 0 -61 -8t-53 -22l-28 59q63 35 144 35q72 0 110 -24.5t38 -69.5q0 -50 -51 -69v-2q66 -18 66 -79q0 -41 -29.5 -66t-96.5 -36.5t-179 -11.5z" />
    <glyph glyph-name="four.dnom.alt" 
d="M327 0v71h-219v54l176 209h90l-167 -200h120v54l76 43v-97h70v-63h-70v-71h-76z" />
    <glyph glyph-name="five.dnom.alt" 
d="M143 -12l-2 64q119 0 169.5 12.5t50.5 45.5q0 17 -13.5 26t-46.5 9q-48 0 -89 -19l-59 18l24 190h243v-64h-183l-10 -82q20 9 42 14t47 5q57 0 88 -25t31 -72q0 -66 -68 -94t-224 -28z" />
    <glyph glyph-name="six.dnom.alt" 
d="M291 -12q-74 0 -117 41t-43 115q0 97 72 149t210 53l5 -64q-96 0 -148 -27t-61 -77h2q40 36 103 36q64 0 97 -29t33 -77q0 -53 -39.5 -86.5t-113.5 -33.5zM292 52q38 0 57 14.5t19 38.5q0 20 -16 33.5t-54 13.5q-52 0 -89 -34q5 -31 27 -48.5t56 -17.5z" />
    <glyph glyph-name="seven.dnom.alt" 
d="M195 0q22 84 58.5 149.5t92.5 120.5h-208v64h304v-67q-67 -55 -106 -118.5t-56 -148.5h-85z" />
    <glyph glyph-name="eight.dnom.alt" 
d="M290 -12q-74 0 -118.5 28t-44.5 75q0 27 14 46t46 33v2q-46 24 -46 74q0 46 40.5 73t108.5 27t108.5 -26t40.5 -70q0 -45 -45 -70v-2q59 -25 59 -80q0 -52 -44 -81t-119 -29zM290 52q40 0 63.5 12t23.5 34q0 14 -12.5 22t-41.5 15l-54 12q-66 -19 -66 -51q0 -22 23 -33
t64 -11zM311 199q27 8 39.5 19t12.5 26q0 38 -73 38q-34 0 -53.5 -9.5t-19.5 -27.5q0 -14 12 -21.5t42 -15.5z" />
    <glyph glyph-name="nine.dnom.alt" 
d="M167 -12l-5 64q96 0 148 27t61 77h-2q-40 -36 -103 -36q-64 0 -97 29t-33 77q0 53 39.5 86.5t113.5 33.5q75 0 117.5 -41t42.5 -115q0 -97 -71.5 -149t-210.5 -53zM282 183q52 0 89 33q-5 31 -26.5 48.5t-56.5 17.5q-38 0 -57 -14.5t-19 -38.5q0 -20 16 -33t54 -13z" />
    <glyph glyph-name="zero.numr.alt" 
d="M290 285q-80 0 -122.5 46t-42.5 133t42.5 133t122.5 46t122.5 -46t42.5 -133t-42.5 -133t-122.5 -46zM290 349q93 0 93 115q0 13 -1 23.5t-3 20.5l-151 -139q23 -20 62 -20zM201 420l151 139q-22 20 -62 20q-93 0 -93 -115q0 -12 1 -23t3 -21z" />
    <glyph glyph-name="one.numr.alt" 
d="M143 297v64h116v180l-95 -48l-31 47l148 97h53v-276h116v-64h-307z" />
    <glyph glyph-name="two.numr.alt" 
d="M143 297v52q0 62 27.5 94t91.5 48l55 14q24 6 34.5 14t10.5 22q0 38 -71 38q-35 0 -62 -8.5t-53 -27.5l-34 59q31 20 66.5 30.5t82.5 10.5q71 0 109 -26t38 -78q0 -41 -25 -63.5t-77 -35.5l-50 -13q-37 -10 -51.5 -22t-16.5 -44h220v-64h-295z" />
    <glyph glyph-name="three.numr.alt" 
d="M137 285l-1 64q125 0 177.5 12t52.5 41q0 17 -18 24.5t-65 7.5h-81v60h58q47 0 69 11t22 32q0 22 -19 32t-55 10q-32 0 -61 -8t-53 -22l-28 59q63 35 144 35q72 0 110 -24.5t38 -69.5q0 -50 -51 -69v-2q66 -18 66 -79q0 -41 -29.5 -66t-96.5 -36.5t-179 -11.5z" />
    <glyph glyph-name="four.numr.alt" 
d="M327 297v71h-219v54l176 209h90l-167 -200h120v54l76 43v-97h70v-63h-70v-71h-76z" />
    <glyph glyph-name="five.numr.alt" 
d="M143 285l-2 64q119 0 169.5 12.5t50.5 45.5q0 17 -13.5 26t-46.5 9q-48 0 -89 -19l-59 18l24 190h243v-64h-183l-10 -82q20 9 42 14t47 5q57 0 88 -25t31 -72q0 -66 -68 -94t-224 -28z" />
    <glyph glyph-name="six.numr.alt" 
d="M291 285q-74 0 -117 41t-43 115q0 97 72 149t210 53l5 -64q-96 0 -148 -27t-61 -77h2q40 36 103 36q64 0 97 -29t33 -77q0 -53 -39.5 -86.5t-113.5 -33.5zM292 349q38 0 57 14.5t19 38.5q0 20 -16 33.5t-54 13.5q-52 0 -89 -34q5 -31 27 -48.5t56 -17.5z" />
    <glyph glyph-name="seven.numr.alt" 
d="M195 297q22 84 58.5 149.5t92.5 120.5h-208v64h304v-67q-67 -55 -106 -118.5t-56 -148.5h-85z" />
    <glyph glyph-name="eight.numr.alt" 
d="M290 285q-74 0 -118.5 28t-44.5 75q0 27 14 46t46 33v2q-46 24 -46 74q0 46 40.5 73t108.5 27t108.5 -26t40.5 -70q0 -45 -45 -70v-2q59 -25 59 -80q0 -52 -44 -81t-119 -29zM290 349q40 0 63.5 12t23.5 34q0 14 -12.5 22t-41.5 15l-54 12q-66 -19 -66 -51q0 -22 23 -33
t64 -11zM311 496q27 8 39.5 19t12.5 26q0 38 -73 38q-34 0 -53.5 -9.5t-19.5 -27.5q0 -14 12 -21.5t42 -15.5z" />
    <glyph glyph-name="nine.numr.alt" 
d="M167 285l-5 64q96 0 148 27t61 77h-2q-40 -36 -103 -36q-64 0 -97 29t-33 77q0 53 39.5 86.5t113.5 33.5q75 0 117.5 -41t42.5 -115q0 -97 -71.5 -149t-210.5 -53zM282 480q52 0 89 33q-5 31 -26.5 48.5t-56.5 17.5q-38 0 -57 -14.5t-19 -38.5q0 -20 16 -33t54 -13z" />
    <glyph glyph-name="exclamdown.case" 
d="M301 422l59 -359v-63h-140v63l59 359h22zM290 662q33 0 55 -22t22 -55q0 -32 -22 -54t-55 -22q-32 0 -54.5 22t-22.5 54q0 33 22.5 55t54.5 22z" />
    <glyph glyph-name="questiondown.case" 
d="M370 422q10 -39 10 -69q0 -88 -92 -112l-40 -11q-45 -11 -62 -26t-17 -44q0 -39 28 -56.5t88 -17.5q56 0 100.5 16t84.5 49l56 -83q-53 -41 -109.5 -60.5t-128.5 -19.5q-111 0 -168.5 43t-57.5 128q0 64 34 101t107 55l39 10q24 6 35.5 17t11.5 34q0 9 -2 20.5t-6 25.5
h89zM318 662q33 0 55 -22t22 -55q0 -32 -22 -54t-55 -22q-32 0 -54.5 22t-22.5 54q0 33 22.5 55t54.5 22z" />
    <glyph glyph-name="periodcentered.case" 
d="M290 241q-35 0 -59.5 24.5t-24.5 59.5q0 36 24.5 60t59.5 24t59.5 -24t24.5 -60q0 -35 -24.5 -59.5t-59.5 -24.5z" />
    <glyph glyph-name="bullet.case" 
d="M290 181q-39 0 -72 19.5t-52.5 52t-19.5 72.5q0 39 19.5 71.5t52.5 52.5t72 20q40 0 72.5 -20t52 -52.5t19.5 -71.5q0 -40 -19.5 -72.5t-52 -52t-72.5 -19.5z" />
    <glyph glyph-name="hyphen.case" 
d="M90 286v78h400v-78h-400z" />
    <glyph glyph-name="endash.case" 
d="M60 286v78h460v-78h-460z" />
    <glyph glyph-name="emdash.case" 
d="M0 286v78h580v-78h-580z" />
    <glyph glyph-name="parenleft.case" 
d="M453 -147q-99 26 -171 91t-111 162.5t-39 218.5t39 218.5t111 163t171 90.5v-76q-70 -22 -121.5 -76.5t-80.5 -135t-29 -184.5q0 -103 29 -184t80.5 -135.5t121.5 -76.5v-76z" />
    <glyph glyph-name="parenright.case" 
d="M127 -147v76q70 22 122 76.5t80.5 135.5t28.5 184q0 104 -28.5 184.5t-80.5 135t-122 76.5v76q99 -25 171 -90.5t111 -163t39 -218.5t-39 -218.5t-111 -162.5t-171 -91z" />
    <glyph glyph-name="braceleft.case" 
d="M409 -135q-98 0 -142 47.5t-44 136.5q0 19 1.5 37t3.5 37q2 18 3 34t1 31q0 54 -20 76t-70 22h-55v78h55q50 0 70 22t20 76q0 15 -1 31t-3 34q-2 19 -3.5 37t-1.5 37q0 89 44 136.5t142 47.5h79v-77h-60q-63 0 -90 -26.5t-27 -85.5q0 -13 1.5 -30t2.5 -33q2 -20 3.5 -38
t1.5 -34q0 -58 -22.5 -89.5t-67.5 -44.5v-4q45 -13 67.5 -44t22.5 -90q0 -16 -1.5 -34t-3.5 -38q-1 -16 -2.5 -32.5t-1.5 -30.5q0 -59 27 -85.5t90 -26.5h60v-77h-79z" />
    <glyph glyph-name="braceright.case" 
d="M92 -135v77h60q63 0 90 26.5t27 85.5q0 14 -1 30.5t-3 32.5q-2 20 -3.5 38t-1.5 34q0 59 22.5 90t67.5 44v4q-45 13 -67.5 44.5t-22.5 89.5q0 16 1.5 34t3.5 38q2 16 3 33t1 30q0 59 -27 85.5t-90 26.5h-60v77h79q99 0 142.5 -47.5t43.5 -136.5q0 -19 -1.5 -37t-3.5 -37
q-2 -18 -3 -34t-1 -31q0 -54 20 -76t70 -22h55v-78h-55q-50 0 -70 -22t-20 -76q0 -15 1 -31t3 -34q2 -19 3.5 -37t1.5 -37q0 -89 -43.5 -136.5t-142.5 -47.5h-79z" />
    <glyph glyph-name="bracketleft.case" 
d="M153 -135v920h315v-77h-227v-766h227v-77h-315z" />
    <glyph glyph-name="bracketright.case" 
d="M112 -135v77h227v766h-227v77h315v-920h-315z" />
    <glyph glyph-name="guillemotleft.case" 
d="M473 135l-167 164v52l167 164l38 -35l-107 -155l107 -155zM235 135l-168 164v52l168 164l37 -35l-106 -155l106 -155z" />
    <glyph glyph-name="guillemotright.case" 
d="M345 135l-37 35l106 155l-106 154l37 35l168 -163v-53zM107 135l-38 35l107 155l-107 154l38 35l167 -163v-53z" />
    <glyph glyph-name="guilsinglleft.case" 
d="M385 137l-224 162v52l224 162l31 -40l-147 -148l147 -147z" />
    <glyph glyph-name="guilsinglright.case" 
d="M195 137l-31 41l147 147l-147 148l31 40l224 -162v-52z" />
    <glyph glyph-name="at.case" 
d="M321 -29q-146 0 -222 93.5t-76 260.5q0 168 77 261t222 93q110 0 168 -55t58 -160v-284h-66l-10 44q-62 -56 -138 -56q-69 0 -111 40.5t-42 107.5q0 72 46.5 110.5t123.5 38.5h107v3q0 62 -35 94.5t-101 32.5q-98 0 -152.5 -70t-54.5 -199q0 -132 56 -201.5t155 -69.5
q38 0 75 11t69 32l32 -77q-79 -50 -181 -50zM347 253q31 0 59 12t52 38v87h-97q-45 0 -66.5 -19t-21.5 -53q0 -30 18.5 -47.5t55.5 -17.5z" />
    <glyph glyph-name="bar.case" 
d="M243 -175v1000h94v-1000h-94z" />
    <glyph glyph-name="brokenbar.case" 
d="M243 475v350h94v-350h-94zM243 -175v350h94v-350h-94z" />
    <glyph glyph-name="uni030C.alt" horiz-adv-x="0" 
d="M266 511l-49 34q25 31 35 58.5t10 56.5q0 12 -1.5 24.5t-4.5 25.5l107 12q0 -49 -9 -84.5t-30 -65t-58 -61.5z" />
    <glyph glyph-name="uni0308.case" horiz-adv-x="0" 
d="M185 729q-32 0 -53 21.5t-21 52.5t21 52.5t53 21.5q31 0 52 -21.5t21 -52.5t-21 -52.5t-52 -21.5zM395 729q-31 0 -52 21.5t-21 52.5t21 52.5t52 21.5q32 0 53 -21.5t21 -52.5t-21 -52.5t-53 -21.5z" />
    <glyph glyph-name="uni0307.case" horiz-adv-x="0" 
d="M290 726q-32 0 -54.5 22.5t-22.5 54.5t22.5 54.5t54.5 22.5t54.5 -22.5t22.5 -54.5t-22.5 -54.5t-54.5 -22.5z" />
    <glyph glyph-name="gravecomb.case" horiz-adv-x="0" 
d="M334 713l-178 107l60 77l158 -131z" />
    <glyph glyph-name="acutecomb.case" horiz-adv-x="0" 
d="M246 713l-40 53l158 131l60 -77z" />
    <glyph glyph-name="uni030B.case" horiz-adv-x="0" 
d="M368 714l-41 51l134 130l61 -75zM149 714l-41 51l134 130l61 -75z" />
    <glyph glyph-name="uni0302.case" horiz-adv-x="0" 
d="M156 713l-40 53l157 130h34l157 -130l-40 -53l-134 89z" />
    <glyph glyph-name="uni030C.case" horiz-adv-x="0" 
d="M273 713l-157 131l40 52l134 -88l134 88l40 -52l-157 -131h-34z" />
    <glyph glyph-name="uni0306.case" horiz-adv-x="0" 
d="M290 726q-45 0 -79.5 18.5t-55 53t-26.5 82.5h79q3 -33 26 -51t56 -18t56.5 18t25.5 51h79q-5 -48 -26 -82.5t-55 -53t-80 -18.5z" />
    <glyph glyph-name="uni030A.case" horiz-adv-x="0" 
d="M290 689q-49 0 -82 32.5t-33 81.5t33 81.5t82 32.5t82 -32.5t33 -81.5t-33 -81.5t-82 -32.5zM290 755q20 0 32.5 13.5t12.5 34.5q0 22 -12.5 35t-32.5 13q-19 0 -32 -13t-13 -35q0 -21 13 -34.5t32 -13.5z" />
    <glyph glyph-name="tildecomb.case" horiz-adv-x="0" 
d="M183 727l-68 12q13 65 41.5 98t72.5 33q31 0 50.5 -10.5t34.5 -20.5q10 -7 19 -12.5t19 -5.5q16 0 27.5 13.5t18.5 45.5l67 -12q-12 -64 -40.5 -97.5t-73.5 -33.5q-30 0 -50 10.5t-34 20.5q-10 7 -19 12.5t-20 5.5q-16 0 -27.5 -13.5t-17.5 -45.5z" />
    <glyph glyph-name="uni0304.case" horiz-adv-x="0" 
d="M148 762v82h284v-82h-284z" />
  </font>
</defs>
</svg>
